<svg width="57" height="57" fill="none" xmlns="http://www.w3.org/2000/svg"><g clip-path="url(#clip0)" fill="#000" stroke="#fff" stroke-width="2.5"><path d="M33.844 21.375H23.157a1.781 1.781 0 01-1.781-1.781V14.25h-3.563a1.781 1.781 0 01-1.265-3.046L27.236.517a1.781 1.781 0 012.53 0l10.687 10.687a1.782 1.782 0 01-1.265 3.046h-3.562v5.344a1.782 1.782 0 01-1.782 1.781zm-8.906-3.562h7.125v-5.344a1.781 1.781 0 011.781-1.781h1.051l-6.394-6.395-6.395 6.395h1.05a1.781 1.781 0 011.782 1.78v5.345z"/><path d="M49.875 17.813H7.125a5.344 5.344 0 00-5.344 5.343v28.5A5.344 5.344 0 007.125 57h42.75a5.344 5.344 0 005.344-5.344v-28.5a5.344 5.344 0 00-5.344-5.343zM5.344 30.28h46.312v5.344H5.344V30.28zm1.781-8.906h42.75a1.781 1.781 0 011.781 1.781v3.563H5.344v-3.563a1.781 1.781 0 011.781-1.781zm42.75 32.063H7.125a1.781 1.781 0 01-1.781-1.782V39.188h46.312v12.468a1.781 1.781 0 01-1.781 1.782z"/><path d="M19.594 46.313h-8.907a1.781 1.781 0 000 3.562h8.907a1.781 1.781 0 000-3.563z"/></g><defs><clipPath id="clip0"><path fill="#fff" d="M0 0h57v57H0z"/></clipPath></defs></svg>