<svg width="18" height="18" fill="none" xmlns="http://www.w3.org/2000/svg"><path clip-rule="evenodd" d="M1.5 2.408v4.5a.135.135 0 00.098.135l2.055.75a.157.157 0 01.097.142V15a1.5 1.5 0 001.5 1.5h7.5a1.5 1.5 0 001.5-1.5V7.92a.165.165 0 01.105-.15l2.048-.75a.135.135 0 00.097-.105v-4.5a.15.15 0 00-.127-.15l-4.26-.765a.157.157 0 00-.165.09l-.803 1.703A2.378 2.378 0 019 4.65v0a2.377 2.377 0 01-2.145-1.357l-.802-1.695a.158.158 0 00-.165-.098l-4.26.75a.15.15 0 00-.128.158v0z" stroke="#C41616" stroke-width="1.5" stroke-linecap="round" stroke-linejoin="round"/></svg>