<svg width="57" height="57" fill="none" xmlns="http://www.w3.org/2000/svg"><g clip-path="url(#clip0)" fill="#000" stroke="#fff" stroke-width="2.5"><path d="M26.718 57a1.781 1.781 0 01-1.781-1.781 7.712 7.712 0 00-3.046-5.86 1.788 1.788 0 012.53-2.53l1.032 1.051a10.42 10.42 0 013.047 7.339A1.781 1.781 0 0126.718 57zm23.157 0a1.781 1.781 0 01-1.782-1.781V31.938a5.753 5.753 0 00-3.74-5.344L35 23.032a1.787 1.787 0 011.247-3.35l9.352 3.563a9.387 9.387 0 016.056 8.729v23.245A1.781 1.781 0 0149.875 57z"/><path d="M35.625 49.875H10.563a5.22 5.22 0 01-5.22-5.22V17.813a1.781 1.781 0 113.563 0v26.844a1.64 1.64 0 001.657 1.657h25.062a1.781 1.781 0 010 3.562zm0-16.031a1.781 1.781 0 01-1.781-1.782V5.22a1.64 1.64 0 00-1.657-1.657H10.563A1.639 1.639 0 008.906 5.22v5.468a1.781 1.781 0 11-3.562 0V5.22A5.219 5.219 0 0110.563 0h21.624a5.219 5.219 0 015.22 5.22v26.843a1.78 1.78 0 01-1.782 1.78z"/><path d="M21.375 32.063c-4.916 0-8.906-3.189-8.906-7.126 0-3.936 3.99-7.125 8.906-7.125s8.906 3.189 8.906 7.125c0 3.937-3.99 7.125-8.906 7.125zm0-10.688c-2.903 0-5.344 1.639-5.344 3.563 0 1.923 2.44 3.562 5.344 3.562 2.903 0 5.344-1.639 5.344-3.563 0-1.923-2.44-3.562-5.344-3.562zm0-7.125a1.781 1.781 0 01-1.781-1.781V8.906a1.781 1.781 0 113.562 0v3.563a1.781 1.781 0 01-1.781 1.781zm0 28.5a1.781 1.781 0 01-1.781-1.781v-3.563a1.781 1.781 0 113.562 0v3.563a1.781 1.781 0 01-1.781 1.781z"/><path d="M39.186 57a1.78 1.78 0 01-1.264-.517 14.125 14.125 0 01-4.08-9.868v-1.959a1.782 1.782 0 00-.801-1.478l-4.97-3.314a8.906 8.906 0 01-3.723-9.476 3.562 3.562 0 014.863-2.779l12.469 4.56a1.787 1.787 0 01-1.247 3.35l-12.469-4.596-.106.285a5.344 5.344 0 002.226 5.682l4.97 3.313a5.343 5.343 0 012.351 4.453v1.96a10.385 10.385 0 003.046 7.338A1.782 1.782 0 0139.186 57z"/></g><defs><clipPath id="clip0"><path fill="#fff" d="M0 0h57v57H0z"/></clipPath></defs></svg>