<svg width="60" height="62" fill="none" xmlns="http://www.w3.org/2000/svg"><path d="M57.294 61.662H18.401V31.895c0-3.905 5.374-8.158 10.322-8.158H47.01c4.91 0 10.322 4.253 10.322 8.158v29.767h-.038zm-37.732-1.16h36.572V31.895c0-3.286-4.871-6.997-9.163-6.997H28.685c-4.29 0-9.162 3.711-9.162 6.998v28.608h.039z" fill="#3E4854"/><path d="M29.227 24.51c.927 3.015 1.7 4.562 3.556 7.113l4.833-5.064-6.07-5.064-2.32 3.015z" fill="#fff"/><path d="M32.783 32.204c-.038 0-.038 0 0 0-.193 0-.348-.116-.464-.232-1.894-2.629-2.706-4.175-3.634-7.268-.038-.193-.038-.386.078-.502l2.28-3.055c.078-.115.233-.193.387-.231.155-.04.31.038.425.116l6.07 5.064a.62.62 0 01.193.425c0 .155-.038.31-.154.425l-4.833 5.065c-.038.116-.193.193-.348.193zm-2.938-7.577c.812 2.551 1.508 3.982 2.977 6.07l3.905-4.098-5.142-4.292-1.74 2.32z" fill="#3E4854"/><path d="M46.469 24.51c-.58 3.093-1.43 4.755-3.557 7.113L38.08 26.56l6.07-5.064 2.319 3.015z" fill="#fff"/><path d="M42.912 32.203a.62.62 0 01-.425-.193l-4.833-5.064a.581.581 0 01-.154-.426.62.62 0 01.193-.425l6.07-5.064a.435.435 0 01.425-.116c.155 0 .31.116.386.232l2.281 3.054c.116.116.155.31.116.464-.618 3.209-1.469 4.948-3.672 7.384-.078.077-.232.116-.387.154zm-3.982-5.605l3.944 4.175c1.7-1.972 2.396-3.44 2.938-6.108l-1.779-2.358-5.103 4.29z" fill="#3E4854"/><path d="M31.508 21.456c4.755-1.855 7.925-1.855 12.68 0-1.199 2.706-3.209 4.369-6.07 5.065-3.286-.735-5.064-2.088-6.61-5.065z" fill="#fff"/><path d="M38.08 27.1h-.116c-3.441-.811-5.335-2.242-6.959-5.373a.647.647 0 01-.039-.464c.039-.155.194-.27.348-.348 4.91-1.894 8.196-1.894 13.106 0a.42.42 0 01.31.31c.077.154.038.308 0 .463-1.277 2.9-3.403 4.64-6.496 5.412h-.154zm-5.76-5.335c1.391 2.359 2.976 3.518 5.76 4.176 2.435-.619 4.175-1.972 5.296-4.176-4.098-1.507-6.959-1.507-11.057 0zm9.123 24.163c-.773 0-1.43-.619-1.43-1.43 0-.774.618-1.431 1.43-1.431.773 0 1.43.618 1.43 1.43 0 .812-.657 1.43-1.43 1.43zm0-1.663a.264.264 0 00-.27.271c0 .155.115.27.27.27.155 0 .27-.115.27-.27a.264.264 0 00-.27-.27zm0 9.124c-.773 0-1.43-.619-1.43-1.43 0-.813.618-1.431 1.43-1.431.773 0 1.43.618 1.43 1.43 0 .812-.657 1.43-1.43 1.43zm0-1.663a.264.264 0 00-.27.27c0 .155.115.271.27.271.155 0 .27-.116.27-.27a.264.264 0 00-.27-.27zm0-13.221c-.773 0-1.43-.618-1.43-1.43 0-.812.618-1.43 1.43-1.43.773 0 1.43.618 1.43 1.43 0 .812-.657 1.43-1.43 1.43zm0-1.662a.264.264 0 00-.27.27c0 .155.115.271.27.271.155 0 .27-.116.27-.27a.264.264 0 00-.27-.271z" fill="#3E4854"/><path d="M38.66 26.52H37.5v34.562h1.16V26.52zm-11.637 7.54h-1.16v27.023h1.16V34.06zm22.345 0h-1.16v27.023h1.16V34.06zM17.551 16.585c1.972-1.276 6.766-3.789 18.441-8.428.735-.31 1.508-.58 2.242-.889-.696.348-1.43.735-2.165 1.082-11.172 5.683-16.237 7.616-18.518 8.235zm-2.474.966c0 .04 0 .078.039.116C16.585 20.915 54.394 0 54.394 0S14.729 14.072 15.077 17.552z" fill="#3E4854"/><path d="M19.91 16.121a.583.583 0 01-.541-.348.596.596 0 01.309-.773l2.203-1.005c.31-.116.619 0 .773.31a.595.595 0 01-.309.772l-2.203 1.005c-.078 0-.155.04-.232.04zm31.933 4.33c-4.485 0-8.158-3.673-8.158-8.157 0-4.485 3.673-8.157 8.157-8.157 4.485 0 8.158 3.672 8.158 8.157.038 4.484-3.634 8.157-8.157 8.157zm0-15.193a6.996 6.996 0 00-6.998 6.997 6.996 6.996 0 006.998 6.998 6.996 6.996 0 006.997-6.998c.039-3.827-3.132-6.997-6.998-6.997z" fill="#3E4854"/><path d="M51.843 18.673a6.385 6.385 0 01-6.38-6.38 6.385 6.385 0 016.38-6.378 6.385 6.385 0 016.378 6.379c.039 3.518-2.822 6.379-6.378 6.379zm0-11.637a5.222 5.222 0 00-5.22 5.22 5.222 5.222 0 005.22 5.218 5.222 5.222 0 005.219-5.219c.038-2.86-2.32-5.219-5.22-5.219z" fill="#3E4854"/><path d="M51.843 15.89a1.16 1.16 0 100-2.32 1.16 1.16 0 000 2.32zm0-4.872a1.16 1.16 0 100-2.32 1.16 1.16 0 000 2.32zm-2.436 2.435a1.16 1.16 0 100-2.32 1.16 1.16 0 000 2.32zm4.871 0a1.16 1.16 0 100-2.32 1.16 1.16 0 000 2.32zM8.157 50.452C3.673 50.452 0 46.779 0 42.294c0-4.484 3.673-8.157 8.157-8.157 4.485 0 8.157 3.673 8.157 8.157 0 4.485-3.634 8.158-8.157 8.158zm0-15.194a6.996 6.996 0 00-6.997 6.998 6.996 6.996 0 006.997 6.997 6.996 6.996 0 006.998-6.997 6.996 6.996 0 00-6.998-6.998z" fill="#3E4854"/><path d="M8.157 48.674c-3.518 0-6.379-2.861-6.379-6.418a6.385 6.385 0 016.38-6.379 6.385 6.385 0 016.378 6.38c0 3.556-2.86 6.417-6.379 6.417zm0-11.637a5.222 5.222 0 00-5.219 5.22c0 2.899 2.32 5.257 5.22 5.257a5.221 5.221 0 005.218-5.22c0-2.898-2.32-5.257-5.219-5.257z" fill="#3E4854"/><path d="M8.157 45.85a1.16 1.16 0 100-2.319 1.16 1.16 0 000 2.32zm0-4.87a1.16 1.16 0 100-2.32 1.16 1.16 0 000 2.32zm-2.435 2.435a1.16 1.16 0 100-2.32 1.16 1.16 0 000 2.32zm4.871 0a1.16 1.16 0 100-2.32 1.16 1.16 0 000 2.32z" fill="#3E4854"/><path d="M7.81 44.498c-1.431-7.075 2.01-14.923 8.62-19.562.31-.232.619-.425.967-.657 2.358-1.624 4.832-3.287 4.91-5.838.077-2.358-2.01-4.098-2.938-4.755-3.867-2.784-9.317-3.209-13.57-1.005l-.541-1.044c4.639-2.358 10.554-1.933 14.768 1.121 2.242 1.624 3.48 3.711 3.402 5.76-.116 3.132-2.938 5.065-5.451 6.766-.31.232-.657.425-.967.657-6.147 4.291-9.471 11.868-8.157 18.402l-1.044.155z" fill="#3E4854"/></svg>