<svg width="5" height="8" fill="none" xmlns="http://www.w3.org/2000/svg"><path d="M5 2.238c0 .403-.078.75-.235 1.04-.154.291-.432.603-.836.935l-.395.318c-.464.373-.7.797-.706 1.27H1.797a2.18 2.18 0 01.165-.81c.1-.232.23-.433.39-.605.164-.175.34-.34.53-.492.208-.164.39-.321.546-.47.157-.15.279-.314.366-.493.087-.179.13-.393.13-.643 0-.391-.119-.701-.355-.929-.237-.227-.571-.34-1.001-.34-.424 0-.766.124-1.026.374-.257.246-.408.58-.45 1.001L0 2.327C.09 1.585.357 1.013.8.61 1.246.203 1.83 0 2.559 0c.757 0 1.353.198 1.786.593.437.395.656.944.656 1.645zM2.888 6.747V8H1.757V6.747h1.13z" fill="#000"/></svg>