<svg width="57" height="57" fill="none" xmlns="http://www.w3.org/2000/svg"><g clip-path="url(#clip0)" fill="#000" stroke="#fff" stroke-width="2.5"><path d="M55.219 32.063h-42.75a1.782 1.782 0 010-3.563h42.75a1.781 1.781 0 010 3.563zm0 10.687h-42.75a1.782 1.782 0 010-3.563h42.75a1.781 1.781 0 010 3.563zM24.938 24.938c-3.937 0-7.125-3.99-7.125-8.907 0-4.916 3.188-8.906 7.125-8.906 3.936 0 7.125 3.99 7.125 8.906 0 4.917-3.189 8.907-7.126 8.907zm0-14.25c-1.924 0-3.563 2.44-3.563 5.343 0 2.904 1.639 5.344 3.563 5.344 1.923 0 3.562-2.44 3.562-5.344 0-2.903-1.639-5.343-3.563-5.343zm-12.469 7.125H8.906a1.781 1.781 0 010-3.563h3.563a1.781 1.781 0 010 3.563zm28.5 0h-3.563a1.781 1.781 0 010-3.563h3.563a1.781 1.781 0 010 3.563z"/><path d="M51.656 21.375H16.031a5.344 5.344 0 00-5.343 5.344V28.5h-5.47a1.639 1.639 0 01-1.657-1.657V5.22A1.639 1.639 0 015.22 3.562h39.437a1.64 1.64 0 011.657 1.657v10.812a1.782 1.782 0 003.562 0V5.22A5.22 5.22 0 0044.655 0H5.22A5.219 5.219 0 000 5.22v21.623a5.22 5.22 0 005.22 5.22h5.468v19.593A5.344 5.344 0 0016.03 57h35.625A5.344 5.344 0 0057 51.656V26.72a5.344 5.344 0 00-5.344-5.344zm1.782 30.281a1.782 1.782 0 01-1.782 1.782H16.031a1.781 1.781 0 01-1.781-1.782V26.72a1.782 1.782 0 011.781-1.782h35.625a1.782 1.782 0 011.782 1.782v24.937z"/><path d="M28.5 49.875h-8.906a1.782 1.782 0 010-3.563H28.5a1.781 1.781 0 010 3.563z"/></g><defs><clipPath id="clip0"><path fill="#fff" d="M0 0h57v57H0z"/></clipPath></defs></svg>