<svg width="54" height="62" fill="none" xmlns="http://www.w3.org/2000/svg"><path d="M25.992 41.682h-6.764c-.602-5.63-.92-6.338-1.452-8.038-.354-1.133-.708-2.266-.814-3.08-.106-1.098-.106-3.365.212-4.462.32-1.098 1.417-2.762 2.019-3.612l8.498.212c.178.638.744 2.479.85 3.223.284 1.026.496 3.364.213 4.71-.177 1.132-.992 3.01-1.488 4.142-.814 2.55-.85 2.904-.956 3.258-.106.284-.39 2.408-.39 3.116l.072.531zm-5.808-1.062h4.745c.071-.956.284-2.514.425-2.939.177-.85.815-2.939.956-3.293l.178-.425c.708-1.664 1.062-2.585 1.239-3.577.248-1.097.07-3.328-.213-4.213-.07-.355-.106-.602-.637-2.444l-7.153-.177c-.46.708-1.31 2.054-1.558 2.833-.283.956-.283 3.08-.177 4.072.07.708.425 1.877.744 2.904.637 1.77.885 2.479 1.451 7.26z" fill="#3E4854"/><path d="M26.735 61.619c-.779-.036-1.416-1.31-1.487-1.452-.177-.354-.567-1.275-.673-1.806-.07-.496 0-1.24 0-1.912v-2.656c-.035-.425-.106-1.275-.177-1.664-.07-.248-.212-.638-.354-.992-.283-.673-.248-.602-.885-2.62-.248-.815-.39-1.098-.602-1.983-.638-2.62-.567-2.656-.567-5.914h3.896c.637 2.231.779 2.408.956 2.762.247.744.53 1.77.637 2.337.106.602.106 1.63.07 2.16-.035.355-.07.744-.14 1.134-.249 1.664-.284 2.514.14 4.568.036.106.036.283.072.424.07.532.07.638.318 1.204.177.46.177.46.248 1.027.177 1.24.036.107.531 2.338v.07c0 .709-.46 2.16-.92 2.408 0 0-.071.036-.107.106-.318.213-.602.46-.956.46zm-3.718-19.937c0 2.019-.035 2.196.531 4.604.213.85.319 1.098.567 1.912.248.85.496 1.558.637 1.983.142.425.532 1.24.638 1.7.106.496.212 1.452.212 1.877v3.328c0 .354-.035.85 0 1.098.071.354.39 1.133.567 1.523.141.283.425.637.566.814.107-.106.248-.248.354-.319.142-.212.425-.991.46-1.522-.424-1.913-.318-.992-.53-2.302-.071-.46-.036-.39-.213-.779-.248-.637-.319-.85-.39-1.487 0-.107-.035-.213-.035-.319-.106-.496-.283-1.523-.319-2.054-.141-1.735.248-2.939.32-3.93.035-.496 0-1.452-.072-1.913-.07-.39-.283-1.133-.602-2.124-.212-.46-.566-1.488-.743-2.054h-1.948v-.036z" fill="#3E4854"/><path d="M24.575 55.67c-.07-.284-.425-.992-.53-1.24-.107-.248-.638-1.629-.674-2.054-.141-1.204-.141-.53-.106-2.337v-.248c0-.602.035-.495-.212-1.522l1.026-.213c.284 1.31.213 1.063.213 1.983 0 1.735 0 1.027.106 2.231.036.177.39 1.31.708 1.983.177.39.39.85.496 1.169l-1.027.248z" fill="#3E4854"/><path d="M23.3 61.264c-.283-.247-.708-.495-.885-.85-.106-.176-.39-.814-.46-1.133-.071-.46 0-1.026 0-1.558-.036-1.451-.142-1.345.035-2.124a2.77 2.77 0 00.071-.496c-.106-1.735 0-1.487-.496-2.762-.248-.638-.779-1.523-1.274-3.045-.107-.355-.46-1.027-.567-1.452-.212-.78-.531-2.62-.531-3.648 0-1.735.035-1.7-.071-3.611h3.293v1.062H20.22c.106 2.16-.071 2.443.141 4.001.071.46.248 1.523.354 1.948.036.177.177.46.284.708.46 1.098.39 1.24 1.098 2.762.92 1.983.885 2.337.92 3.222.036.957.071.957-.07 1.559-.107.39-.072.39-.072.708.071 1.168.071 1.346.036 1.806 0 .283-.036.566 0 .708.035.142.248.637.354.814.035.071.319.284.425.355.142.106.283.248.425.318.07-.07.212-.212.39-.495.106-.142.247-.496.283-.602l1.027.212c-.071.319-.32.78-.46.956-.32.46-.674.92-1.134.992-.248.141-.637-.107-.92-.355z" fill="#3E4854"/><path d="M17.706 16.399c.212.212.389.779.53 1.027.249.566 1.134 2.62 1.24 3.222.07.425.07 1.275 0 1.665-.07.425-.425 1.274-.637 1.664-.177.39-.673 1.062-.85 1.452l-.284.85s1.027.424 1.31.46c.39.07 1.276.07 1.665.106.39.036.992 0 1.346-.142.141-.07.495-.283.637-.354.177-.141.46-.566.637-.708l.425-.425s.425.815.638 1.027c.212.248.743.602 1.027.744.318.142 1.027.177 1.345.212.354.036 1.523.248 1.523.248s-.035-1.204-.07-1.523a10.687 10.687 0 00-.213-1.026c-.142-.425-.425-1.346-.638-1.736-.141-.283-.637-.743-.708-1.062-.07-.248-.035-.779 0-1.027.035-.354.319-1.027.425-1.346.106-.354.177-.743.248-1.133.07-.354.567-2.089.708-2.833.035-.283-.248-1.026 0-1.133.213-.106.567.354.744.531.212.248.425.886.637 1.134.177.248.638.602.78.85.176.247.53 1.168.46 1.451-.071.284-.46.78-.673.992L28.4 21.144c.39.885.354.885 1.239 2.514 0 0 .814-.637 1.133-.85.496-.283 1.204-1.097 1.63-1.451.14-.107.53-.85.672-.992.248-.248.708-.885.779-1.24.07-.318-.283-.92-.425-1.239-.177-.425-.496-1.24-.708-1.629-.177-.318-.638-.85-.815-1.168-.177-.284-.46-.956-.637-1.24-.248-.39-.815-1.168-1.027-1.558-.177-.283-.425-.885-.637-1.133a4.828 4.828 0 00-.85-.85 3.185 3.185 0 00-.85-.425c-.283-.07-.85.036-1.133 0a9.262 9.262 0 01-.956-.212c-.177-.071-.496-.177-.638-.319-.106-.106-.177-.496-.319-.637-.141-.142-.743-.354-.743-.354s-.106.495-.106.672c-.036.46.07 1.417 0 1.877-.036.354-.284 1.027-.425 1.346-.107.319-.177 1.168-.531 1.24-.178.035-.39-.39-.532-.532a10.734 10.734 0 01-.85-1.346c-.177-.318-.389-1.027-.53-1.345-.071-.177-.248-.531-.32-.744-.106-.354.107-1.416-.46-1.204-.106.036-.283.283-.354.354-.212.248-.566.744-.779.992-.142.177-.46.531-.673.673-.177.106-.602.283-.85.318a3.78 3.78 0 00-.672.248c-.248.177-.638.638-.85.85l-1.098 1.098c-.354.354-.956 1.133-1.31 1.522-.39.425-1.24 1.204-1.629 1.63-.425.46-.956 1.239-1.346 1.734-.212.284-.708.886-.85 1.24-.035.142-.035.46 0 .637.036.177.213.532.355.709.212.318.53.991.779 1.274.318.354.92 1.063 1.239 1.417.354.354 1.027 1.027 1.452 1.24.248.105 1.027.212 1.027.212.39-.85.106-.354 1.345-2.302-.212-.106-.637-.425-.85-.567-.318-.212-.99-.602-1.239-.885-.212-.212-.637-.744-.743-1.027a.86.86 0 010-.425c.106-.283.53-.708.743-.956 1.098-1.24 1.169-1.169 2.904-1.983.39-.035.744.07.744.07z" fill="#fff"/><path d="M28.86 28.155c-.354-.07-1.735-.354-2.125-.39-.566-.035-1.168-.106-1.522-.247-.39-.142-.992-.602-1.24-.85a2.292 2.292 0 01-.354-.531c-.177.177-.39.495-.602.672a5.07 5.07 0 01-.743.425c-.46.213-1.169.248-1.63.177-.141 0-.353-.035-.601-.035-1.169-.035-1.098 0-3.01-.779.46-1.487.425-1.381.92-2.23.142-.249.284-.461.355-.638.247-.531.53-1.24.566-1.523.07-.319.07-1.133 0-1.487-.106-.638-1.168-3.01-1.31-3.364-.035-.142-.142-.354-.213-.496h-.035c-1.983.92-1.664.708-2.868 1.983-.107.142-.425.496-.496.602v.106c.035.142.354.567.602.815.142.141.531.425.814.602.992.637.532.46 1.63 1.027-1.594 2.478-1.24 1.805-1.807 3.08-.39-.035-1.239-.141-1.593-.318-.425-.213-.956-.709-1.487-1.24-.354-.354-.496-.495-.886-.956-.672-.779-.637-.637-1.062-1.452-.106-.177-.177-.354-.283-.46a2.94 2.94 0 01-.425-.885c-.036-.213-.071-.638 0-.886.141-.495.673-1.062 1.31-1.947.779-1.098.885-1.169 1.77-2.019 1.842-1.806 1.098-1.345 2.94-3.151l.53-.531c.213-.248.497-.531.709-.673.213-.142.637-.283.885-.354a2.66 2.66 0 00.638-.248c.106-.071.425-.39.53-.531.143-.177.249-.319.426-.532.319-.424.319-.389.46-.601.142-.178.319-.355.496-.425.177-.071.531-.142.814.07.32.284.354.744.354 1.134 0 .106 0 .247.036.318.035.106.248.567.283.673.106.283.354 1.062.496 1.31.142.319.531.921.779 1.24.035-.213.07-.39.142-.567.424-1.204.424-1.204.39-2.195-.036-.957-.036-.85.212-2.231.424.141 1.239.425 1.522.708.177.177.213.39.319.637.319.177.885.319 1.24.354h.389c.283 0 .567-.035.814.036.354.07.85.354 1.027.496.284.212.744.672.956.956.248.354.46.85.673 1.204.106.177.283.425.46.708.602.85.602.885.886 1.523.283.637.283.601.673 1.097.177.248.354.496.46.673.319.567.673 1.558.85 1.948.177.39.425.885.319 1.274-.107.638-.886 1.488-.886 1.488a2.25 2.25 0 00-.212.354c-.46.708-.319.496-.956 1.133-.39.39-.85.85-1.204 1.062-.354.213-1.275.921-1.594 1.169-1.204-2.231-1.133-2.09-1.558-3.116l-.142-.319 1.806-1.806c.248-.248.496-.602.532-.708 0-.142-.248-.85-.39-1.062-.035-.071-.212-.248-.354-.39a4.65 4.65 0 01-.425-.46 3.094 3.094 0 01-.319-.602c-.035-.036-.035-.107-.07-.177-.071.495-.355 1.593-.496 2.124-.319 1.134-.213 1.027-.46 1.913a9.139 9.139 0 01-.178.566c-.106.248-.212.567-.212.744-.035.248-.035.708 0 .85.035.07.212.318.319.425.141.177.283.354.39.53.247.496.601 1.594.672 1.807.106.318.212.885.248 1.133.035.319.07 1.487.07 1.523l.036.743zm-4.993-3.824c.142.248.708 1.416.885 1.593.177.177.638.531.85.602.248.106.956.142 1.204.177.213 0 .602.071.92.142 0-.319-.035-.673-.035-.815-.035-.248-.106-.743-.177-.92a16.344 16.344 0 00-.602-1.665 3.474 3.474 0 00-.247-.354c-.213-.283-.425-.53-.496-.85-.107-.354-.036-.991 0-1.239.035-.248.141-.602.283-.92.106-.32.177-.426.39-1.559.035-.212.283-.991.39-1.487.105-.39.247-1.062.318-1.346 0-.035-.036-.177-.036-.283-.07-.39-.177-.991.32-1.275.53-.283.99.213 1.38.638.177.177.319.495.425.779.07.177.177.354.213.425.035.07.177.212.318.318.177.177.39.39.496.567.106.177.637 1.275.531 1.841-.106.532-.779 1.24-.814 1.275l-1.31 1.31c.247.532.212.532.779 1.594.247-.177.53-.39.708-.496.39-.248 1.098-1.027 1.522-1.416.036-.036.178-.284.284-.425.141-.248.248-.39.318-.496.284-.283.602-.814.638-.991 0-.142-.354-.815-.39-.957-.602-1.558-.779-1.7-1.062-2.124-.425-.567-.425-.602-.78-1.275-.282-.567-.247-.567-.814-1.381-.495-.744-.53-.78-.743-1.24-.106-.212-.248-.495-.354-.601-.142-.213-.531-.603-.708-.709-.178-.106-.532-.318-.638-.318-.07-.036-.354 0-.496 0-.212 0-.425.035-.566 0-.531-.071-1.523-.32-1.877-.673-.106-.106-.177-.284-.248-.425 0 1.558.213 1.38-.425 3.116-.142.39-.177 1.487-.92 1.629-.496.106-.78-.354-.957-.602-.035-.035-.035-.07-.07-.106-.284-.354-.709-1.063-.921-1.452-.177-.354-.39-1.027-.531-1.381-.248-.567-.354-.638-.39-1.24-.177.213-.46.638-.637.815-.213.248-.531.602-.78.779-.247.177-.743.354-1.026.39-.106.035-.39.141-.496.176-.106.071-.354.355-.496.496-.743.815-.814.744-1.947 2.09-.638.779-.673.814-1.523 1.628-1.346 1.31-.92.957-2.054 2.444-.177.212-.673.85-.743 1.098v.354c.035.106.177.39.247.53.107.142.213.355.32.567.14.248.282.532.424.673.283.319.956 1.098 1.24 1.381.283.284.991.992 1.31 1.169.07.035.247.07.495.106.248-.496.036-.177.957-1.558-.425-.283-.284-.213-.709-.496-.354-.248-.779-.496-.991-.743-.177-.177-.708-.78-.85-1.275-.07-.177-.07-.531 0-.744.142-.39.566-.814.85-1.133 1.168-1.346 1.31-1.275 3.08-2.125.32-.141.709-.07.886-.035l.142.035.106.106c.212.213.354.532.53.957.143.354 1.24 2.762 1.382 3.611.07.496.07 1.382 0 1.842-.106.602-.567 1.593-.673 1.806-.106.212-.248.46-.425.708-.46.744-.425.708-.531 1.062.814.32.744.284 1.735.32.248 0 .496 0 .673.034.354.036.85-.035 1.098-.106.106-.035.425-.248.495-.283.036-.035.142-.177.213-.248.425-.531.248-.248.743-.779l.39-.637z" fill="#3E4854"/><path d="M27.125 24.401c-.142-.07-.602-.212-.744-.318-.106-.071-.354-.248-.495-.319-.107 0-.213-.035-.32-.07-.282.035-.92-.142-1.239-.39-.141-.107-.495-.46-.566-.815-.036-.106-.071-.531.425-.708.177-.177.39-.283.602-.39.283-.177.637-.106.991-.07.638.106.638.106 1.169.46.142.07.177.106.248.177.035 0 .07-.035.106-.035.035-.036.779-.709.814-.78l.744.78-.637.602c-.177.177-.354.318-.567.39-.354.282-.637.14-.744.105-.141-.07-.708-.53-.85-.566-.07-.036-.637-.107-.743-.107l-.283.142c.07.036.318.142.39.142h.07a.89.89 0 01.531.07c.248 0 .496.178.815.39.035.036.07.071.106.071.035.035.673.248.744.283l.212-.212c.035-.036.07-.106.106-.142.213-.354.177-.283.92-.991l.744.779-.637.602c0 .035-.035.07-.07.141-.107.177-.178.354-.355.46-.177.213-.318.426-.602.461a1.8 1.8 0 01-.885-.142z" fill="#3E4854"/><path d="M15.156 23.941s.496.248.673.354c.106.071.319.142.425.213l.425.283c.177.07.566.177.743.212a.838.838 0 00.319.071c.142-.035.39-.248.496-.354.07-.07.177-.248.248-.354.07-.106.248-.319.354-.425.141-.106.39-.319.566-.354.107-.035.354 0 .496 0 .142 0 .07 0 .177-.07.177-.072.496-.39.602-.567.106-.142.212-.531.177-.709-.035-.177-.248-.035-.354-.141-.106-.071-.425-.106-.567-.142-.141-.035-.106-.035-.247 0-.142.036-.425.213-.567.284-.106.07-.319.177-.425.283-.212.212-.602.85-.744 1.027-.07.106-.212-.071-.354-.036-.141.036-.46-.106-.566-.177a10.023 10.023 0 01-.815-.495c-.07-.036-.248-.142-.248-.142l-.814 1.24z" fill="#fff"/><path d="M17.351 25.535c-.779-.213-.779-.177-1.204-.46-.035-.036-.106-.071-.141-.107 0 0-.142-.07-1.63-.85l1.488-2.054c.673.39.638.355.956.567.213.142.354.212.531.319.036.035.178.07.248.106h.142c.567-.92.673-.92 1.204-1.24.319-.176.673-.389 1.027-.318h.035c.248.035.496.07.708.177.567.035.673.425.673.531.071.354-.141.885-.248 1.062-.141.284-.566.638-.85.78-.177.141-.389.141-.637.106h-.141a1.61 1.61 0 00-.355.248c-.07.035-.247.283-.354.424-.07.107-.141.213-.212.284-.142.141-.46.425-.744.495-.177 0-.319-.035-.496-.07zm-1.38-1.77c.141.07.46.212.566.282.07.036.354.248.39.248.141.071.602.142.743.213.213-.142.177-.177.319-.354-.106 0-.213 0-.319-.071-.46.035-1.098-.39-1.487-.637l-.213.318zm3.86-1.24c-.072.035-.32.177-.426.212-.39.213-.318.177-.602.567.46-.284.602-.248.992-.248 0 0 .035 0 .035-.036.106-.035.319-.247.39-.354 0-.035.035-.035.035-.07-.035 0-.035-.036-.07-.036-.036-.035-.142-.035-.32-.07 0 .035-.035.035-.035.035zm.035-14.129h-1.063a.553.553 0 01-.46-.283c-.106-.178-.106-.39 0-.532a9.04 9.04 0 00.496-.885c.106-.283.212-.92.248-1.168 0-.142-.036-.425-.107-.673a3.944 3.944 0 01-.07-.602c-.036-.638-.036-1.098 0-1.381.07-.39.318-1.063.495-1.417.213-.354.744-.743 1.063-1.027.283-.212 1.274-.46 1.558-.425h.46c.319 0 1.062.284 1.346.355.07 0 .106.035.177.07 1.274.815 1.664 2.62 1.629 3.896v.318c.035.177.247.708.318.886.319.814.354.885.709 1.558.177.318-.036.708-.355.779l-1.345.283-.213-1.027.673-.142c-.142-.248-.319-.743-.425-1.027-.106-.318-.319-.743-.39-1.097a1.521 1.521 0 010-.567c.036-.956-.212-2.337-1.062-2.904-.141-.035-.885-.283-1.027-.283-.035 0-.39.036-.53 0-.178 0-.638.142-.78.213-.141.106-.673.53-.779.672-.141.248-.354.815-.39 1.098-.035.177-.035.602 0 1.133.036.354.178.956.178 1.381 0 .425-.177 1.169-.284 1.488a2.44 2.44 0 00-.106.283h.177v1.027h-.141z" fill="#3E4854"/><path d="M21.565 8.82a3.929 3.929 0 01-1.522-2.23l1.027-.248c.141.637.53 1.24 1.097 1.593l-.602.886z" fill="#3E4854"/><path d="M21.247 9.529l-.85-.638a1.71 1.71 0 00.283-1.24l1.027-.212a2.755 2.755 0 01-.46 2.09zm1.77-.709l-.602-.885c.531-.39.92-.956 1.098-1.593l1.027.248a3.93 3.93 0 01-1.523 2.23z" fill="#3E4854"/><path d="M23.584 9.245a2.752 2.752 0 01-.46-2.089l1.026.213c-.106.425 0 .885.284 1.24l-.85.636z" fill="#3E4854"/><path d="M53.152 23.552c-3.824 3.293-8.747 4.108-13.138 4.887-8.25 1.451-18.024 1.451-26.31 0-4.426-.78-9.313-1.63-13.137-4.887V16.47c3.824 3.293 8.746 4.107 13.137 4.887 8.25 1.451 18.024 1.451 26.31 0 4.427-.78 9.314-1.63 13.138-4.887v7.082z" fill="#fff"/><path d="M13.598 28.97h-.071c-4.426-.78-9.42-1.63-13.35-4.993L0 23.835v-8.499l.885.744c3.683 3.152 8.499 4.002 12.89 4.78 7.897 1.382 17.6 1.488 26.204 0 4.285-.743 9.136-1.593 12.819-4.744l.885-.744v8.498c-4.001 3.4-8.392 4.25-13.598 5.17-8.286 1.382-18.166 1.382-26.487-.07zm-12.5-5.666c3.647 3.01 8.357 3.86 12.712 4.603 7.897 1.381 17.6 1.488 26.204 0 4.214-.743 8.96-1.558 12.642-4.603v-5.737c-3.789 2.798-8.357 3.577-12.535 4.32-8.003 1.381-17.812 1.523-26.559 0-4.072-.708-8.675-1.522-12.464-4.32v5.737z" fill="#3E4854"/><path d="M3.045 18.453H1.983v4.355h1.062v-4.355zm4.037 1.77H6.02v4.356h1.062v-4.356zm4.073 1.169h-1.063v4.355h1.063v-4.355zm4.072.778h-1.063v4.356h1.063v-4.355zm4.037.532H18.2v4.356h1.063v-4.356zm4.072.283h-1.063v4.356h1.063v-4.356zm4.072.107h-1.062v4.355h1.062v-4.355zm4.037-.107h-1.062v4.356h1.062v-4.356zm4.072-.283h-1.062v4.356h1.062v-4.356zm4.037-.532h-1.062v4.356h1.062v-4.355zm4.072-.778h-1.062v4.355h1.062v-4.355zm4.073-1.169h-1.063v4.356H47.7v-4.356zm4.037-1.77h-1.063v4.355h1.063v-4.355zm-46.672.991H4v2.727h1.063v-2.727zm4.072 1.416H8.074v2.727h1.062v-2.726zm4.037.957H12.11v2.727h1.063v-2.727zm4.072.637h-1.062v2.727h1.062v-2.727zm4.072.426h-1.062v2.726h1.062v-2.727zm4.037.176h-1.062v2.727h1.062v-2.727zm4.073 0h-1.063v2.727h1.063v-2.727zm4.036-.176h-1.062v2.726h1.062v-2.727zm4.073-.426h-1.063v2.727h1.063v-2.727zm4.072-.637h-1.062v2.727h1.062v-2.727zm4.037-.957h-1.063v2.727h1.063v-2.726zm4.072-1.416h-1.062v2.727h1.062v-2.727zm-.212-.991c-2.515 0-4.391-1.063-4.391-2.48 0-1.416 1.876-2.478 4.39-2.478 2.515 0 4.392 1.062 4.392 2.479 0 1.416-1.877 2.479-4.391 2.479zm0-3.896c-1.913 0-3.329.744-3.329 1.417s1.416 1.416 3.329 1.416c1.912 0 3.328-.743 3.328-1.416 0-.673-1.416-1.417-3.328-1.417z" fill="#3E4854"/><path d="M49.505 17.532c-1.488 0-2.62-.673-2.62-1.593 0-.886 1.132-1.594 2.62-1.594 1.487 0 2.62.673 2.62 1.594 0 .92-1.133 1.593-2.62 1.593zm0-2.089c-1.063 0-1.559.425-1.559.531 0 .106.496.531 1.559.531 1.062 0 1.558-.425 1.558-.53 0-.107-.496-.532-1.558-.532zm-3.329.531h-1.062v4.745h1.062v-4.745z" fill="#3E4854"/></svg>