<svg width="63" height="62" fill="none" xmlns="http://www.w3.org/2000/svg"><path d="M36.048 12.26c-1.364 3.13-5.177 9.992-15.57 24.88-.682.963-1.325 1.927-2.007 2.85.562-1.004 1.164-2.007 1.726-3.05 9.03-15.771 13.644-22.112 15.851-24.68zm2.247-3.13a.552.552 0 00-.16-.12C33.8 6.28 4.747 61.66 4.747 61.66S41.506 13.022 38.295 9.13z" fill="#3E4854"/><path d="M32.156 19.002a.758.758 0 01-.321-.08c-.281-.16-.362-.562-.201-.843l1.886-2.97c.16-.28.562-.36.843-.2.28.16.36.562.2.843l-1.886 2.97a.686.686 0 01-.521.28zm-18.902 3.933l-1.123-.442c1.846-4.775 1.525-10.313-.883-16.854l1.123-.402c2.529 6.822 2.81 12.601.883 17.698zm41.856 1.404c-.08 0-.12 0-.2-.04a22.738 22.738 0 00-5.579-1.204c-.24-.04-.401-.16-.481-.401-2.007-5.297-.16-10.274 1.966-16.012l.361-.963c.08-.16.2-.321.361-.362.16-.04.362-.04.522.08 4.294 2.89 6.702 5.218 9.711 8.107l.12.12c.242.201.242.562.041.803-2.287 2.769-5.056 6.34-6.34 9.47a.477.477 0 01-.482.402zm-5.257-2.408c1.645.2 3.29.562 4.936 1.043 1.324-2.97 3.812-6.22 5.94-8.828-2.81-2.689-4.937-4.735-8.669-7.304l-.08.241c-2.047 5.418-3.772 10.073-2.127 14.848z" fill="#3E4854"/><path d="M31.072 54.035h-.441c-5.699 0-11.437-.16-17.136-.441-.2 0-.361-.12-.481-.281-.12-.16-.12-.361-.08-.522.48-1.324 2.166-15.45-.723-29.415-1.685.2-3.37.602-5.016 1.164-.321.12-.642-.04-.763-.361-1.244-3.09-4.013-6.702-6.3-9.471a.61.61 0 01.04-.803c3.09-2.97 6.902-6.02 11.317-8.989C14.619 3.03 18.35 1.425 22.886.02c.32-.08.642.08.762.402C24.932 4.274 27.099 6.2 30.31 6.28h1.163c3.17-.08 5.378-2.007 6.622-5.86a.636.636 0 01.762-.4c4.535 1.404 8.267 2.97 11.357 4.855.24.16.361.442.24.723-2.447 6.54-2.728 12.079-.882 16.854.04.12.04.24.04.321-3.21 14.928-1.123 29.094-.843 29.977.04.16.04.361-.08.522-.12.16-.28.24-.481.28-5.699.322-11.478.482-17.136.482zM14.258 52.43a326.3 326.3 0 0016.573.401c5.498 0 11.076-.12 16.614-.4-.562-3.291-1.966-16.093.923-29.657-1.806-4.936-1.565-10.514.762-17.055-2.809-1.645-6.14-3.09-10.112-4.334-1.485 3.973-4.013 6.02-7.585 6.14H30.23c-3.571-.12-6.1-2.167-7.584-6.14C18.47 2.709 15.02 4.194 12.09 5.96c-4.134 2.769-7.745 5.618-10.715 8.427 2.247 2.769 4.615 5.9 5.94 8.828a27.726 27.726 0 015.296-1.123c.321-.04.602.16.642.482 2.73 12.56 1.726 26.164 1.004 29.856z" fill="#3E4854"/><path d="M31.433 10.093H30.19c-2.809-.08-6.661-1.164-9.15-5.98a15.138 15.138 0 00-1.364-2.166l.963-.763a14.268 14.268 0 011.485 2.328c2.207 4.294 5.618 5.257 8.106 5.337h1.324c2.449-.08 5.9-1.043 8.107-5.337.401-.803.923-1.565 1.485-2.288l.963.723c-.522.642-.963 1.364-1.365 2.086-2.488 4.816-6.34 5.9-9.15 5.98l-.16.08z" fill="#3E4854"/><path d="M30.831 2.71c-2.648 0-5.297-.523-8.026-1.526l.442-1.123c5.177 1.966 9.992 1.966 15.169 0l.441 1.123C36.088 2.187 33.48 2.71 30.831 2.71zm2.127 14.326a.65.65 0 01-.361-.12c-.28-.201-.321-.563-.16-.843.722-1.044 2.006-1.405 3.25-1.606a42.36 42.36 0 0114.407.08c.32.04.562.362.481.683-.04.32-.36.562-.682.481-4.655-.802-9.35-.842-14.005-.08-1.004.16-1.967.401-2.448 1.084a.522.522 0 01-.482.32z" fill="#3E4854"/><path d="M49.813 18.039c-.08 0-.2-.04-.281-.08-1.043-.562-2.288-.803-3.451-.723-.321.04-.602-.24-.642-.562-.04-.32.24-.601.561-.642a8.098 8.098 0 014.094.843c.28.16.4.522.24.803-.12.24-.32.36-.521.36zm0 2.127h-.16l-3.211-.803a.598.598 0 11.28-1.164l3.211.803c.321.08.522.401.442.722-.04.241-.322.442-.562.442zm-.04 1.644h-3.21a.617.617 0 01-.603-.601c0-.321.281-.602.602-.602h3.21c.322 0 .603.28.603.602 0 .32-.241.602-.602.602zM35.486 34.291c-4.655-4.414-5.818-11.998-2.728-17.617l1.043.562c-2.85 5.177-1.766 12.12 2.488 16.172l-.803.883z" fill="#3E4854"/></svg>