<svg width="52" height="62" fill="none" xmlns="http://www.w3.org/2000/svg"><path d="M45.254 55.636H7.371a4.346 4.346 0 01-4.36-4.358V16.009c0-4.715 3.845-8.56 8.56-8.56H39.47c5.587 0 10.144 4.558 10.144 10.145v33.683a4.346 4.346 0 01-4.359 4.36z" fill="#fff"/><path d="M45.254 56.231H7.371a4.955 4.955 0 01-4.954-4.953V16.009c0-5.072 4.121-9.154 9.154-9.154H39.47c5.904 0 10.739 4.795 10.739 10.74v33.683a4.955 4.955 0 01-4.954 4.953zM11.571 8.044a7.966 7.966 0 00-7.965 7.965v35.269c0 2.06 1.704 3.764 3.765 3.764h37.883c2.06 0 3.765-1.704 3.765-3.764V17.595c0-5.271-4.28-9.55-9.55-9.55H11.57z" fill="#3E4854"/><path d="M42.837 53.22H4.953a4.346 4.346 0 01-4.359-4.36V13.593c0-4.715 3.844-8.56 8.56-8.56H37.05c5.588 0 10.145 4.558 10.145 10.145v33.684c0 2.377-1.942 4.358-4.359 4.358z" fill="#fff"/><path d="M42.837 53.814H4.953A4.955 4.955 0 010 48.861V13.592C0 8.52 4.121 4.438 9.154 4.438H37.05c5.905 0 10.74 4.795 10.74 10.74V48.86a4.955 4.955 0 01-4.954 4.953zM9.154 5.627a7.966 7.966 0 00-7.965 7.965v35.269c0 2.06 1.704 3.764 3.764 3.764h37.884c2.06 0 3.765-1.704 3.765-3.764V15.178c0-5.271-4.28-9.55-9.55-9.55H9.153z" fill="#3E4854"/><path d="M10.58 5.31l5.47 9.432 8.24-6.302L14.107.634 10.581 5.31z" fill="#fff"/><path d="M16.05 15.335h-.12c-.158-.04-.317-.118-.396-.277l-5.469-9.392a.6.6 0 01.04-.673L13.632.277c.079-.119.238-.198.396-.238.159-.04.317.04.436.12l10.184 7.845a.565.565 0 01.238.476c0 .198-.08.357-.238.475l-8.242 6.262c-.08.04-.238.118-.357.118zM11.293 5.35l4.953 8.48 7.094-5.39-9.074-6.974-2.972 3.883z" fill="#3E4854"/><path d="M37.21 5.31l-5.508 9.432-7.41-6.301 9.39-7.807L37.21 5.31z" fill="#fff"/><path d="M31.702 15.336a.509.509 0 01-.397-.159l-7.41-6.26a.656.656 0 01-.198-.476c0-.159.08-.357.198-.436L33.287.159a.447.447 0 01.436-.12c.158 0 .317.12.396.239l3.527 4.715c.158.198.158.436.04.674l-5.47 9.392c-.078.158-.237.237-.395.277-.04-.04-.08 0-.12 0zm-6.5-6.895l6.341 5.35 4.914-8.441-2.932-3.884-8.322 6.975z" fill="#3E4854"/><path d="M14.107.634h19.576l-9.392 7.807L14.107.634z" fill="#fff"/><path d="M24.291 9.035a.64.64 0 01-.356-.119L13.75 1.07a.623.623 0 01-.198-.674.596.596 0 01.555-.396h19.576c.238 0 .476.159.555.396.08.238 0 .515-.198.674l-9.392 7.846c-.08.08-.238.119-.357.119zm-8.44-7.807l8.44 6.46 7.767-6.46H15.851zm8.044 16.763a1.463 1.463 0 01-1.466-1.466c0-.832.674-1.466 1.466-1.466.832 0 1.466.673 1.466 1.466 0 .792-.673 1.466-1.466 1.466zm0-1.783a.27.27 0 00-.277.277.27.27 0 00.277.278.27.27 0 00.278-.278c0-.119-.12-.277-.278-.277zm0 11.532a1.463 1.463 0 01-1.466-1.467c0-.832.674-1.466 1.466-1.466.832 0 1.466.673 1.466 1.466 0 .792-.673 1.466-1.466 1.466zm0-1.784a.27.27 0 00-.277.277.27.27 0 00.277.278.27.27 0 00.278-.278c0-.119-.12-.277-.278-.277zm0 11.532a1.463 1.463 0 01-1.466-1.467c0-.832.674-1.466 1.466-1.466.832 0 1.466.674 1.466 1.466 0 .793-.673 1.467-1.466 1.467zm0-1.784a.27.27 0 00-.277.278.27.27 0 00.277.277.27.27 0 00.278-.277.27.27 0 00-.278-.278zm0 11.532a1.463 1.463 0 01-1.466-1.467c0-.832.674-1.466 1.466-1.466.832 0 1.466.674 1.466 1.466 0 .793-.673 1.467-1.466 1.467zm0-1.784a.27.27 0 00-.277.278.27.27 0 00.277.277.27.27 0 00.278-.277.27.27 0 00-.278-.278zm17.08-9.391h-8.401a2.131 2.131 0 01-2.14-2.14V20.408h12.68v13.513a2.13 2.13 0 01-2.14 2.14zm-9.392-14.504v12.325c0 .515.436.95.951.95h8.4a.964.964 0 00.952-.95V21.557H31.583z" fill="#3E4854"/><path d="M42.52 23.34H30.988v1.19H42.52v-1.19z" fill="#3E4854"/><path d="M50.247 58.767l-2.694 2.061a1.356 1.356 0 01-1.942-.317L34.714 44.7l3.289-2.536 12.443 14.622a1.36 1.36 0 01-.199 1.981z" fill="#fff"/><path d="M46.76 61.66c-.119 0-.198 0-.317-.04a1.9 1.9 0 01-1.307-.832L33.92 44.501l4.2-3.21 12.8 15.059c.357.396.515.95.436 1.466a1.806 1.806 0 01-.753 1.347l-2.695 2.061c-.317.317-.713.436-1.149.436zM35.546 44.818l10.58 15.336a.88.88 0 00.515.317c.199.04.397 0 .595-.158l2.694-2.061a.677.677 0 00.278-.515c.04-.198-.04-.397-.159-.555L37.963 42.995l-2.417 1.823z" fill="#3E4854"/><path d="M35.783 22.548c-4.081-5.35-11.73-6.34-17.079-2.259-5.35 4.082-6.34 11.73-2.259 17.08 3.646 4.794 10.184 6.102 15.336 3.368l1.427 1.862 3.289-2.536-1.427-1.862c3.923-4.2 4.36-10.858.713-15.653z" fill="#fff"/><path d="M33.05 43.471l-1.467-1.942a12.788 12.788 0 01-15.653-3.764 12.83 12.83 0 01-2.536-9.471c.436-3.368 2.18-6.38 4.914-8.48 5.587-4.28 13.632-3.21 17.911 2.377a12.77 12.77 0 01-.436 16.089l1.467 1.942-4.2 3.25zm-1.15-3.447l1.347 1.783 2.338-1.783-1.347-1.784.357-.356c3.843-4.161 4.12-10.422.673-14.94-3.883-5.072-11.175-6.023-16.247-2.14-2.457 1.902-4.042 4.597-4.438 7.688-.396 3.091.396 6.103 2.298 8.56 3.448 4.477 9.59 5.864 14.583 3.21l.436-.238z" fill="#3E4854"/><path d="M26.114 40.46c-.475 0-.95-.04-1.387-.08-2.774-.356-5.27-1.783-6.934-4.002-1.704-2.22-2.457-4.993-2.06-7.767.356-2.774 1.782-5.27 4.001-6.935 2.22-1.704 4.993-2.456 7.767-2.06 2.774.356 5.27 1.783 6.935 4.002 1.704 2.22 2.417 4.993 2.06 7.767-.356 2.774-1.782 5.27-4.002 6.935-1.862 1.426-4.081 2.14-6.38 2.14zm-.04-19.774a9.354 9.354 0 00-5.626 1.902c-4.082 3.13-4.835 8.956-1.744 13.037 3.13 4.082 8.956 4.835 13.037 1.744 4.082-3.13 4.835-8.956 1.744-13.038a9.13 9.13 0 00-6.182-3.566 12.79 12.79 0 00-1.228-.08z" fill="#3E4854"/><path d="M20.051 35.229a.565.565 0 01-.475-.238c-2.774-3.606-2.06-8.758 1.506-11.532.277-.198.634-.158.832.12.198.277.158.633-.119.831-3.09 2.338-3.646 6.777-1.308 9.868.199.277.159.633-.119.832a.45.45 0 01-.317.119z" fill="#3E4854"/></svg>