<svg width="15" height="17" fill="none" xmlns="http://www.w3.org/2000/svg"><path fill-rule="evenodd" clip-rule="evenodd" d="M13.346 5.903c.327.027.57.313.545.64-.005.054-.434 5.367-.681 7.595-.154 1.383-1.067 2.225-2.446 2.25a152.037 152.037 0 01-6.222-.005c-1.324-.026-2.24-.884-2.39-2.24-.249-2.248-.675-7.547-.68-7.6a.593.593 0 01.545-.64c.322-.008.613.218.64.544.002.035.176 2.199.366 4.34l.039.427c.095 1.064.192 2.087.271 2.8.085.77.5 1.167 1.234 1.182 1.979.042 3.998.044 6.175.005.78-.015 1.2-.405 1.288-1.193.245-2.212.673-7.507.677-7.56.026-.327.315-.555.64-.545zM9.356.583c.728 0 1.366.49 1.554 1.193l.201.998a.712.712 0 00.685.572h2.598a.594.594 0 010 1.187h-2.575a.6.6 0 01-.012 0H.969a.594.594 0 010-1.187l2.597-.001.08-.005a.714.714 0 00.606-.566l.192-.963A1.62 1.62 0 016.006.584h3.35zm0 1.188h-3.35a.419.419 0 00-.406.31l-.184.927a2 2 0 01-.101.338h4.733a1.883 1.883 0 01-.101-.338l-.193-.963c-.04-.146-.207-.274-.397-.274z" fill="#C41616"/></svg>