<svg width="57" height="57" fill="none" xmlns="http://www.w3.org/2000/svg"><g clip-path="url(#clip0)" fill="#000" stroke="#fff" stroke-width="2.5"><path d="M37.406 44.531a1.781 1.781 0 00-1.781 1.782v2.155a4.97 4.97 0 01-4.97 4.97h-18.56a4.97 4.97 0 01-4.97-4.97V44.53a1.781 1.781 0 00-3.563 0v3.937A8.55 8.55 0 0012.095 57h18.56a8.55 8.55 0 008.532-8.532v-2.156a1.781 1.781 0 00-1.78-1.78zM30.655 0H12.47a8.55 8.55 0 00-8.906 8.532v28.874a1.782 1.782 0 003.562 0V8.532a4.952 4.952 0 013.563-4.738v1.55a5.344 5.344 0 005.343 5.343H26.72a5.344 5.344 0 005.343-5.343v-1.55a4.952 4.952 0 013.563 4.738v9.28a1.781 1.781 0 003.563 0v-9.28A8.55 8.55 0 0030.654 0v0zM28.5 5.344a1.781 1.781 0 01-1.781 1.781H16.03a1.781 1.781 0 01-1.781-1.781V3.562H28.5v1.782z"/><path d="M48.218 16.031H23.156a1.781 1.781 0 10-3.562 0v32.063a1.781 1.781 0 103.562 0h25.062a5.22 5.22 0 005.22-5.22V21.25a5.22 5.22 0 00-5.22-5.219zm0 3.563a1.657 1.657 0 011.657 1.656v1.906H23.156v-3.562h25.062zm1.657 10.687H23.156V26.72h26.719v3.562zm-1.657 14.25H23.156V33.844h26.719v9.03a1.657 1.657 0 01-1.657 1.657z"/><path d="M44.531 37.406h-5.343a1.781 1.781 0 000 3.563h5.343a1.781 1.781 0 000-3.563z"/></g><defs><clipPath id="clip0"><path fill="#fff" d="M0 0h57v57H0z"/></clipPath></defs></svg>