<svg width="18" height="18" fill="none" xmlns="http://www.w3.org/2000/svg"><path fill-rule="evenodd" clip-rule="evenodd" d="M13.802 4.225A6.689 6.689 0 009.04 2.25c-3.711 0-6.732 3.02-6.734 6.733 0 1.186.31 2.344.899 3.366l-.955 3.488 3.57-.937c.987.538 2.093.82 3.217.82h.003c3.71 0 6.731-3.02 6.733-6.733a6.697 6.697 0 00-1.97-4.762zM9.04 14.584h-.002a5.584 5.584 0 01-2.849-.781l-.204-.122-2.118.556.565-2.065-.133-.211a5.586 5.586 0 01-.856-2.978 5.605 5.605 0 017.742-5.172 5.57 5.57 0 011.813 1.217 5.566 5.566 0 011.638 3.96 5.605 5.605 0 01-5.596 5.596zm3.07-4.192c-.17-.085-.996-.491-1.15-.547-.154-.057-.266-.084-.378.084-.113.168-.435.546-.534.659-.098.112-.196.126-.364.042-.168-.084-.71-.262-1.353-.835a5.068 5.068 0 01-.936-1.165c-.098-.17-.01-.26.074-.344.076-.075.168-.196.252-.295.084-.098.112-.168.168-.28.056-.113.029-.211-.014-.295-.042-.085-.379-.913-.519-1.25-.136-.326-.274-.282-.378-.287a7.252 7.252 0 00-.322-.006.62.62 0 00-.449.21c-.154.169-.589.576-.589 1.404s.603 1.628.687 1.74c.084.113 1.187 1.812 2.874 2.54.402.174.716.277.96.355.402.129.769.11 1.06.067.322-.048.995-.406 1.135-.8.14-.393.14-.73.098-.8-.042-.07-.155-.113-.322-.197z" fill="#222"/></svg>