<svg width="41" height="43" fill="none" xmlns="http://www.w3.org/2000/svg"><path d="M33.797 6.754a14.394 14.394 0 01-3.917-.314c-1.55-.53-3-1.318-4.289-2.33a29.204 29.204 0 01-3.133-2.565 2.252 2.252 0 00-3.075 0 35.413 35.413 0 01-3.016 2.526A15.216 15.216 0 0112.06 6.46c-1.464.33-2.967.45-4.465.353a33.723 33.723 0 01-3.662-.353 2.232 2.232 0 00-2.546 1.958c-.098.94-.352 3.388-.47 6.11-.165 2.72.006 5.45.51 8.127a25.458 25.458 0 007.539 11.457 62.844 62.844 0 009.047 7.089 5.189 5.189 0 005.875 0 62.44 62.44 0 008.539-7.187 26.047 26.047 0 007.108-11.28" stroke="#000" stroke-width="1.5" stroke-linecap="round" stroke-linejoin="round"/><path d="M18.541 19.542l5.6 5.6a.373.373 0 00.55 0L40.082 9.75" stroke="#000" stroke-width="1.5" stroke-linecap="round" stroke-linejoin="round"/></svg>