<svg width="32" height="32" fill="none" xmlns="http://www.w3.org/2000/svg"><path fill-rule="evenodd" clip-rule="evenodd" d="M15.763 0c8.716 0 15.763 7.046 15.763 15.763 0 8.716-7.047 15.763-15.763 15.763C7.046 31.526 0 24.479 0 15.763 0 7.046 7.046 0 15.763 0z" fill="#C41616"/><path fill-rule="evenodd" clip-rule="evenodd" d="M18.434 8.683c.601.133 1.202.267 1.803.467a13.2 13.2 0 013.24 1.57l2.404-1.236c-2.204-1.67-4.742-2.805-7.48-3.24v2.439h.033zm-2.672-2.639c.435 0 .835 0 1.236.034v2.438c-.4-.034-.835-.034-1.236-.034-.434 0-.834 0-1.235.034V6.078c.4-.034.835-.034 1.236-.034zm-1.001 17.233a1.68 1.68 0 01-.268-.902V9.952c.401-.034.835-.034 1.236-.034.434 0 .835 0 1.236.034v12.456c0 .3-.067.635-.234.869-.267.367-.635.534-1.002.534-.334.033-.701-.167-.968-.534zM13.09 8.683c-.601.133-1.202.267-1.803.467a14.029 14.029 0 00-3.273 1.57L5.61 9.484a17.31 17.31 0 017.48-3.273v2.472zm5.744 15.028c1.736-1.57 3.774-4.308 4.842-8.75.234-.935.368-1.937.434-2.939l2.405-1.269a18.497 18.497 0 01-.468 4.575c-1.135 5.01-3.573 8.35-5.944 10.186-1.503 1.169-2.939 1.77-4.341 1.77-1.403 0-2.806-.601-4.342-1.77-2.371-1.837-4.809-5.143-5.944-10.186a18.127 18.127 0 01-.468-4.508l2.405 1.269c.066 1.002.2 1.97.434 2.905 1.068 4.409 3.072 7.114 4.842 8.717 1.169 1.035 2.137 1.57 3.072 1.57.969 0 1.937-.535 3.073-1.57z" fill="#FEFEFE"/></svg>