<svg width="125" height="32" fill="none" xmlns="http://www.w3.org/2000/svg"><g clip-path="url(#clip0)"><path d="M40.008 15.195l1.703.033a1.34 1.34 0 001.336-1.335 1.34 1.34 0 00-1.336-1.336h-1.703v2.638zm8.683 0l1.703.033a1.34 1.34 0 001.336-1.335 1.34 1.34 0 00-1.336-1.336h-1.703v2.638zm-2.371-4.074h3.172c1.47 0 2.505.1 3.206.6.702.468 1.136 1.236 1.136 2.172 0 .901-.334 1.703-.969 2.204-.133.1-.267.2-.4.267.4.334.667.801.834 1.402.334 1.07.635 2.138.735 2.639h-2.37c-.068-.368-.468-1.637-.669-2.171-.234-.534-.734-1.47-1.736-1.503h-.602v3.674H46.32V11.12zm11.722 0v9.317h-2.338v-9.317h2.338zm59.711 4.642c0 1.77.935 3.039 2.438 3.039 1.536 0 2.405-1.303 2.405-3.073 0-1.636-.835-3.039-2.405-3.039-1.536 0-2.438 1.303-2.438 3.073zm7.247-.1c0 2.972-1.97 4.775-4.943 4.775-2.972 0-4.708-2.037-4.708-4.608 0-2.706 1.937-4.676 4.875-4.676 3.106-.033 4.776 2.004 4.776 4.509zm-51.563.1c0 1.77.935 3.039 2.438 3.039 1.536 0 2.404-1.303 2.404-3.073 0-1.636-.834-3.039-2.404-3.039-1.536 0-2.438 1.303-2.438 3.073zm7.28-.1c0 2.972-1.97 4.775-4.942 4.775-2.972 0-4.709-2.037-4.709-4.608 0-2.706 1.937-4.676 4.876-4.676 3.072-.033 4.775 2.004 4.775 4.509zm19.771.868h-3.407v2.237h3.841v1.67H94.71v-9.317h5.978v1.67h-3.64v2.07h3.406v1.67h.034zm1.87-5.41h2.337v7.647h3.073v1.67h-5.41v-9.317zm6.913 0h2.337v7.647h3.073v1.67h-5.41v-9.317zm-17.867 0l-2.07 6.111-2.071-6.111h-2.438l3.039 9.284h2.905l3.04-9.318-2.405.034zm-24.78 0l-1.77 5.844-1.736-5.844h-3.34v9.284h2.338V14.16l1.837 6.245h1.87l1.803-6.245v6.245h2.338v-9.318h-3.34v.034zm-28.954 0h3.173c1.47 0 2.505.1 3.206.6.701.468 1.135 1.236 1.135 2.172 0 .901-.334 1.703-.968 2.204-.802.668-2.004.6-3.407.6h-.801v3.708H37.67V11.12z" fill="#000"/><path fill-rule="evenodd" clip-rule="evenodd" d="M15.763 0c8.716 0 15.763 7.046 15.763 15.763 0 8.716-7.047 15.763-15.763 15.763C7.046 31.526 0 24.479 0 15.763 0 7.046 7.046 0 15.763 0z" fill="#C41616"/><path fill-rule="evenodd" clip-rule="evenodd" d="M18.434 8.683c.601.133 1.203.267 1.804.467 1.135.368 2.237.902 3.24 1.57l2.404-1.236C23.677 7.814 21.14 6.68 18.4 6.245v2.438h.033zm-2.671-2.638c.434 0 .835 0 1.235.033v2.438c-.4-.034-.835-.034-1.235-.034-.434 0-.835 0-1.236.034V6.078c.4-.033.835-.033 1.236-.033zM14.76 23.277a1.68 1.68 0 01-.267-.902V9.952c.4-.033.835-.033 1.235-.033.434 0 .835 0 1.236.033v12.456c0 .301-.067.635-.234.869-.267.367-.634.534-1.002.534-.334.034-.7-.167-.968-.534zM13.09 8.683c-.601.133-1.202.267-1.803.467a14.03 14.03 0 00-3.273 1.57L5.61 9.484a17.31 17.31 0 017.481-3.272v2.47zm5.744 15.028c1.737-1.57 3.774-4.308 4.842-8.75.234-.935.368-1.937.435-2.939l2.404-1.269a18.497 18.497 0 01-.467 4.576c-1.136 5.009-3.574 8.348-5.945 10.185-1.503 1.17-2.939 1.77-4.341 1.77-1.403 0-2.806-.6-4.342-1.77-2.37-1.837-4.809-5.143-5.944-10.185a18.127 18.127 0 01-.468-4.509l2.405 1.27c.067 1.001.2 1.97.434 2.905 1.069 4.408 3.072 7.113 4.842 8.716 1.17 1.035 2.138 1.57 3.073 1.57.968 0 1.937-.535 3.072-1.57z" fill="#FEFEFE"/></g><defs><clipPath id="clip0"><path fill="#fff" d="M0 0h125v31.526H0z"/></clipPath></defs></svg>