<svg width="18" height="18" viewBox="0 0 18 18" fill="none" xmlns="http://www.w3.org/2000/svg">
<path d="M14.6026 15.75H3.39756C3.17165 15.7493 2.94881 15.6975 2.7457 15.5986C2.54258 15.4997 2.36442 15.3562 2.22453 15.1789C2.08464 15.0015 1.98662 14.7948 1.93779 14.5742C1.88897 14.3536 1.8906 14.1249 1.94256 13.905L3.75006 6.405C3.82664 6.08072 4.00901 5.79117 4.2684 5.58203C4.52778 5.3729 4.84942 5.25607 5.18256 5.25H12.8176C13.1507 5.25607 13.4723 5.3729 13.7317 5.58203C13.9911 5.79117 14.1735 6.08072 14.2501 6.405L16.0351 13.905C16.0866 14.123 16.0887 14.3498 16.0411 14.5688C15.9935 14.7877 15.8975 14.9932 15.7601 15.1702C15.6227 15.3471 15.4474 15.4911 15.2471 15.5914C15.0468 15.6917 14.8266 15.7459 14.6026 15.75Z" stroke="black" stroke-width="1.5" stroke-linecap="round" stroke-linejoin="round"/>
<path d="M5.67004 5.25L6.34504 3.885C6.59524 3.39532 6.97521 2.98382 7.44344 2.69548C7.91168 2.40713 8.45016 2.25302 9.00004 2.25V2.25C9.54993 2.25302 10.0884 2.40713 10.5566 2.69548C11.0249 2.98382 11.4048 3.39532 11.655 3.885L12.33 5.25" stroke="black" stroke-width="1.5" stroke-linecap="round" stroke-linejoin="round"/>
</svg>
