<svg width="18" height="18" viewBox="0 0 18 18" fill="none" xmlns="http://www.w3.org/2000/svg">
<path fill-rule="evenodd" clip-rule="evenodd" d="M9.98252 3.66749C10.6986 2.95141 11.6698 2.54912 12.6825 2.54912C13.6952 2.54912 14.6664 2.95141 15.3825 3.66749C16.0986 4.38358 16.5009 5.3548 16.5009 6.36749C16.5009 7.38019 16.0986 8.35141 15.3825 9.06749L14.4 10.05L9.00002 15.45L3.60002 10.05L2.61752 9.06749C1.90144 8.35141 1.49915 7.38019 1.49915 6.36749C1.49915 5.3548 1.90144 4.38358 2.61752 3.66749C3.33361 2.95141 4.30483 2.54912 5.31752 2.54912C6.33022 2.54912 7.30144 2.95141 8.01752 3.66749L9.00002 4.64999L9.98252 3.66749Z" stroke="black" stroke-width="1.5" stroke-linecap="round" stroke-linejoin="round"/>
</svg>
