<svg width="18" height="18" viewBox="0 0 18 18" fill="none" xmlns="http://www.w3.org/2000/svg">
<path fill-rule="evenodd" clip-rule="evenodd" d="M13.8022 4.22477C13.1785 3.59694 12.4364 3.09911 11.6189 2.76013C10.8014 2.42116 9.92475 2.24777 9.03975 2.25002C5.32875 2.25002 2.30775 5.27027 2.30625 8.98277C2.30625 10.1693 2.616 11.3273 3.20475 12.3488L2.25 15.837L5.81925 14.9003C6.80655 15.4377 7.91265 15.7195 9.03675 15.72H9.03975C12.75 15.72 15.771 12.6998 15.7725 8.98727C15.775 8.10263 15.6022 7.22627 15.2641 6.40882C14.9259 5.59137 14.429 4.84905 13.8022 4.22477ZM9.03975 14.5838H9.0375C8.03514 14.5839 7.05122 14.3142 6.189 13.803L5.985 13.6815L3.867 14.2373L4.43175 12.1725L4.299 11.961C3.73859 11.0688 3.44192 10.0364 3.44325 8.98277C3.44475 5.89727 5.955 3.38702 9.042 3.38702C9.77719 3.38539 10.5054 3.52958 11.1845 3.81126C11.8636 4.09294 12.4801 4.5065 12.9982 5.02802C13.5192 5.54705 13.9321 6.16419 14.2132 6.84377C14.4942 7.52335 14.6377 8.25188 14.6355 8.98727C14.634 12.0728 12.1238 14.5838 9.03975 14.5838ZM12.1095 10.392C11.9408 10.3073 11.1143 9.90077 10.9598 9.84452C10.806 9.78827 10.6943 9.76052 10.5817 9.92852C10.4692 10.0965 10.1467 10.4753 10.0485 10.5878C9.95025 10.7003 9.852 10.7138 9.684 10.6298C9.516 10.5458 8.97375 10.368 8.331 9.79502C7.83075 9.34877 7.49325 8.79827 7.395 8.62952C7.29675 8.46077 7.3845 8.37002 7.46925 8.28602C7.545 8.21102 7.63725 8.08952 7.72125 7.99127C7.80525 7.89302 7.833 7.82327 7.88925 7.71077C7.9455 7.59827 7.91775 7.50002 7.875 7.41602C7.833 7.33127 7.49625 6.50327 7.356 6.16652C7.22025 5.84027 7.0815 5.88377 6.978 5.87927C6.87081 5.87489 6.76353 5.87289 6.65625 5.87327C6.57094 5.87545 6.487 5.89522 6.4097 5.93136C6.33239 5.96749 6.26338 6.01921 6.207 6.08327C6.0525 6.25202 5.61825 6.65852 5.61825 7.48652C5.61825 8.31452 6.22125 9.11477 6.30525 9.22727C6.38925 9.33977 7.49175 11.0385 9.17925 11.7675C9.58125 11.9408 9.89475 12.0443 10.1385 12.1223C10.5412 12.2505 10.908 12.2318 11.1982 12.189C11.5215 12.141 12.1935 11.7825 12.3337 11.3895C12.474 10.9965 12.474 10.6598 12.432 10.5893C12.39 10.5188 12.2767 10.476 12.1095 10.392Z" fill="#222222"/>
</svg>
