<svg width="36" height="37" viewBox="0 0 36 37" fill="none" xmlns="http://www.w3.org/2000/svg">
<path d="M1.26562 11.6458C2.83214 7.88423 5.65363 4.78161 9.24998 2.86593C12.8463 0.950247 16.9954 0.339849 20.9911 1.1386C24.9868 1.93736 28.5823 4.09592 31.1657 7.24697C33.7492 10.398 35.1611 14.3469 35.1611 18.4217C35.1611 22.4964 33.7492 26.4453 31.1657 29.5963C28.5823 32.7474 24.9868 34.906 20.9911 35.7047C16.9954 36.5035 12.8463 35.8931 9.24998 33.9774C5.65363 32.0617 2.83214 28.9591 1.26562 25.1975" stroke="black" stroke-width="1.5" stroke-linecap="round" stroke-linejoin="round"/>
<path d="M1.1875 3.96912V11.4108C1.1875 11.5147 1.22876 11.6143 1.30222 11.6877C1.37567 11.7612 1.47529 11.8025 1.57917 11.8025H9.02083" stroke="black" stroke-width="1.5" stroke-linecap="round" stroke-linejoin="round"/>
</svg>
