<svg width="18" height="18" viewBox="0 0 18 18" fill="none" xmlns="http://www.w3.org/2000/svg">
<path fill-rule="evenodd" clip-rule="evenodd" d="M1.50028 2.40752V6.90752C1.4991 6.93768 1.50806 6.96737 1.52573 6.99184C1.54341 7.01631 1.56877 7.03415 1.59778 7.04252L3.65278 7.79252C3.68114 7.80419 3.70548 7.8239 3.7228 7.84921C3.74012 7.87453 3.74967 7.90435 3.75028 7.93501V15C3.75028 15.3978 3.90832 15.7794 4.18962 16.0607C4.47092 16.342 4.85245 16.5 5.25028 16.5H12.7503C13.1481 16.5 13.5296 16.342 13.8109 16.0607C14.0922 15.7794 14.2503 15.3978 14.2503 15V7.92002C14.251 7.88744 14.2614 7.85581 14.2801 7.82911C14.2988 7.80242 14.3249 7.78186 14.3553 7.77001L16.4028 7.02001C16.4272 7.01343 16.4494 7.00009 16.4666 6.98152C16.4839 6.96295 16.4955 6.9399 16.5003 6.91502V2.41502C16.5007 2.37884 16.488 2.34374 16.4646 2.31617C16.4412 2.28861 16.4085 2.27044 16.3728 2.26502L12.1128 1.50002C12.0793 1.49529 12.0451 1.50149 12.0154 1.51771C11.9857 1.53392 11.962 1.55927 11.9478 1.59002L11.1453 3.29252C10.9525 3.69834 10.6487 4.04124 10.2691 4.2815C9.88948 4.52175 9.44955 4.64953 9.00028 4.65001V4.65001C8.55101 4.64953 8.11107 4.52175 7.73144 4.2815C7.35181 4.04124 7.04803 3.69834 6.85528 3.29252L6.05278 1.59752C6.03983 1.56538 6.01665 1.53841 5.98682 1.52078C5.95699 1.50315 5.92218 1.49585 5.88778 1.50002L1.62778 2.25002C1.59068 2.25557 1.55701 2.27483 1.53341 2.30398C1.50981 2.33314 1.49799 2.37007 1.50028 2.40752V2.40752Z" stroke="#C41616" stroke-width="1.5" stroke-linecap="round" stroke-linejoin="round"/>
</svg>
