<svg width="57" height="57" viewBox="0 0 57 57" fill="none" xmlns="http://www.w3.org/2000/svg">
<g clip-path="url(#clip0)">
<path d="M55.2188 32.0625H12.4688C11.9963 32.0625 11.5433 31.8748 11.2092 31.5408C10.8752 31.2067 10.6875 30.7537 10.6875 30.2812C10.6875 29.8088 10.8752 29.3558 11.2092 29.0217C11.5433 28.6877 11.9963 28.5 12.4688 28.5H55.2188C55.6912 28.5 56.1442 28.6877 56.4783 29.0217C56.8123 29.3558 57 29.8088 57 30.2812C57 30.7537 56.8123 31.2067 56.4783 31.5408C56.1442 31.8748 55.6912 32.0625 55.2188 32.0625Z" fill="black" stroke="white" stroke-width="2.5"/>
<path d="M55.2188 42.75H12.4688C11.9963 42.75 11.5433 42.5623 11.2092 42.2283C10.8752 41.8942 10.6875 41.4412 10.6875 40.9688C10.6875 40.4963 10.8752 40.0433 11.2092 39.7092C11.5433 39.3752 11.9963 39.1875 12.4688 39.1875H55.2188C55.6912 39.1875 56.1442 39.3752 56.4783 39.7092C56.8123 40.0433 57 40.4963 57 40.9688C57 41.4412 56.8123 41.8942 56.4783 42.2283C56.1442 42.5623 55.6912 42.75 55.2188 42.75Z" fill="black" stroke="white" stroke-width="2.5"/>
<path d="M24.9375 24.9375C21.0009 24.9375 17.8125 20.9475 17.8125 16.0312C17.8125 11.115 21.0009 7.125 24.9375 7.125C28.8741 7.125 32.0625 11.115 32.0625 16.0312C32.0625 20.9475 28.8741 24.9375 24.9375 24.9375ZM24.9375 10.6875C23.0138 10.6875 21.375 13.1278 21.375 16.0312C21.375 18.9347 23.0138 21.375 24.9375 21.375C26.8612 21.375 28.5 18.9347 28.5 16.0312C28.5 13.1278 26.8612 10.6875 24.9375 10.6875Z" fill="black" stroke="white" stroke-width="2.5"/>
<path d="M12.4688 17.8125H8.90625C8.43383 17.8125 7.98077 17.6248 7.64672 17.2908C7.31267 16.9567 7.125 16.5037 7.125 16.0312C7.125 15.5588 7.31267 15.1058 7.64672 14.7717C7.98077 14.4377 8.43383 14.25 8.90625 14.25H12.4688C12.9412 14.25 13.3942 14.4377 13.7283 14.7717C14.0623 15.1058 14.25 15.5588 14.25 16.0312C14.25 16.5037 14.0623 16.9567 13.7283 17.2908C13.3942 17.6248 12.9412 17.8125 12.4688 17.8125Z" fill="black" stroke="white" stroke-width="2.5"/>
<path d="M40.9688 17.8125H37.4062C36.9338 17.8125 36.4808 17.6248 36.1467 17.2908C35.8127 16.9567 35.625 16.5037 35.625 16.0312C35.625 15.5588 35.8127 15.1058 36.1467 14.7717C36.4808 14.4377 36.9338 14.25 37.4062 14.25H40.9688C41.4412 14.25 41.8942 14.4377 42.2283 14.7717C42.5623 15.1058 42.75 15.5588 42.75 16.0312C42.75 16.5037 42.5623 16.9567 42.2283 17.2908C41.8942 17.6248 41.4412 17.8125 40.9688 17.8125Z" fill="black" stroke="white" stroke-width="2.5"/>
<path d="M51.6562 21.375H16.0312C14.614 21.375 13.2548 21.938 12.2526 22.9401C11.2505 23.9423 10.6875 25.3015 10.6875 26.7188V28.5H5.21906C5.00086 28.5024 4.78437 28.4612 4.58231 28.3788C4.38025 28.2964 4.19668 28.1744 4.04238 28.0201C3.88808 27.8658 3.76615 27.6822 3.68374 27.4802C3.60133 27.2781 3.56012 27.0616 3.5625 26.8434V5.21906C3.56012 5.00086 3.60133 4.78437 3.68374 4.58231C3.76615 4.38025 3.88808 4.19668 4.04238 4.04238C4.19668 3.88808 4.38025 3.76615 4.58231 3.68374C4.78437 3.60133 5.00086 3.56012 5.21906 3.5625H44.6559C44.8741 3.56012 45.0906 3.60133 45.2927 3.68374C45.4947 3.76615 45.6783 3.88808 45.8326 4.04238C45.9869 4.19668 46.1089 4.38025 46.1913 4.58231C46.2737 4.78437 46.3149 5.00086 46.3125 5.21906V16.0312C46.3125 16.5037 46.5002 16.9567 46.8342 17.2908C47.1683 17.6248 47.6213 17.8125 48.0938 17.8125C48.5662 17.8125 49.0192 17.6248 49.3533 17.2908C49.6873 16.9567 49.875 16.5037 49.875 16.0312V5.21906C49.875 3.83488 49.3251 2.50739 48.3464 1.52863C47.3676 0.549864 46.0401 0 44.6559 0L5.21906 0C3.83488 0 2.50739 0.549864 1.52863 1.52863C0.549864 2.50739 0 3.83488 0 5.21906L0 26.8434C0 28.2276 0.549864 29.5551 1.52863 30.5339C2.50739 31.5126 3.83488 32.0625 5.21906 32.0625H10.6875V51.6562C10.6875 53.0735 11.2505 54.4327 12.2526 55.4349C13.2548 56.437 14.614 57 16.0312 57H51.6562C53.0735 57 54.4327 56.437 55.4349 55.4349C56.437 54.4327 57 53.0735 57 51.6562V26.7188C57 25.3015 56.437 23.9423 55.4349 22.9401C54.4327 21.938 53.0735 21.375 51.6562 21.375ZM53.4375 51.6562C53.4375 52.1287 53.2498 52.5817 52.9158 52.9158C52.5817 53.2498 52.1287 53.4375 51.6562 53.4375H16.0312C15.5588 53.4375 15.1058 53.2498 14.7717 52.9158C14.4377 52.5817 14.25 52.1287 14.25 51.6562V26.7188C14.25 26.2463 14.4377 25.7933 14.7717 25.4592C15.1058 25.1252 15.5588 24.9375 16.0312 24.9375H51.6562C52.1287 24.9375 52.5817 25.1252 52.9158 25.4592C53.2498 25.7933 53.4375 26.2463 53.4375 26.7188V51.6562Z" fill="black" stroke="white" stroke-width="2.5"/>
<path d="M28.5 49.875H19.5938C19.1213 49.875 18.6683 49.6873 18.3342 49.3533C18.0002 49.0192 17.8125 48.5662 17.8125 48.0938C17.8125 47.6213 18.0002 47.1683 18.3342 46.8342C18.6683 46.5002 19.1213 46.3125 19.5938 46.3125H28.5C28.9724 46.3125 29.4255 46.5002 29.7595 46.8342C30.0936 47.1683 30.2812 47.6213 30.2812 48.0938C30.2812 48.5662 30.0936 49.0192 29.7595 49.3533C29.4255 49.6873 28.9724 49.875 28.5 49.875Z" fill="black" stroke="white" stroke-width="2.5"/>
</g>
<defs>
<clipPath id="clip0">
<rect width="57" height="57" fill="white"/>
</clipPath>
</defs>
</svg>
