<svg width="57" height="57" viewBox="0 0 57 57" fill="none" xmlns="http://www.w3.org/2000/svg">
<g clip-path="url(#clip0)">
<path d="M26.7182 57C26.2458 57 25.7927 56.8123 25.4587 56.4782C25.1246 56.1442 24.937 55.6911 24.937 55.2187C24.8949 54.0773 24.5998 52.9595 24.073 51.946C23.5463 50.9326 22.801 50.0487 21.891 49.3584C21.5556 49.023 21.3672 48.5681 21.3672 48.0937C21.3672 47.6194 21.5556 47.1644 21.891 46.829C22.2265 46.4936 22.6814 46.3052 23.1557 46.3052C23.6301 46.3052 24.085 46.4936 24.4204 46.829L25.4535 47.88C27.3983 49.8279 28.4933 52.4662 28.4995 55.2187C28.4995 55.6911 28.3118 56.1442 27.9778 56.4782C27.6437 56.8123 27.1906 57 26.7182 57Z" fill="black" stroke="white" stroke-width="2.5"/>
<path d="M49.8746 57C49.4021 57 48.9491 56.8124 48.615 56.4783C48.281 56.1443 48.0933 55.6912 48.0933 55.2188V31.9379C48.084 30.7732 47.7214 29.6388 47.0535 28.6847C46.3856 27.7305 45.4438 27.0015 44.3527 26.5941L35.0011 23.0316C34.5571 22.8663 34.1969 22.5313 33.9998 22.1004C33.8027 21.6694 33.7848 21.1779 33.9502 20.7338C34.1155 20.2897 34.4505 19.9295 34.8814 19.7324C35.3124 19.5353 35.8039 19.5175 36.248 19.6829L45.5996 23.2454C47.3725 23.9182 48.9001 25.1123 49.9812 26.6703C51.0622 28.2283 51.6461 30.0772 51.6558 31.9735V55.2188C51.6558 55.6912 51.4681 56.1443 51.1341 56.4783C50.8001 56.8124 50.347 57 49.8746 57Z" fill="black" stroke="white" stroke-width="2.5"/>
<path d="M35.625 49.875H10.5628C9.17863 49.875 7.85114 49.3251 6.87238 48.3464C5.89361 47.3676 5.34375 46.0401 5.34375 44.6559V17.8125C5.34375 17.3401 5.53142 16.887 5.86547 16.553C6.19952 16.2189 6.65258 16.0312 7.125 16.0312C7.59742 16.0312 8.05048 16.2189 8.38453 16.553C8.71858 16.887 8.90625 17.3401 8.90625 17.8125V44.6559C8.90387 44.8741 8.94508 45.0906 9.02749 45.2927C9.1099 45.4947 9.23183 45.6783 9.38613 45.8326C9.54043 45.9869 9.724 46.1089 9.92606 46.1913C10.1281 46.2737 10.3446 46.3149 10.5628 46.3125H35.625C36.0974 46.3125 36.5505 46.5002 36.8845 46.8342C37.2186 47.1683 37.4062 47.6213 37.4062 48.0938C37.4062 48.5662 37.2186 49.0192 36.8845 49.3533C36.5505 49.6873 36.0974 49.875 35.625 49.875Z" fill="black" stroke="white" stroke-width="2.5"/>
<path d="M35.625 33.8438C35.1526 33.8438 34.6995 33.6561 34.3655 33.322C34.0314 32.988 33.8438 32.5349 33.8438 32.0625V5.21906C33.8461 5.00086 33.8049 4.78437 33.7225 4.58231C33.6401 4.38025 33.5182 4.19668 33.3639 4.04238C33.2096 3.88808 33.026 3.76615 32.8239 3.68374C32.6219 3.60133 32.4054 3.56012 32.1872 3.5625H10.5628C10.3446 3.56012 10.1281 3.60133 9.92606 3.68374C9.724 3.76615 9.54043 3.88808 9.38613 4.04238C9.23183 4.19668 9.1099 4.38025 9.02749 4.58231C8.94508 4.78437 8.90387 5.00086 8.90625 5.21906V10.6875C8.90625 11.1599 8.71858 11.613 8.38453 11.947C8.05048 12.2811 7.59742 12.4688 7.125 12.4688C6.65258 12.4688 6.19952 12.2811 5.86547 11.947C5.53142 11.613 5.34375 11.1599 5.34375 10.6875V5.21906C5.34375 3.83488 5.89361 2.50739 6.87238 1.52863C7.85114 0.549864 9.17863 0 10.5628 0L32.1872 0C33.5714 0 34.8989 0.549864 35.8776 1.52863C36.8564 2.50739 37.4062 3.83488 37.4062 5.21906V32.0625C37.4062 32.5349 37.2186 32.988 36.8845 33.322C36.5505 33.6561 36.0974 33.8438 35.625 33.8438Z" fill="black" stroke="white" stroke-width="2.5"/>
<path d="M21.375 32.0625C16.4588 32.0625 12.4688 28.8741 12.4688 24.9375C12.4688 21.0009 16.4588 17.8125 21.375 17.8125C26.2913 17.8125 30.2812 21.0009 30.2812 24.9375C30.2812 28.8741 26.2913 32.0625 21.375 32.0625ZM21.375 21.375C18.4716 21.375 16.0312 23.0138 16.0312 24.9375C16.0312 26.8612 18.4716 28.5 21.375 28.5C24.2784 28.5 26.7188 26.8612 26.7188 24.9375C26.7188 23.0138 24.2784 21.375 21.375 21.375Z" fill="black" stroke="white" stroke-width="2.5"/>
<path d="M21.375 14.25C20.9026 14.25 20.4495 14.0623 20.1155 13.7283C19.7814 13.3942 19.5938 12.9412 19.5938 12.4688V8.90625C19.5938 8.43383 19.7814 7.98077 20.1155 7.64672C20.4495 7.31267 20.9026 7.125 21.375 7.125C21.8474 7.125 22.3005 7.31267 22.6345 7.64672C22.9686 7.98077 23.1562 8.43383 23.1562 8.90625V12.4688C23.1562 12.9412 22.9686 13.3942 22.6345 13.7283C22.3005 14.0623 21.8474 14.25 21.375 14.25Z" fill="black" stroke="white" stroke-width="2.5"/>
<path d="M21.375 42.75C20.9026 42.75 20.4495 42.5623 20.1155 42.2283C19.7814 41.8942 19.5938 41.4412 19.5938 40.9688V37.4062C19.5938 36.9338 19.7814 36.4808 20.1155 36.1467C20.4495 35.8127 20.9026 35.625 21.375 35.625C21.8474 35.625 22.3005 35.8127 22.6345 36.1467C22.9686 36.4808 23.1562 36.9338 23.1562 37.4062V40.9688C23.1562 41.4412 22.9686 41.8942 22.6345 42.2283C22.3005 42.5623 21.8474 42.75 21.375 42.75Z" fill="black" stroke="white" stroke-width="2.5"/>
<path d="M39.1862 57C38.9518 57.0014 38.7194 56.9565 38.5024 56.8678C38.2854 56.7792 38.088 56.6486 37.9215 56.4835C35.323 53.8545 33.8586 50.3117 33.8425 46.6154V44.656C33.8409 44.3626 33.767 44.0741 33.6271 43.8162C33.4873 43.5583 33.2859 43.3389 33.0409 43.1775L28.0712 39.8644C26.5566 38.8546 25.3878 37.405 24.7222 35.7107C24.0566 34.0164 23.9261 32.1589 24.3484 30.3882C24.4275 29.8547 24.6267 29.3462 24.931 28.9009C25.2352 28.4556 25.6366 28.0852 26.1049 27.8177C26.5731 27.5501 27.096 27.3923 27.6341 27.3562C28.1722 27.3202 28.7114 27.4067 29.2112 27.6094L41.68 32.1694C42.124 32.3348 42.4842 32.6697 42.6813 33.1007C42.8784 33.5316 42.8962 34.0232 42.7309 34.4672C42.5656 34.9113 42.2306 35.2715 41.7997 35.4686C41.3687 35.6657 40.8772 35.6835 40.4331 35.5182L27.9643 30.9225L27.8575 31.2075C27.6042 32.2687 27.6818 33.382 28.0798 34.3978C28.4778 35.4135 29.1772 36.2831 30.084 36.8897L35.0537 40.2029C35.7814 40.6947 36.3767 41.3584 36.7868 42.1351C37.1969 42.9118 37.4092 43.7777 37.405 44.656V46.6154C37.4073 49.3687 38.5029 52.0084 40.4509 53.9541C40.7021 54.2033 40.8734 54.5216 40.943 54.8685C41.0126 55.2154 40.9773 55.5751 40.8417 55.9019C40.706 56.2286 40.4761 56.5076 40.1812 56.7032C39.8864 56.8988 39.54 57.0021 39.1862 57Z" fill="black" stroke="white" stroke-width="2.5"/>
</g>
<defs>
<clipPath id="clip0">
<rect width="57" height="57" fill="white"/>
</clipPath>
</defs>
</svg>
