<svg width="63" height="62" viewBox="0 0 63 62" fill="none" xmlns="http://www.w3.org/2000/svg">
<path d="M36.0482 12.2598C34.6838 15.3899 30.8714 22.2521 20.4778 37.1403C19.7956 38.1034 19.1535 39.0666 18.4713 39.9895C19.0331 38.9863 19.6351 37.983 20.1969 36.9397C29.2261 21.1686 33.841 14.8281 36.0482 12.2598ZM38.2955 9.12964C38.2553 9.08951 38.2152 9.04939 38.1349 9.00926C33.8009 6.28042 4.74686 61.6597 4.74686 61.6597C4.74686 61.6597 41.5058 13.0222 38.2955 9.12964Z" fill="#3E4854"/>
<path d="M32.1556 19.0022C32.0352 19.0022 31.9148 18.9621 31.8346 18.922C31.5536 18.7614 31.4734 18.3601 31.6339 18.0792L33.52 15.1096C33.6805 14.8287 34.0818 14.7484 34.3627 14.909C34.6436 15.0695 34.7239 15.4708 34.5634 15.7517L32.6773 18.7213C32.5569 18.8818 32.3562 19.0022 32.1556 19.0022Z" fill="#3E4854"/>
<path d="M13.2544 22.9346L12.1308 22.4932C13.9767 17.7177 13.6557 12.1798 11.2479 5.6386L12.3715 5.2373C14.8997 12.0594 15.1806 17.8381 13.2544 22.9346Z" fill="#3E4854"/>
<path d="M55.1099 24.3389C55.0296 24.3389 54.9895 24.3389 54.9092 24.2988C53.0633 23.6567 51.2173 23.2554 49.3312 23.0949C49.0904 23.0548 48.9299 22.9344 48.8496 22.6936C46.8431 17.3965 48.6891 12.4204 50.816 6.68179L51.1771 5.71866C51.2574 5.55814 51.3778 5.39763 51.5383 5.3575C51.6988 5.31737 51.8995 5.31737 52.06 5.43776C56.3539 8.32711 58.7617 10.6546 61.7714 13.544L61.8918 13.6644C62.1326 13.865 62.1326 14.2262 61.932 14.467C59.6446 17.236 56.8756 20.8075 55.5914 23.9377C55.5513 24.1784 55.3507 24.3389 55.1099 24.3389ZM49.8529 21.9312C51.4982 22.1318 53.1435 22.493 54.7888 22.9745C56.1131 20.0049 58.6012 16.7544 60.7281 14.1459C57.919 11.4572 55.7921 9.41062 52.06 6.84231L51.9797 7.08309C49.9331 12.5006 48.2075 17.1557 49.8529 21.9312Z" fill="#3E4854"/>
<path d="M31.0721 54.0353C30.9116 54.0353 30.751 54.0353 30.6307 54.0353C24.9322 54.0353 19.1936 53.8748 13.4952 53.5939C13.2945 53.5939 13.134 53.4735 13.0136 53.313C12.8932 53.1525 12.8932 52.9518 12.9334 52.7913C13.4149 51.467 15.1004 37.3413 12.211 23.3761C10.5256 23.5767 8.8401 23.978 7.19478 24.5398C6.87374 24.6602 6.5527 24.4997 6.43231 24.1787C5.18828 21.0886 2.41932 17.477 0.131916 14.708C-0.0687334 14.4672 -0.028601 14.1061 0.172049 13.9054C3.26205 10.9358 7.07439 7.88591 11.4887 4.91629C14.6188 3.03019 18.3509 1.425 22.8856 0.0204529C23.2066 -0.0598069 23.5276 0.100713 23.648 0.421752C24.9322 4.27422 27.0992 6.20046 30.3096 6.28072H31.4734C34.6436 6.20046 36.8508 4.27422 38.0948 0.421752C38.2152 0.100713 38.5362 -0.0598069 38.8573 0.0204529C43.392 1.425 47.124 2.99007 50.214 4.87617C50.4548 5.03669 50.5752 5.3176 50.4548 5.59851C48.0069 12.1397 47.726 17.6776 49.572 22.4531C49.6121 22.5735 49.6121 22.6938 49.6121 22.7741C46.4017 37.7024 48.4885 51.8683 48.7694 52.7511C48.8095 52.9117 48.8095 53.1123 48.6891 53.2728C48.5687 53.4334 48.4082 53.5136 48.2075 53.5537C42.5091 53.8748 36.7304 54.0353 31.0721 54.0353ZM14.2576 52.4301C19.7554 52.711 25.3335 52.8314 30.8313 52.8314C36.3291 52.8314 41.9072 52.711 47.4451 52.4301C46.8833 49.1395 45.4787 36.338 48.3681 22.7741C46.5622 17.8381 46.803 12.2601 49.1305 5.71889C46.3214 4.07357 42.9907 2.62889 39.0178 1.38487C37.533 5.35773 35.0048 7.40435 31.4333 7.52474H30.2294C26.6578 7.40435 24.1296 5.35773 22.6448 1.38487C18.4713 2.70915 15.0201 4.19396 12.0906 5.95967C7.95725 8.72864 4.34556 11.5779 1.37595 14.387C3.62322 17.1559 5.99089 20.2861 7.31517 23.2155C9.08089 22.6537 10.8466 22.2925 12.6123 22.0919C12.9334 22.0518 13.2143 22.2524 13.2544 22.5735C15.9832 35.1341 14.98 48.7382 14.2576 52.4301Z" fill="#3E4854"/>
<path d="M31.4332 10.0929H30.1892C27.3801 10.0127 23.5276 8.92915 21.0396 4.11356C20.6383 3.35109 20.1969 2.62876 19.6752 1.94655L20.6383 1.18408C21.2001 1.90642 21.7218 2.70901 22.1231 3.51161C24.3302 7.80551 27.7413 8.76864 30.2293 8.8489H31.4734H31.5536C34.0016 8.76864 37.4527 7.80551 39.6599 3.51161C40.0612 2.70901 40.5829 1.94655 41.1447 1.22421L42.1078 1.94655C41.5861 2.58863 41.1447 3.31097 40.7434 4.03331C38.2553 8.8489 34.4029 9.9324 31.5938 10.0127L31.4332 10.0929Z" fill="#3E4854"/>
<path d="M30.8313 2.70911C28.1827 2.70911 25.5342 2.18743 22.8053 1.18418L23.2467 0.0605469C28.4235 2.02691 33.2391 2.02691 38.4159 0.0605469L38.8573 1.18418C36.0883 2.18743 33.4799 2.70911 30.8313 2.70911Z" fill="#3E4854"/>
<path d="M32.9582 17.0357C32.8378 17.0357 32.7174 16.9955 32.597 16.9153C32.3161 16.7146 32.276 16.3535 32.4365 16.0725C33.1588 15.0292 34.443 14.668 35.687 14.4673C40.4625 13.6647 45.3182 13.7049 50.0937 14.5476C50.4147 14.5877 50.6555 14.9088 50.5752 15.2298C50.5351 15.5509 50.2141 15.7916 49.893 15.7114C45.2379 14.9088 40.5427 14.8686 35.8877 15.6311C34.8844 15.7916 33.9213 16.0324 33.4398 16.7146C33.3595 16.9153 33.1588 17.0357 32.9582 17.0357Z" fill="#3E4854"/>
<path d="M49.8127 18.0389C49.7325 18.0389 49.6121 17.9988 49.5318 17.9587C48.4885 17.3968 47.2444 17.1561 46.0807 17.2363C45.7596 17.2764 45.4787 16.9955 45.4386 16.6745C45.3985 16.3535 45.6794 16.0725 46.0004 16.0324C47.405 15.9522 48.8095 16.2331 50.0937 16.8751C50.3746 17.0357 50.4949 17.3968 50.3344 17.6777C50.214 17.9185 50.0134 18.0389 49.8127 18.0389Z" fill="#3E4854"/>
<path d="M49.8127 20.1657C49.7726 20.1657 49.7325 20.1657 49.6522 20.1657L46.4418 19.3631C46.1208 19.2828 45.9201 18.9618 46.0004 18.6408C46.0807 18.3197 46.4017 18.1191 46.7227 18.1993L49.9331 19.0019C50.2542 19.0822 50.4548 19.4032 50.3746 19.7243C50.3344 19.9651 50.0535 20.1657 49.8127 20.1657Z" fill="#3E4854"/>
<path d="M49.7726 21.8108H46.5622C46.2412 21.8108 45.9603 21.5299 45.9603 21.2089C45.9603 20.8878 46.2412 20.6069 46.5622 20.6069H49.7726C50.0936 20.6069 50.3746 20.8878 50.3746 21.2089C50.3746 21.5299 50.1338 21.8108 49.7726 21.8108Z" fill="#3E4854"/>
<path d="M35.4864 34.2913C30.8313 29.8771 29.6675 22.2925 32.7575 16.6743L33.8009 17.2361C30.9517 22.4129 32.0352 29.3554 36.289 33.4085L35.4864 34.2913Z" fill="#3E4854"/>
</svg>
