<svg width="57" height="57" viewBox="0 0 57 57" fill="none" xmlns="http://www.w3.org/2000/svg">
<g clip-path="url(#clip0)">
<path d="M33.8443 21.3751H23.1568C22.6844 21.3751 22.2314 21.1874 21.8973 20.8534C21.5633 20.5193 21.3756 20.0662 21.3756 19.5938V14.2501H17.8131C17.4593 14.2521 17.1129 14.1488 16.8181 13.9532C16.5232 13.7576 16.2933 13.4787 16.1577 13.1519C16.022 12.8251 15.9867 12.4654 16.0563 12.1185C16.1259 11.7716 16.2972 11.4533 16.5484 11.2041L27.2359 0.516637C27.4015 0.349683 27.5985 0.217168 27.8156 0.126737C28.0326 0.0363048 28.2654 -0.0102539 28.5006 -0.0102539C28.7357 -0.0102539 28.9686 0.0363048 29.1856 0.126737C29.4027 0.217168 29.5997 0.349683 29.7653 0.516637L40.4528 11.2041C40.704 11.4533 40.8753 11.7716 40.9449 12.1185C41.0145 12.4654 40.9792 12.8251 40.8435 13.1519C40.7079 13.4787 40.478 13.7576 40.1831 13.9532C39.8883 14.1488 39.5419 14.2521 39.1881 14.2501H35.6256V19.5938C35.6256 20.0662 35.4379 20.5193 35.1039 20.8534C34.7698 21.1874 34.3168 21.3751 33.8443 21.3751ZM24.9381 17.8126H32.0631V12.4688C32.0631 11.9964 32.2508 11.5433 32.5848 11.2093C32.9189 10.8752 33.3719 10.6876 33.8443 10.6876H34.8953L28.5006 4.29289L22.1059 10.6876H23.1568C23.6293 10.6876 24.0823 10.8752 24.4164 11.2093C24.7504 11.5433 24.9381 11.9964 24.9381 12.4688V17.8126Z" fill="black" stroke="white" stroke-width="2.5"/>
<path d="M49.875 17.8125H7.125C5.70775 17.8125 4.34855 18.3755 3.3464 19.3776C2.34425 20.3798 1.78125 21.739 1.78125 23.1562V51.6562C1.78125 53.0735 2.34425 54.4327 3.3464 55.4349C4.34855 56.437 5.70775 57 7.125 57H49.875C51.2923 57 52.6515 56.437 53.6536 55.4349C54.6558 54.4327 55.2188 53.0735 55.2188 51.6562V23.1562C55.2188 21.739 54.6558 20.3798 53.6536 19.3776C52.6515 18.3755 51.2923 17.8125 49.875 17.8125ZM5.34375 30.2812H51.6562V35.625H5.34375V30.2812ZM7.125 21.375H49.875C50.3474 21.375 50.8005 21.5627 51.1345 21.8967C51.4686 22.2308 51.6562 22.6838 51.6562 23.1562V26.7188H5.34375V23.1562C5.34375 22.6838 5.53142 22.2308 5.86547 21.8967C6.19952 21.5627 6.65258 21.375 7.125 21.375ZM49.875 53.4375H7.125C6.65258 53.4375 6.19952 53.2498 5.86547 52.9158C5.53142 52.5817 5.34375 52.1287 5.34375 51.6562V39.1875H51.6562V51.6562C51.6562 52.1287 51.4686 52.5817 51.1345 52.9158C50.8005 53.2498 50.3474 53.4375 49.875 53.4375Z" fill="black" stroke="white" stroke-width="2.5"/>
<path d="M19.5938 46.3125H10.6875C10.2151 46.3125 9.76202 46.5002 9.42797 46.8342C9.09392 47.1683 8.90625 47.6213 8.90625 48.0938C8.90625 48.5662 9.09392 49.0192 9.42797 49.3533C9.76202 49.6873 10.2151 49.875 10.6875 49.875H19.5938C20.0662 49.875 20.5192 49.6873 20.8533 49.3533C21.1873 49.0192 21.375 48.5662 21.375 48.0938C21.375 47.6213 21.1873 47.1683 20.8533 46.8342C20.5192 46.5002 20.0662 46.3125 19.5938 46.3125Z" fill="black" stroke="white" stroke-width="2.5"/>
</g>
<defs>
<clipPath id="clip0">
<rect width="57" height="57" fill="white"/>
</clipPath>
</defs>
</svg>
