<svg width="12" height="12" viewBox="0 0 12 12" fill="none" xmlns="http://www.w3.org/2000/svg">
<g opacity="0.25">
<path d="M6.5 3.25V3C6.5 2.66848 6.3683 2.35054 6.13388 2.11612C5.89946 1.8817 5.58152 1.75 5.25 1.75V1.75C4.91848 1.75 4.60054 1.8817 4.36612 2.11612C4.1317 2.35054 4 2.66848 4 3V3C3.99934 3.33437 4.09587 3.66172 4.27784 3.94223C4.45982 4.22274 4.7194 4.44432 5.025 4.58L10.41 7C10.5839 7.07816 10.7319 7.20441 10.8364 7.36387C10.9409 7.52333 10.9977 7.70935 11 7.9V9.25C11 9.51522 10.8946 9.76957 10.7071 9.95711C10.5196 10.1446 10.2652 10.25 10 10.25H2C1.73478 10.25 1.48043 10.1446 1.29289 9.95711C1.10536 9.76957 1 9.51522 1 9.25V7.925C1.0008 7.72557 1.06122 7.53094 1.17348 7.36611C1.28574 7.20129 1.44472 7.07379 1.63 7L6.27 5.135" stroke="black" stroke-linecap="round" stroke-linejoin="round"/>
</g>
</svg>
