<svg width="60" height="62" viewBox="0 0 60 62" fill="none" xmlns="http://www.w3.org/2000/svg">
<path d="M57.2935 61.6624H18.402V31.8945C18.402 27.9899 23.7757 23.7373 28.7241 23.7373H47.0101C51.9198 23.7373 57.3322 27.9899 57.3322 31.8945V61.6624H57.2935ZM19.5618 60.5026H56.1337V31.8945C56.1337 28.6084 51.2626 24.8971 46.9714 24.8971H28.6854C24.3942 24.8971 19.5231 28.6084 19.5231 31.8945V60.5026H19.5618Z" fill="#3E4854"/>
<path d="M29.2267 24.5101C30.1545 27.5255 30.9277 29.0719 32.7833 31.6234L37.6158 26.559L31.5462 21.4946L29.2267 24.5101Z" fill="white"/>
<path d="M32.7833 32.2042C32.7447 32.2042 32.7447 32.2042 32.7833 32.2042C32.59 32.2042 32.4354 32.0882 32.3194 31.9722C30.4251 29.3433 29.6132 27.797 28.6854 24.7042C28.6468 24.5109 28.6468 24.3176 28.7627 24.2016L31.0436 21.1475C31.121 21.0315 31.2756 20.9542 31.4302 20.9156C31.5849 20.8769 31.7395 20.9542 31.8555 21.0315L37.9251 26.0959C38.041 26.2119 38.1184 26.3666 38.1184 26.5212C38.1184 26.6758 38.0797 26.8305 37.9637 26.9464L33.1313 32.0109C33.0926 32.1268 32.938 32.2042 32.7833 32.2042ZM29.8452 24.6269C30.6571 27.1784 31.3529 28.6088 32.822 30.6964L36.7266 26.5985L31.5849 22.3073L29.8452 24.6269Z" fill="#3E4854"/>
<path d="M46.4688 24.5101C45.8889 27.6028 45.0384 29.2652 42.9122 31.6234L38.0797 26.559L44.1493 21.4946L46.4688 24.5101Z" fill="white"/>
<path d="M42.9122 32.2035C42.7575 32.2035 42.6029 32.1262 42.4869 32.0102L37.6545 26.9458C37.5385 26.8298 37.4998 26.6752 37.4998 26.5205C37.4998 26.3659 37.5771 26.2112 37.6931 26.0953L43.7627 21.0309C43.8786 20.9149 44.0333 20.8762 44.1879 20.9149C44.3426 20.9149 44.4972 21.0309 44.5745 21.1468L46.8554 24.201C46.9714 24.3169 47.0101 24.5102 46.9714 24.6649C46.3529 27.8736 45.5024 29.6133 43.2988 32.0488C43.2214 32.1262 43.0668 32.1648 42.9122 32.2035ZM38.9302 26.5979L42.8735 30.7731C44.5745 28.8014 45.2704 27.3324 45.8116 24.6649L44.0333 22.3066L38.9302 26.5979Z" fill="#3E4854"/>
<path d="M31.5076 21.4562C36.2627 19.6005 39.4328 19.6005 44.1879 21.4562C42.9895 24.1624 40.9792 25.8247 38.1184 26.5206C34.8323 25.7861 33.054 24.433 31.5076 21.4562Z" fill="white"/>
<path d="M38.0797 27.1004C38.041 27.1004 38.0024 27.1004 37.9637 27.1004C34.523 26.2886 32.6287 24.8582 31.005 21.7267C30.9277 21.5721 30.9277 21.4174 30.9663 21.2628C31.005 21.1082 31.1596 20.9922 31.3143 20.9149C36.224 19.0206 39.5101 19.0206 44.4199 20.9149C44.5745 20.9535 44.6905 21.0695 44.7292 21.2242C44.8065 21.3788 44.7678 21.5334 44.7292 21.6881C43.4534 24.5875 41.3271 26.3272 38.2343 27.1004C38.1957 27.1004 38.157 27.1004 38.0797 27.1004ZM32.3194 21.7654C33.7112 24.1236 35.2962 25.2834 38.0797 25.9406C40.5153 25.3221 42.2549 23.969 43.3761 21.7654C39.2782 20.2577 36.4173 20.2577 32.3194 21.7654Z" fill="#3E4854"/>
<path d="M41.4431 45.9277C40.6699 45.9277 40.0127 45.3092 40.0127 44.4973C40.0127 43.7241 40.6312 43.0669 41.4431 43.0669C42.2163 43.0669 42.8735 43.6855 42.8735 44.4973C42.8735 45.3092 42.2163 45.9277 41.4431 45.9277ZM41.4431 44.2653C41.2885 44.2653 41.1725 44.3813 41.1725 44.536C41.1725 44.6906 41.2885 44.8066 41.4431 44.8066C41.5977 44.8066 41.7137 44.6906 41.7137 44.536C41.7137 44.3813 41.5977 44.2653 41.4431 44.2653Z" fill="#3E4854"/>
<path d="M41.4431 53.3887C40.6699 53.3887 40.0127 52.7701 40.0127 51.9582C40.0127 51.1464 40.6312 50.5278 41.4431 50.5278C42.2163 50.5278 42.8735 51.1464 42.8735 51.9582C42.8735 52.7701 42.2163 53.3887 41.4431 53.3887ZM41.4431 51.7263C41.2885 51.7263 41.1725 51.8423 41.1725 51.9969C41.1725 52.1515 41.2885 52.2675 41.4431 52.2675C41.5977 52.2675 41.7137 52.1515 41.7137 51.9969C41.7137 51.8423 41.5977 51.7263 41.4431 51.7263Z" fill="#3E4854"/>
<path d="M41.4431 38.5054C40.6699 38.5054 40.0127 37.8868 40.0127 37.0749C40.0127 36.2631 40.6312 35.6445 41.4431 35.6445C42.2163 35.6445 42.8735 36.2631 42.8735 37.0749C42.8735 37.8868 42.2163 38.5054 41.4431 38.5054ZM41.4431 36.843C41.2885 36.843 41.1725 36.959 41.1725 37.1136C41.1725 37.2682 41.2885 37.3842 41.4431 37.3842C41.5977 37.3842 41.7137 37.2682 41.7137 37.1136C41.7137 36.959 41.5977 36.843 41.4431 36.843Z" fill="#3E4854"/>
<path d="M38.6596 26.5205H37.4998V61.0822H38.6596V26.5205Z" fill="#3E4854"/>
<path d="M27.0231 34.0596H25.8633V61.0826H27.0231V34.0596Z" fill="#3E4854"/>
<path d="M49.3683 34.0596H48.2085V61.0826H49.3683V34.0596Z" fill="#3E4854"/>
<path d="M17.5514 16.585C19.5231 15.3092 24.3169 12.7963 35.9921 8.15719C36.7266 7.84791 37.4998 7.5773 38.2343 7.26802C37.5385 7.61596 36.8039 8.00255 36.0694 8.35049C24.8968 14.0334 19.8324 15.9664 17.5514 16.585ZM15.0772 17.5515C15.0772 17.5901 15.0772 17.6288 15.1159 17.6674C16.585 20.9148 54.394 0 54.394 0C54.394 0 14.7293 14.0721 15.0772 17.5515Z" fill="#3E4854"/>
<path d="M19.9097 16.1211C19.6777 16.1211 19.4844 16.0051 19.3685 15.7732C19.2525 15.4639 19.3685 15.1546 19.6777 15L21.8813 13.9948C22.1906 13.8788 22.4999 13.9948 22.6545 14.3041C22.7705 14.6133 22.6545 14.9226 22.3452 15.0773L20.1416 16.0824C20.0643 16.0824 19.987 16.1211 19.9097 16.1211Z" fill="#3E4854"/>
<path d="M51.8425 20.4511C47.358 20.4511 43.6853 16.7784 43.6853 12.2939C43.6853 7.80939 47.358 4.13672 51.8425 4.13672C56.327 4.13672 59.9997 7.80939 59.9997 12.2939C60.0383 16.7784 56.3657 20.4511 51.8425 20.4511ZM51.8425 5.25786C47.9765 5.25786 44.8451 8.38927 44.8451 12.2552C44.8451 16.1212 47.9765 19.2526 51.8425 19.2526C55.7085 19.2526 58.8399 16.1212 58.8399 12.2552C58.8786 8.42793 55.7085 5.25786 51.8425 5.25786Z" fill="#3E4854"/>
<path d="M51.8425 18.6727C48.3245 18.6727 45.4637 15.8119 45.4637 12.2939C45.4637 8.77585 48.3245 5.91504 51.8425 5.91504C55.3605 5.91504 58.2214 8.77585 58.2214 12.2939C58.26 15.8119 55.3992 18.6727 51.8425 18.6727ZM51.8425 7.03615C48.943 7.03615 46.6235 9.39439 46.6235 12.2552C46.6235 15.1547 48.9817 17.4742 51.8425 17.4742C54.742 17.4742 57.0616 15.116 57.0616 12.2552C57.1002 9.39439 54.742 7.03615 51.8425 7.03615Z" fill="#3E4854"/>
<path d="M51.8425 15.8894C52.483 15.8894 53.0023 15.3701 53.0023 14.7296C53.0023 14.0891 52.483 13.5698 51.8425 13.5698C51.202 13.5698 50.6827 14.0891 50.6827 14.7296C50.6827 15.3701 51.202 15.8894 51.8425 15.8894Z" fill="#3E4854"/>
<path d="M51.8425 11.0183C52.483 11.0183 53.0023 10.4991 53.0023 9.85852C53.0023 9.21799 52.483 8.69873 51.8425 8.69873C51.202 8.69873 50.6827 9.21799 50.6827 9.85852C50.6827 10.4991 51.202 11.0183 51.8425 11.0183Z" fill="#3E4854"/>
<path d="M49.4069 13.4534C50.0475 13.4534 50.5667 12.9341 50.5667 12.2936C50.5667 11.653 50.0475 11.1338 49.4069 11.1338C48.7664 11.1338 48.2472 11.653 48.2472 12.2936C48.2472 12.9341 48.7664 13.4534 49.4069 13.4534Z" fill="#3E4854"/>
<path d="M54.2781 13.4534C54.9186 13.4534 55.4379 12.9341 55.4379 12.2936C55.4379 11.653 54.9186 11.1338 54.2781 11.1338C53.6375 11.1338 53.1183 11.653 53.1183 12.2936C53.1183 12.9341 53.6375 13.4534 54.2781 13.4534Z" fill="#3E4854"/>
<path d="M8.15718 50.4515C3.67266 50.4515 0 46.7789 0 42.2944C0 37.8099 3.67266 34.1372 8.15718 34.1372C12.6417 34.1372 16.3143 37.8099 16.3143 42.2944C16.3143 46.7789 12.6803 50.4515 8.15718 50.4515ZM8.15718 35.2583C4.29122 35.2583 1.15979 38.3898 1.15979 42.2557C1.15979 46.1217 4.29122 49.2531 8.15718 49.2531C12.0231 49.2531 15.1546 46.1217 15.1546 42.2557C15.1546 38.3898 12.0231 35.2583 8.15718 35.2583Z" fill="#3E4854"/>
<path d="M8.15718 48.6738C4.63916 48.6738 1.77835 45.813 1.77835 42.2563C1.77835 38.7383 4.63916 35.8774 8.15718 35.8774C11.6752 35.8774 14.536 38.7383 14.536 42.2563C14.536 45.813 11.6752 48.6738 8.15718 48.6738ZM8.15718 37.0372C5.25771 37.0372 2.93814 39.3955 2.93814 42.2563C2.93814 45.1557 5.25771 47.514 8.15718 47.514C11.0567 47.514 13.3762 45.1557 13.3762 42.2949C13.3762 39.3955 11.0567 37.0372 8.15718 37.0372Z" fill="#3E4854"/>
<path d="M8.15716 45.8508C8.7977 45.8508 9.31695 45.3316 9.31695 44.691C9.31695 44.0505 8.7977 43.5312 8.15716 43.5312C7.51663 43.5312 6.99738 44.0505 6.99738 44.691C6.99738 45.3316 7.51663 45.8508 8.15716 45.8508Z" fill="#3E4854"/>
<path d="M8.15716 40.9802C8.7977 40.9802 9.31695 40.461 9.31695 39.8204C9.31695 39.1799 8.7977 38.6606 8.15716 38.6606C7.51663 38.6606 6.99738 39.1799 6.99738 39.8204C6.99738 40.461 7.51663 40.9802 8.15716 40.9802Z" fill="#3E4854"/>
<path d="M5.72162 43.4153C6.36215 43.4153 6.8814 42.896 6.8814 42.2555C6.8814 41.615 6.36215 41.0957 5.72162 41.0957C5.08108 41.0957 4.56183 41.615 4.56183 42.2555C4.56183 42.896 5.08108 43.4153 5.72162 43.4153Z" fill="#3E4854"/>
<path d="M10.5927 43.4153C11.2333 43.4153 11.7525 42.896 11.7525 42.2555C11.7525 41.615 11.2333 41.0957 10.5927 41.0957C9.95221 41.0957 9.43295 41.615 9.43295 42.2555C9.43295 42.896 9.95221 43.4153 10.5927 43.4153Z" fill="#3E4854"/>
<path d="M7.80925 44.4976C6.37885 37.4229 9.81955 29.5749 16.4303 24.9358C16.7396 24.7038 17.0489 24.5106 17.3968 24.2786C19.7551 22.6549 22.2293 20.9925 22.3066 18.441C22.3839 16.0827 20.2963 14.3431 19.3685 13.6859C15.5025 10.9024 10.0515 10.4771 5.79896 12.6807L5.25772 11.6369C9.89687 9.27866 15.8118 9.70391 20.0257 12.758C22.2679 14.3817 23.5051 16.4693 23.4277 18.5183C23.3118 21.6497 20.4896 23.5827 17.9767 25.2837C17.6675 25.5157 17.3195 25.709 17.0102 25.941C10.8634 30.2322 7.53864 37.8094 8.85306 44.3429L7.80925 44.4976Z" fill="#3E4854"/>
</svg>
