<svg width="41" height="43" viewBox="0 0 41 43" fill="none" xmlns="http://www.w3.org/2000/svg">
<path d="M33.7965 6.75376C32.4828 6.82883 31.165 6.72341 29.8799 6.44042C28.3297 5.90962 26.8799 5.12182 25.5911 4.11001C24.4886 3.32841 23.4416 2.47121 22.4578 1.54459C22.0407 1.15499 21.4912 0.938293 20.9205 0.938293C20.3497 0.938293 19.8003 1.15499 19.3832 1.54459C18.4255 2.44191 17.4187 3.2853 16.3674 4.07084C15.0706 5.09596 13.6154 5.90293 12.059 6.46001C10.5953 6.79075 9.09156 6.90946 7.59403 6.81251C6.36783 6.76173 5.14531 6.64406 3.93194 6.46001C3.63544 6.41605 3.33313 6.43225 3.04302 6.50765C2.75292 6.58304 2.48097 6.71608 2.24338 6.89884C2.0058 7.08159 1.80745 7.31032 1.66017 7.57138C1.51288 7.83244 1.41968 8.12048 1.38611 8.41834C1.28819 9.35834 1.03361 11.8063 0.916108 14.5283C0.751443 17.248 0.922453 19.9776 1.42528 22.6554C2.84319 27.092 5.45102 31.0545 8.96486 34.1117C11.7578 36.7461 14.7863 39.1191 18.0124 41.2008C18.8769 41.7945 19.9011 42.1122 20.9499 42.1122C21.9986 42.1122 23.0228 41.7945 23.8874 41.2008C26.9423 39.0648 29.7999 36.6595 32.4257 34.0138C35.7338 30.9342 38.1837 27.0468 39.5344 22.7338" stroke="black" stroke-width="1.5" stroke-linecap="round" stroke-linejoin="round"/>
<path d="M18.541 19.5417L24.1418 25.1425C24.1767 25.1805 24.2191 25.2108 24.2663 25.2316C24.3135 25.2523 24.3645 25.263 24.416 25.263C24.4676 25.263 24.5186 25.2523 24.5658 25.2316C24.613 25.2108 24.6553 25.1805 24.6902 25.1425L40.0827 9.75" stroke="black" stroke-width="1.5" stroke-linecap="round" stroke-linejoin="round"/>
</svg>
