<svg width="57" height="57" viewBox="0 0 57 57" fill="none" xmlns="http://www.w3.org/2000/svg">
<g clip-path="url(#clip0)">
<path d="M37.4062 44.5312C36.9338 44.5312 36.4808 44.7189 36.1467 45.053C35.8127 45.387 35.625 45.8401 35.625 46.3125V48.4678C35.625 49.7859 35.1014 51.0499 34.1694 51.9819C33.2374 52.9139 31.9734 53.4375 30.6553 53.4375H12.0947C10.7766 53.4375 9.51258 52.9139 8.58059 51.9819C7.64859 51.0499 7.125 49.7859 7.125 48.4678V44.5312C7.125 44.0588 6.93733 43.6058 6.60328 43.2717C6.26923 42.9377 5.81617 42.75 5.34375 42.75C4.87133 42.75 4.41827 42.9377 4.08422 43.2717C3.75017 43.6058 3.5625 44.0588 3.5625 44.5312V48.4678C3.56721 50.7292 4.46764 52.8967 6.06672 54.4958C7.66579 56.0949 9.83326 56.9953 12.0947 57H30.6553C32.9167 56.9953 35.0842 56.0949 36.6833 54.4958C38.2824 52.8967 39.1828 50.7292 39.1875 48.4678V46.3125C39.1875 45.8401 38.9998 45.387 38.6658 45.053C38.3317 44.7189 37.8787 44.5312 37.4062 44.5312Z" fill="black" stroke="white" stroke-width="2.5"/>
<path d="M30.6553 -2.05418e-05H12.4688C11.3178 -0.0480181 10.1691 0.137046 9.09146 0.544062C8.01385 0.951078 7.02959 1.57165 6.19778 2.36853C5.36596 3.1654 4.70376 4.12214 4.2509 5.18132C3.79805 6.24049 3.5639 7.38025 3.5625 8.53217V37.4062C3.5625 37.8786 3.75017 38.3317 4.08422 38.6658C4.41827 38.9998 4.87133 39.1875 5.34375 39.1875C5.81617 39.1875 6.26923 38.9998 6.60328 38.6658C6.93733 38.3317 7.125 37.8786 7.125 37.4062V8.53217C7.1282 7.46378 7.47686 6.42508 8.11893 5.57113C8.76099 4.71719 9.66202 4.0938 10.6875 3.79404V5.34373C10.6875 6.76098 11.2505 8.12018 12.2526 9.12233C13.2548 10.1245 14.614 10.6875 16.0312 10.6875H26.7188C28.136 10.6875 29.4952 10.1245 30.4974 9.12233C31.4995 8.12018 32.0625 6.76098 32.0625 5.34373V3.79404C33.088 4.0938 33.989 4.71719 34.6311 5.57113C35.2731 6.42508 35.6218 7.46378 35.625 8.53217V17.8125C35.625 18.2849 35.8127 18.738 36.1467 19.072C36.4808 19.4061 36.9338 19.5937 37.4062 19.5937C37.8787 19.5937 38.3317 19.4061 38.6658 19.072C38.9998 18.738 39.1875 18.2849 39.1875 17.8125V8.53217C39.1828 6.27074 38.2824 4.10327 36.6833 2.5042C35.0842 0.905122 32.9167 0.00468589 30.6553 -2.05418e-05V-2.05418e-05ZM28.5 5.34373C28.5 5.81615 28.3123 6.26921 27.9783 6.60326C27.6442 6.93731 27.1912 7.12498 26.7188 7.12498H16.0312C15.5588 7.12498 15.1058 6.93731 14.7717 6.60326C14.4377 6.26921 14.25 5.81615 14.25 5.34373V3.56248H28.5V5.34373Z" fill="black" stroke="white" stroke-width="2.5"/>
<path d="M48.2184 16.0312H23.1562C23.1562 15.5588 22.9686 15.1058 22.6345 14.7717C22.3005 14.4377 21.8474 14.25 21.375 14.25C20.9026 14.25 20.4495 14.4377 20.1155 14.7717C19.7814 15.1058 19.5938 15.5588 19.5938 16.0312V48.0938C19.5938 48.5662 19.7814 49.0192 20.1155 49.3533C20.4495 49.6873 20.9026 49.875 21.375 49.875C21.8474 49.875 22.3005 49.6873 22.6345 49.3533C22.9686 49.0192 23.1562 48.5662 23.1562 48.0938H48.2184C49.6026 48.0938 50.9301 47.5439 51.9089 46.5651C52.8876 45.5864 53.4375 44.2589 53.4375 42.8747V21.2503C53.4375 19.8661 52.8876 18.5386 51.9089 17.5599C50.9301 16.5811 49.6026 16.0312 48.2184 16.0312ZM48.2184 19.5938C48.6578 19.5938 49.0791 19.7683 49.3898 20.0789C49.7005 20.3896 49.875 20.811 49.875 21.2503V23.1562H23.1562V19.5938H48.2184ZM49.875 30.2812H23.1562V26.7188H49.875V30.2812ZM48.2184 44.5312H23.1562V33.8438H49.875V42.8747C49.875 43.314 49.7005 43.7354 49.3898 44.0461C49.0791 44.3567 48.6578 44.5312 48.2184 44.5312Z" fill="black" stroke="white" stroke-width="2.5"/>
<path d="M44.5312 37.4062H39.1875C38.7151 37.4062 38.262 37.5939 37.928 37.928C37.5939 38.262 37.4062 38.7151 37.4062 39.1875C37.4062 39.6599 37.5939 40.113 37.928 40.447C38.262 40.7811 38.7151 40.9688 39.1875 40.9688H44.5312C45.0037 40.9688 45.4567 40.7811 45.7908 40.447C46.1248 40.113 46.3125 39.6599 46.3125 39.1875C46.3125 38.7151 46.1248 38.262 45.7908 37.928C45.4567 37.5939 45.0037 37.4062 44.5312 37.4062Z" fill="black" stroke="white" stroke-width="2.5"/>
</g>
<defs>
<clipPath id="clip0">
<rect width="57" height="57" fill="white"/>
</clipPath>
</defs>
</svg>
