<svg width="54" height="62" viewBox="0 0 54 62" fill="none" xmlns="http://www.w3.org/2000/svg">
<path d="M25.9917 41.6825H19.2282C18.6262 36.0522 18.3075 35.3439 17.7764 33.6442C17.4223 32.5111 17.0681 31.3779 16.9619 30.5635C16.8557 29.4657 16.8557 27.1994 17.1744 26.1017C17.4931 25.0039 18.5908 23.3396 19.1928 22.4897L27.6914 22.7022C27.8685 23.3396 28.4351 25.181 28.5413 25.9246C28.8246 26.9515 29.0371 29.2887 28.7538 30.6343C28.5767 31.7674 27.7623 33.6442 27.2665 34.7774C26.4521 37.327 26.4167 37.6811 26.3104 38.0352C26.2042 38.3185 25.9209 40.4431 25.9209 41.1514L25.9917 41.6825ZM20.1843 40.6202H24.9294C25.0002 39.6641 25.2127 38.106 25.3543 37.6811C25.5314 36.8312 26.1688 34.742 26.3104 34.3879L26.4875 33.9629C27.1957 32.2986 27.5498 31.3779 27.7269 30.3864C27.9747 29.2887 27.7977 27.0578 27.5144 26.1725C27.4436 25.8184 27.4082 25.5705 26.877 23.7291L19.724 23.5521C19.2636 24.2603 18.4138 25.6059 18.1659 26.385C17.8826 27.3411 17.8826 29.4657 17.9888 30.4572C18.0597 31.1654 18.4138 32.334 18.7325 33.3609C19.3699 35.1315 19.6177 35.8397 20.1843 40.6202Z" fill="#3E4854"/>
<path d="M26.7353 61.6189C25.9563 61.5834 25.3189 60.3087 25.2481 60.167C25.071 59.8129 24.6815 58.8922 24.5753 58.361C24.5044 57.8653 24.5753 57.1217 24.5753 56.4489C24.5753 54.2534 24.5753 53.8284 24.5753 53.793C24.5398 53.3681 24.469 52.5182 24.3982 52.1287C24.3274 51.8808 24.1857 51.4913 24.0441 51.1372C23.7608 50.4644 23.7962 50.5352 23.1588 48.5168C22.9109 47.7023 22.7693 47.419 22.5568 46.5338C21.9194 43.9133 21.9903 43.8779 21.9903 40.6201H25.8855C26.5229 42.851 26.6645 43.0281 26.8416 43.3822C27.0894 44.1258 27.3727 45.1527 27.479 45.7193C27.5852 46.3213 27.5852 47.3482 27.5498 47.8794C27.5144 48.2335 27.479 48.623 27.4081 49.0125C27.1603 50.6769 27.1248 51.5267 27.5498 53.5806C27.5852 53.6868 27.5852 53.8638 27.6206 54.0055C27.6914 54.5366 27.6914 54.6429 27.9393 55.2095C28.1164 55.6698 28.1164 55.6698 28.1872 56.2364C28.3642 57.4758 28.2226 56.3426 28.7184 58.5735V58.6443C28.7184 59.3525 28.258 60.8044 27.7977 61.0523C27.7977 61.0523 27.7268 61.0877 27.6914 61.1585C27.3727 61.371 27.0894 61.6189 26.7353 61.6189ZM23.0172 41.6824C23.0172 43.7009 22.9818 43.8779 23.5483 46.2859C23.7608 47.1357 23.867 47.3836 24.1149 48.1981C24.3628 49.0479 24.6107 49.7562 24.7523 50.1811C24.894 50.606 25.2835 51.4205 25.3897 51.8808C25.4959 52.3766 25.6022 53.3327 25.6022 53.7576C25.6022 53.8638 25.6022 56.5197 25.6022 57.0862C25.6022 57.4404 25.5668 57.9361 25.6022 58.184C25.673 58.5381 25.9917 59.3171 26.1688 59.7067C26.3104 59.9899 26.5937 60.3441 26.7353 60.5211C26.8416 60.4149 26.9832 60.2732 27.0894 60.2024C27.2311 59.9899 27.5144 59.2109 27.5498 58.6797C27.1248 56.7675 27.2311 57.6882 27.0186 56.378C26.9478 55.9177 26.9832 55.9885 26.8061 55.599C26.5583 54.9616 26.4875 54.7491 26.4166 54.1117C26.4166 54.0055 26.3812 53.8993 26.3812 53.793C26.275 53.2973 26.0979 52.2703 26.0625 51.7392C25.9209 50.004 26.3104 48.8001 26.3812 47.8086C26.4166 47.3128 26.3812 46.3567 26.3104 45.8964C26.2396 45.5068 26.0271 44.7632 25.7084 43.7717C25.4959 43.3114 25.1418 42.2844 24.9648 41.7179H23.0172V41.6824Z" fill="#3E4854"/>
<path d="M24.5753 55.6695C24.5045 55.3862 24.1503 54.678 24.0441 54.4301C23.9379 54.1823 23.4067 52.8012 23.3713 52.3763C23.2297 51.1723 23.2297 51.8451 23.2651 50.0392C23.2651 49.9683 23.2651 49.8975 23.2651 49.7913C23.2651 49.1893 23.3005 49.2955 23.0526 48.2686L24.0795 48.0562C24.3628 49.3664 24.292 49.1185 24.292 50.0392C24.292 51.7743 24.292 51.0661 24.3982 52.2701C24.4336 52.4471 24.7877 53.5803 25.1064 54.2531C25.2835 54.6426 25.496 55.1029 25.6022 55.4216L24.5753 55.6695Z" fill="#3E4854"/>
<path d="M23.3004 61.2645C23.0172 61.0166 22.5922 60.7688 22.4152 60.4146C22.3089 60.2376 22.0257 59.6002 21.9548 59.2815C21.884 58.8212 21.9548 58.2546 21.9548 57.7234C21.9194 56.2716 21.8132 56.3778 21.9902 55.5987C22.0257 55.4217 22.0611 55.2446 22.0611 55.103C21.9548 53.3679 22.0611 53.6157 21.5653 52.3409C21.3174 51.7035 20.7863 50.8183 20.2905 49.2956C20.1843 48.9415 19.8302 48.2687 19.7239 47.8437C19.5115 47.0647 19.1928 45.2233 19.1928 44.1964C19.1928 42.4613 19.2282 42.4967 19.1219 40.5845H22.4152V41.6468H20.2197C20.3259 43.8069 20.1489 44.0902 20.3613 45.6483C20.4322 46.1086 20.6092 47.1709 20.7154 47.5959C20.7509 47.7729 20.8925 48.0562 20.9987 48.3041C21.4591 49.4018 21.3883 49.5435 22.0965 51.0661C23.0172 53.0492 22.9818 53.4033 23.0172 54.2885C23.0526 55.2446 23.088 55.2446 22.9463 55.8466C22.8401 56.2361 22.8755 56.2361 22.8755 56.5548C22.9463 57.7234 22.9463 57.9005 22.9109 58.3608C22.9109 58.6441 22.8755 58.9274 22.9109 59.069C22.9463 59.2107 23.1588 59.7064 23.265 59.8835C23.3004 59.9543 23.5837 60.1668 23.69 60.2376C23.8316 60.3438 23.9733 60.4855 24.1149 60.5563C24.1857 60.4855 24.3274 60.3438 24.5044 60.0605C24.6107 59.9189 24.7523 59.5648 24.7877 59.4586L25.8146 59.671C25.7438 59.9897 25.4959 60.4501 25.3543 60.6271C25.0356 61.0875 24.6815 61.5478 24.2211 61.6186C23.9733 61.7603 23.5837 61.5124 23.3004 61.2645Z" fill="#3E4854"/>
<path d="M17.7055 16.3989C17.918 16.6114 18.095 17.178 18.2367 17.4258C18.4846 17.9924 19.3698 20.0462 19.4761 20.6482C19.5469 21.0732 19.5469 21.923 19.4761 22.3125C19.4053 22.7375 19.0511 23.5873 18.8387 23.9769C18.6616 24.3664 18.1659 25.0392 17.9888 25.4287C17.9534 25.535 17.7055 26.2786 17.7055 26.2786C17.7055 26.2786 18.7324 26.7035 19.0157 26.7389C19.4052 26.8097 20.2905 26.8098 20.68 26.8452C21.0696 26.8806 21.6715 26.8452 22.0257 26.7035C22.1673 26.6327 22.5214 26.4202 22.6631 26.3494C22.8401 26.2078 23.1234 25.7828 23.3005 25.6412C23.4067 25.535 23.7254 25.2163 23.7254 25.2163C23.7254 25.2163 24.1503 26.0307 24.3628 26.2432C24.5753 26.4911 25.1064 26.8452 25.3897 26.9868C25.7084 27.1285 26.4166 27.1639 26.7353 27.1993C27.0894 27.2347 28.258 27.4471 28.258 27.4471C28.258 27.4471 28.2226 26.2432 28.1872 25.9245C28.1518 25.6766 28.0455 25.1454 27.9747 24.8976C27.8331 24.4726 27.5498 23.5519 27.3373 23.1624C27.1957 22.8791 26.6999 22.4188 26.6291 22.1001C26.5583 21.8522 26.5937 21.321 26.6291 21.0732C26.6645 20.7191 26.9478 20.0462 27.054 19.7275C27.1603 19.3734 27.2311 18.9839 27.3019 18.5944C27.3727 18.2403 27.8685 16.5051 28.0101 15.7615C28.0455 15.4782 27.7623 14.7346 28.0101 14.6284C28.2226 14.5221 28.5767 14.9825 28.7538 15.1595C28.9662 15.4074 29.1787 16.0448 29.3912 16.2927C29.5682 16.5406 30.0286 16.8947 30.1702 17.1425C30.3473 17.3904 30.7014 18.3111 30.6305 18.5944C30.5597 18.8777 30.1702 19.3734 29.9577 19.5859C29.5682 19.9754 28.3996 21.144 28.3996 21.144C28.7892 22.0293 28.7538 22.0293 29.639 23.6582C29.639 23.6582 30.4535 23.0208 30.7722 22.8083C31.2679 22.525 31.9762 21.7106 32.4011 21.3565C32.5427 21.2502 32.9323 20.5066 33.0739 20.3649C33.3218 20.1171 33.7821 19.4797 33.853 19.1256C33.9238 18.8069 33.5697 18.2049 33.428 17.8862C33.251 17.4612 32.9323 16.6468 32.7198 16.2573C32.5427 15.9386 32.0824 15.4074 31.9053 15.0887C31.7283 14.8054 31.445 14.1326 31.2679 13.8493C31.0201 13.4598 30.4535 12.6808 30.241 12.2912C30.064 12.0079 29.8161 11.406 29.6036 11.1581C29.4266 10.9102 29.0016 10.4853 28.7538 10.3082C28.5767 10.1666 28.1518 9.9541 27.9039 9.88328C27.6206 9.81246 27.054 9.91869 26.7707 9.88328C26.5229 9.84787 26.0625 9.74164 25.8146 9.67082C25.6376 9.6 25.3189 9.49376 25.1772 9.35212C25.071 9.24588 25.0002 8.85636 24.8585 8.71472C24.7169 8.57307 24.1149 8.36061 24.1149 8.36061C24.1149 8.36061 24.0087 8.85636 24.0087 9.03342C23.9733 9.49376 24.0795 10.4499 24.0087 10.9102C23.9733 11.2643 23.7254 11.9371 23.5838 12.2558C23.4775 12.5745 23.4067 13.4244 23.0526 13.4952C22.8755 13.5306 22.6631 13.1057 22.5214 12.964C22.2735 12.6453 21.8486 11.9725 21.6715 11.6184C21.4945 11.2997 21.282 10.5915 21.1404 10.2728C21.0696 10.0957 20.8925 9.74164 20.8217 9.52917C20.7155 9.17506 20.9279 8.11273 20.3613 8.3252C20.2551 8.36061 20.0781 8.60849 20.0072 8.67931C19.7948 8.92719 19.4407 9.42294 19.2282 9.67082C19.0865 9.84787 18.7678 10.202 18.5554 10.3436C18.3783 10.4499 17.9534 10.6269 17.7055 10.6623C17.5285 10.6977 17.1744 10.8394 17.0327 10.9102C16.7848 11.0873 16.3953 11.5476 16.1828 11.7601C15.8996 12.0434 15.3684 12.5745 15.0851 12.8578C14.731 13.2119 14.129 13.991 13.7749 14.3805C13.3854 14.8054 12.5355 15.5845 12.146 16.0094C11.7211 16.4697 11.1899 17.2488 10.8004 17.7445C10.5879 18.0278 10.0922 18.6298 9.95051 18.9839C9.9151 19.1256 9.9151 19.4443 9.95051 19.6213C9.98592 19.7984 10.163 20.1525 10.3046 20.3295C10.5171 20.6482 10.8358 21.321 11.0837 21.6043C11.4024 21.9584 12.0043 22.6667 12.323 23.0208C12.6772 23.3749 13.35 24.0477 13.7749 24.2602C14.0228 24.3664 14.8018 24.4726 14.8018 24.4726C15.1913 23.6228 14.9081 24.1185 16.1474 22.1709C15.935 22.0647 15.51 21.746 15.2976 21.6043C14.9789 21.3919 14.3061 21.0023 14.0582 20.7191C13.8457 20.5066 13.4208 19.9754 13.3146 19.6921C13.2791 19.5859 13.2791 19.3734 13.3146 19.2672C13.4208 18.9839 13.8457 18.559 14.0582 18.3111C15.1559 17.0717 15.2267 17.1425 16.9619 16.3281C17.3514 16.2927 17.7055 16.3989 17.7055 16.3989Z" fill="white"/>
<path d="M28.86 28.1551C28.5059 28.0843 27.1249 27.801 26.7354 27.7656C26.1688 27.7302 25.5668 27.6593 25.2127 27.5177C24.8232 27.376 24.2212 26.9157 23.9733 26.6678C23.8671 26.5616 23.7254 26.3491 23.6192 26.1367C23.4421 26.3137 23.2297 26.6324 23.0172 26.8095C22.8756 26.9157 22.4506 27.1636 22.2736 27.2344C21.8132 27.4469 21.105 27.4823 20.6447 27.4115C20.503 27.4115 20.2906 27.3761 20.0427 27.3761C18.8741 27.3406 18.9449 27.376 17.0327 26.597C17.4931 25.1097 17.4577 25.216 17.9534 24.3661C18.0951 24.1182 18.2367 23.9058 18.3075 23.7287C18.5554 23.1975 18.8387 22.4893 18.8741 22.206C18.9449 21.8873 18.9449 21.0729 18.8741 20.7188C18.7679 20.0814 17.7055 17.7088 17.5639 17.3547C17.5285 17.2131 17.4223 17.0006 17.3514 16.859H17.316C15.333 17.7797 15.6517 17.5672 14.4477 18.842C14.3415 18.9836 14.0228 19.3378 13.952 19.444C13.952 19.444 13.952 19.5148 13.952 19.5502C13.9874 19.6919 14.3061 20.1168 14.554 20.3647C14.6956 20.5063 15.0851 20.7896 15.3684 20.9667C16.3599 21.6041 15.8996 21.427 16.9973 21.9936C15.4038 24.4723 15.7579 23.7995 15.1914 25.0743C14.8018 25.0389 13.952 24.9327 13.5979 24.7556C13.1729 24.5432 12.6418 24.0474 12.1106 23.5163C11.7565 23.1621 11.6148 23.0205 11.2253 22.5602C10.5525 21.7811 10.5879 21.9227 10.163 21.1083C10.0568 20.9312 9.98594 20.7542 9.87971 20.648C9.73806 20.4709 9.52559 20.046 9.45477 19.7627C9.41936 19.5502 9.38395 19.1253 9.45477 18.8774C9.59641 18.3817 10.1276 17.8151 10.765 16.9298C11.544 15.8321 11.6503 15.7612 12.5355 14.9114C14.3769 13.1054 13.6333 13.5658 15.4746 11.7598C15.8642 11.3703 15.8288 11.4057 16.0058 11.2286C16.2183 10.9807 16.5016 10.6975 16.714 10.5558C16.9265 10.4142 17.3514 10.2725 17.5993 10.2017C17.7764 10.1663 18.1305 10.0246 18.2367 9.95382C18.3429 9.883 18.6616 9.5643 18.7679 9.42266C18.9095 9.2456 19.0157 9.10396 19.1928 8.89149C19.5115 8.46656 19.5115 8.50197 19.6532 8.28951C19.7948 8.11245 19.9718 7.9354 20.1489 7.86458C20.326 7.79375 20.6801 7.72293 20.9634 7.9354C21.2821 8.21868 21.3175 8.67903 21.3175 9.06855C21.3175 9.17478 21.3175 9.31643 21.3529 9.38725C21.3883 9.49348 21.6008 9.95382 21.6362 10.0601C21.7424 10.3433 21.9903 11.1224 22.1319 11.3703C22.2736 11.689 22.6631 12.291 22.911 12.6097C22.9464 12.3972 22.9818 12.2201 23.0526 12.0431C23.4775 10.8391 23.4775 10.8391 23.4421 9.84759C23.4067 8.8915 23.4067 8.99773 23.6546 7.6167C24.0795 7.75834 24.894 8.04163 25.1773 8.32492C25.3543 8.50197 25.3897 8.71444 25.496 8.96232C25.8147 9.13937 26.3812 9.28102 26.7354 9.31643C26.8062 9.31643 26.9832 9.31643 27.1249 9.31643C27.4082 9.31643 27.6915 9.28102 27.9393 9.35184C28.2934 9.42266 28.7892 9.70595 28.9662 9.84759C29.2495 10.0601 29.7099 10.5204 29.9223 10.8037C30.1702 11.1578 30.3827 11.6536 30.5952 12.0077C30.7014 12.1847 30.8784 12.4326 31.0555 12.7159C31.6575 13.5657 31.6575 13.6012 31.9408 14.2386C32.2241 14.876 32.2241 14.8405 32.6136 15.3363C32.7906 15.5842 32.9677 15.8321 33.0739 16.0091C33.3926 16.5757 33.7467 17.5672 33.9238 17.9567C34.1008 18.3462 34.3487 18.842 34.2425 19.2315C34.1363 19.8689 33.3572 20.7188 33.3572 20.7188C33.3218 20.7542 33.2156 20.9312 33.1448 21.0729C32.6844 21.7811 32.8261 21.5686 32.1887 22.206C31.7991 22.5956 31.3388 23.0559 30.9847 23.2684C30.6306 23.4808 29.7099 24.1891 29.3912 24.4369C28.1872 22.206 28.258 22.3477 27.8331 21.3208L27.6914 21.0021L29.4974 19.1961C29.7453 18.9482 29.9932 18.5941 30.0286 18.4879C30.0286 18.3462 29.7807 17.638 29.6391 17.4256C29.6036 17.3547 29.4266 17.1777 29.2849 17.036C29.1079 16.859 28.9663 16.7173 28.86 16.5757C28.7538 16.434 28.6476 16.2216 28.5413 15.9737C28.5059 15.9383 28.5059 15.8675 28.4705 15.7966C28.3997 16.2924 28.1164 17.3901 27.9747 17.9213C27.656 19.0545 27.7623 18.9482 27.5144 19.8335C27.479 19.9751 27.4082 20.1876 27.3373 20.4001C27.2311 20.648 27.1249 20.9667 27.1249 21.1437C27.0895 21.3916 27.0895 21.8519 27.1249 21.9936C27.1603 22.0644 27.3373 22.3123 27.4436 22.4185C27.5852 22.5956 27.7269 22.7726 27.8331 22.9497C28.081 23.4454 28.4351 24.5432 28.5059 24.7556C28.6121 25.0743 28.7184 25.6409 28.7538 25.8888C28.7892 26.2075 28.8246 27.3761 28.8246 27.4115L28.86 28.1551ZM23.8671 24.3307C24.0087 24.5786 24.5753 25.7471 24.7523 25.9242C24.9294 26.1013 25.3897 26.4554 25.6022 26.5262C25.8501 26.6324 26.5583 26.6678 26.8062 26.7032C27.0186 26.7032 27.4082 26.7741 27.7269 26.8449C27.7269 26.5262 27.6914 26.1721 27.6914 26.0304C27.656 25.7825 27.5852 25.2868 27.5144 25.1097C27.3373 24.5078 27.0541 23.7641 26.9124 23.4454C26.877 23.3746 26.7708 23.233 26.6645 23.0913C26.4521 22.808 26.2396 22.5602 26.1688 22.2415C26.0625 21.8873 26.1334 21.2499 26.1688 21.0021C26.2042 20.7542 26.3104 20.4001 26.4521 20.0814C26.5583 19.7627 26.6291 19.6564 26.8416 18.5233C26.877 18.3108 27.1249 17.5318 27.2311 17.036C27.3373 16.6465 27.479 15.9737 27.5498 15.6904C27.5498 15.655 27.5144 15.5134 27.5144 15.4071C27.4436 15.0176 27.3373 14.4156 27.8331 14.1323C28.3643 13.849 28.8246 14.3448 29.2141 14.7697C29.3912 14.9468 29.5328 15.2655 29.6391 15.5488C29.7099 15.7258 29.8161 15.9029 29.8515 15.9737C29.8869 16.0445 30.0286 16.1862 30.1702 16.2924C30.3473 16.4694 30.5597 16.6819 30.666 16.859C30.7722 17.036 31.3034 18.1338 31.1971 18.7004C31.0909 19.2315 30.4181 19.9397 30.3827 19.9752L29.0725 21.2854C29.3204 21.8165 29.2849 21.8165 29.8515 22.8788C30.0994 22.7018 30.3827 22.4893 30.5597 22.3831C30.9493 22.1352 31.6575 21.3562 32.0824 20.9667C32.1178 20.9312 32.2595 20.6834 32.3657 20.5417C32.5074 20.2938 32.6136 20.1522 32.6844 20.046C32.9677 19.7627 33.2864 19.2315 33.3218 19.0545C33.3218 18.9128 32.9677 18.24 32.9323 18.0984C32.3303 16.5403 32.1532 16.3986 31.87 15.9737C31.445 15.4071 31.445 15.3717 31.0909 14.6989C30.8076 14.1323 30.843 14.1323 30.2765 13.3179C29.7807 12.5742 29.7453 12.5388 29.5328 12.0785C29.4266 11.866 29.2849 11.5827 29.1787 11.4765C29.0371 11.264 28.6476 10.8745 28.4705 10.7683C28.2934 10.662 27.9393 10.4496 27.8331 10.4496C27.7623 10.4142 27.479 10.4496 27.3373 10.4496C27.1249 10.4496 26.9124 10.485 26.7708 10.4496C26.2396 10.3788 25.2481 10.1309 24.894 9.77677C24.7877 9.67054 24.7169 9.49348 24.6461 9.35184C24.6461 10.9099 24.8586 10.7329 24.2212 12.468C24.0795 12.8575 24.0441 13.9553 23.3005 14.0969C22.8047 14.2032 22.5214 13.7428 22.3444 13.4949C22.309 13.4595 22.309 13.4241 22.2736 13.3887C21.9903 13.0346 21.5653 12.3264 21.3529 11.9368C21.1758 11.5827 20.9634 10.9099 20.8217 10.5558C20.5738 9.98924 20.4676 9.91842 20.4322 9.31643C20.2551 9.5289 19.9718 9.95382 19.7948 10.1309C19.5823 10.3788 19.2636 10.7329 19.0157 10.9099C18.7679 11.087 18.2721 11.264 17.9888 11.2994C17.8826 11.3349 17.5993 11.4411 17.4931 11.4765C17.3868 11.5473 17.139 11.8306 16.9973 11.9723C16.2537 12.7867 16.1829 12.7159 15.0497 14.0615C14.4123 14.8405 14.3769 14.876 13.527 15.6904C12.1814 17.0006 12.6064 16.6465 11.4732 18.1338C11.2961 18.3462 10.8004 18.9836 10.7296 19.2315C10.7296 19.3023 10.7296 19.5148 10.7296 19.5856C10.765 19.6919 10.9066 19.9751 10.9774 20.1168C11.0837 20.2584 11.1899 20.4709 11.2961 20.6834C11.4378 20.9312 11.5794 21.2145 11.7211 21.3562C12.0044 21.6749 12.6772 22.4539 12.9605 22.7372C13.2438 23.0205 13.952 23.7287 14.2707 23.9058C14.3415 23.9412 14.5185 23.9766 14.7664 24.012C15.0143 23.5162 14.8018 23.835 15.7225 22.4539C15.2976 22.1706 15.4392 22.2414 15.0143 21.9582C14.6602 21.7103 14.2353 21.4624 14.0228 21.2145C13.8457 21.0375 13.3146 20.4355 13.1729 19.9397C13.1021 19.7627 13.1021 19.4086 13.1729 19.1961C13.3146 18.8066 13.7395 18.3816 14.0228 18.0629C15.1914 16.7173 15.333 16.7881 17.1036 15.9383C17.4223 15.7966 17.8118 15.8675 17.9888 15.9029L18.1305 15.9383L18.2367 16.0445C18.4492 16.257 18.5908 16.5757 18.7679 17.0006C18.9095 17.3547 20.0073 19.7627 20.1489 20.6125C20.2197 21.1083 20.2197 21.9936 20.1489 22.4539C20.0427 23.0559 19.5823 24.0474 19.4761 24.2599C19.3699 24.4723 19.2282 24.7202 19.0512 24.9681C18.5908 25.7117 18.6262 25.6763 18.52 26.0304C19.3344 26.3491 19.2636 26.3137 20.2551 26.3491C20.503 26.3491 20.7509 26.3491 20.9279 26.3845C21.2821 26.4199 21.7778 26.3491 22.0257 26.2783C22.1319 26.2429 22.4506 26.0304 22.5214 25.995C22.5569 25.9596 22.6631 25.818 22.7339 25.7471C23.1588 25.216 22.9818 25.4993 23.4775 24.9681L23.8671 24.3307Z" fill="#3E4854"/>
<path d="M27.1249 24.4014C26.9832 24.3306 26.5229 24.1889 26.3813 24.0827C26.275 24.0118 26.0271 23.8348 25.8855 23.764C25.7793 23.764 25.673 23.7286 25.5668 23.6932C25.2835 23.7286 24.6461 23.5515 24.3274 23.3036C24.1858 23.1974 23.8317 22.8433 23.7608 22.4892C23.7254 22.3829 23.69 21.958 24.1858 21.7809C24.3628 21.6039 24.5753 21.4977 24.7878 21.3914C25.071 21.2144 25.4252 21.2852 25.7793 21.3206C26.4167 21.4268 26.4167 21.4268 26.9478 21.7809C27.0895 21.8518 27.1249 21.8872 27.1957 21.958C27.2311 21.958 27.2665 21.9226 27.3019 21.9226C27.3374 21.8872 28.081 21.2144 28.1164 21.1436L28.86 21.9226L28.2226 22.5246C28.0456 22.7016 27.8685 22.8433 27.6561 22.9141C27.3019 23.1974 27.0187 23.0557 26.9124 23.0203C26.7708 22.9495 26.2042 22.4892 26.0626 22.4538C25.9917 22.4184 25.4252 22.3475 25.3189 22.3475C25.2481 22.3829 25.1065 22.4538 25.0356 22.4892C25.1065 22.5246 25.3543 22.6308 25.4252 22.6308C25.4606 22.6308 25.4606 22.6308 25.496 22.6308C25.7084 22.5954 25.8501 22.6308 26.0271 22.7016C26.275 22.7016 26.5229 22.8787 26.8416 23.0912C26.877 23.1266 26.9124 23.162 26.9478 23.162C26.9832 23.1974 27.6206 23.4099 27.6915 23.4453C27.7623 23.3744 27.8331 23.3036 27.9039 23.2328C27.9393 23.1974 27.9748 23.1266 28.0102 23.0912C28.2226 22.7371 28.1872 22.8079 28.9308 22.0997L29.6745 22.8787L29.0371 23.4807C29.0371 23.5161 29.0017 23.5515 28.9663 23.6223C28.86 23.7994 28.7892 23.9764 28.6121 24.0827C28.4351 24.2951 28.2935 24.5076 28.0102 24.543C27.7269 24.5784 27.3374 24.5076 27.1249 24.4014Z" fill="#3E4854"/>
<path d="M15.1559 23.9412C15.1559 23.9412 15.6517 24.1891 15.8288 24.2953C15.935 24.3662 16.1475 24.437 16.2537 24.5078C16.3599 24.5786 16.5724 24.7203 16.6786 24.7911C16.8557 24.8619 17.2452 24.9681 17.4222 25.0035C17.4931 25.039 17.6347 25.0744 17.741 25.0744C17.8826 25.039 18.1305 24.8265 18.2367 24.7203C18.3075 24.6494 18.4138 24.4724 18.4846 24.3662C18.5554 24.2599 18.7325 24.0475 18.8387 23.9412C18.9803 23.835 19.2282 23.6225 19.4053 23.5871C19.5115 23.5517 19.7594 23.5871 19.901 23.5871C20.0427 23.5871 19.9718 23.5871 20.0781 23.5163C20.2551 23.4455 20.5738 23.1268 20.6801 22.9497C20.7863 22.8081 20.8925 22.4185 20.8571 22.2415C20.8217 22.0644 20.6092 22.2061 20.503 22.0999C20.3968 22.029 20.0781 21.9936 19.9364 21.9582C19.7948 21.9228 19.8302 21.9228 19.6886 21.9582C19.5469 21.9936 19.2636 22.1707 19.122 22.2415C19.0158 22.3123 18.8033 22.4185 18.697 22.5248C18.4846 22.7372 18.0951 23.3746 17.9534 23.5517C17.8826 23.6579 17.7409 23.4809 17.5993 23.5163C17.4577 23.5517 17.139 23.4101 17.0327 23.3392C16.8203 23.233 16.4307 22.9851 16.2183 22.8435C16.1475 22.8081 15.9704 22.7018 15.9704 22.7018L15.1559 23.9412Z" fill="white"/>
<path d="M17.3514 25.5347C16.5724 25.3223 16.5724 25.3577 16.1474 25.0744C16.112 25.039 16.0412 25.0036 16.0058 24.9681C16.0058 24.9681 15.8642 24.8973 14.3769 24.1183L15.8641 22.0644C16.537 22.454 16.5016 22.4186 16.8203 22.631C17.0327 22.7727 17.1744 22.8435 17.3514 22.9497C17.3868 22.9851 17.5285 23.0205 17.5993 23.0559C17.6347 23.0559 17.7055 23.0559 17.7409 23.0559C18.3075 22.1353 18.4137 22.1353 18.9449 21.8166C19.2636 21.6395 19.6177 21.427 19.9718 21.4979H20.0072C20.2551 21.5333 20.503 21.5687 20.7155 21.6749C21.282 21.7103 21.3883 22.0999 21.3883 22.2061C21.4591 22.5602 21.2466 23.0914 21.1404 23.2684C20.9987 23.5517 20.5738 23.9058 20.2905 24.0475C20.1135 24.1891 19.901 24.1891 19.6531 24.1537C19.6177 24.1537 19.5469 24.1537 19.5115 24.1537C19.4407 24.1891 19.2636 24.2953 19.1574 24.4016C19.0866 24.437 18.9095 24.6849 18.8033 24.8265C18.7324 24.9327 18.6616 25.039 18.5908 25.1098C18.4492 25.2514 18.1305 25.5347 17.8472 25.6055C17.6701 25.6055 17.5285 25.5701 17.3514 25.5347ZM15.9704 23.7642C16.112 23.835 16.4307 23.9766 16.537 24.0475C16.6078 24.0829 16.8911 24.2953 16.9265 24.2953C17.0681 24.3662 17.5285 24.437 17.6701 24.5078C17.8826 24.3662 17.8472 24.3307 17.9888 24.1537C17.8826 24.1537 17.7763 24.1537 17.6701 24.0829C17.2098 24.1183 16.5724 23.6933 16.1828 23.4455L15.9704 23.7642ZM19.8302 22.5248C19.7594 22.5602 19.5115 22.7018 19.4053 22.7373C19.0157 22.9497 19.0866 22.9143 18.8033 23.3038C19.2636 23.0205 19.4053 23.0559 19.7948 23.0559C19.7948 23.0559 19.8302 23.0559 19.8302 23.0205C19.9364 22.9851 20.1489 22.7727 20.2197 22.6664C20.2197 22.631 20.2551 22.631 20.2551 22.5956C20.2197 22.5956 20.2197 22.5602 20.1843 22.5602C20.1489 22.5248 20.0427 22.5248 19.8656 22.4894C19.8656 22.5248 19.8302 22.5248 19.8302 22.5248Z" fill="#3E4854"/>
<path d="M19.8656 8.39581H18.8033C18.6262 8.39581 18.4492 8.28958 18.3429 8.11252C18.2367 7.93547 18.2367 7.723 18.3429 7.58136C18.5554 7.26266 18.7678 6.83773 18.8387 6.69608C18.9449 6.4128 19.0511 5.7754 19.0866 5.52752C19.0866 5.38587 19.0511 5.10259 18.9803 4.85471C18.9449 4.64225 18.9095 4.42978 18.9095 4.25273C18.8741 3.61533 18.8741 3.15498 18.9095 2.87169C18.9803 2.48217 19.2282 1.80936 19.4053 1.45525C19.6177 1.10114 20.1489 0.711621 20.4676 0.428333C20.7509 0.215867 21.7424 -0.032009 22.0257 0.00340202C22.0965 0.00340202 22.4152 0.00340202 22.486 0.00340202C22.8047 0.00340202 23.5483 0.28669 23.8316 0.357512C23.9025 0.357512 23.9379 0.392922 24.0087 0.428333C25.2835 1.24279 25.673 3.04875 25.6376 4.32355C25.6376 4.42978 25.6376 4.60683 25.6376 4.64224C25.673 4.8193 25.8855 5.35046 25.9563 5.52752C26.275 6.34197 26.3104 6.4128 26.6645 7.08561C26.8416 7.40431 26.6291 7.79383 26.3104 7.86465L24.9648 8.14794L24.7523 7.12101L25.4251 6.97937C25.2835 6.7315 25.1064 6.23574 25.0002 5.95246C24.894 5.63376 24.6815 5.20882 24.6107 4.85471C24.5753 4.67766 24.5753 4.5006 24.6107 4.28813C24.6461 3.33204 24.3982 1.95101 23.5483 1.38443C23.4067 1.34902 22.6631 1.10114 22.5214 1.10114C22.486 1.10114 22.1319 1.13655 21.9903 1.10114C21.8132 1.10114 21.3529 1.24279 21.2112 1.31361C21.0696 1.41984 20.5384 1.84477 20.4322 1.98642C20.2905 2.23429 20.0781 2.80087 20.0427 3.08416C20.0072 3.26122 20.0072 3.68615 20.0427 4.21731C20.0781 4.57142 20.2197 5.17341 20.2197 5.59834C20.2197 6.02328 20.0426 6.76691 19.9364 7.08561C19.901 7.15643 19.8656 7.26266 19.8302 7.3689H20.0072V8.39581H19.8656Z" fill="#3E4854"/>
<path d="M21.5653 8.82057C20.8217 8.2894 20.2551 7.47495 20.0427 6.58967L21.0696 6.3418C21.2112 6.9792 21.6007 7.58118 22.1673 7.93529L21.5653 8.82057Z" fill="#3E4854"/>
<path d="M21.2467 9.5287L20.3968 8.8913C20.6447 8.53719 20.7509 8.07685 20.6801 7.65192L21.707 7.43945C21.8486 8.14767 21.6716 8.92671 21.2467 9.5287Z" fill="#3E4854"/>
<path d="M23.0172 8.82057L22.4152 7.93529C22.9464 7.54577 23.3359 6.9792 23.513 6.3418L24.5399 6.58967C24.3274 7.47495 23.7608 8.2894 23.0172 8.82057Z" fill="#3E4854"/>
<path d="M23.5837 9.2455C23.1588 8.64351 22.9818 7.86447 23.1234 7.15625L24.1503 7.36872C24.0441 7.79365 24.1503 8.25399 24.4336 8.6081L23.5837 9.2455Z" fill="#3E4854"/>
<path d="M53.152 23.5519C49.3276 26.8452 44.4054 27.6596 40.0145 28.4387C31.7637 29.8905 21.9903 29.8905 13.7041 28.4387C9.2777 27.6596 4.39098 26.8097 0.566589 23.5519C0.566589 21.1794 0.566589 18.8069 0.566589 16.4697C4.39098 19.763 9.31311 20.5774 13.7041 21.3565C21.9548 22.8083 31.7283 22.8083 40.0145 21.3565C44.4409 20.5774 49.3276 19.7275 53.152 16.4697C53.152 18.8423 53.152 21.1794 53.152 23.5519Z" fill="white"/>
<path d="M13.5978 28.9697H13.527C9.10063 28.1906 4.10768 27.3408 0.177055 23.9767L0 23.8351V15.3364L0.885276 16.0801C4.56802 19.2316 9.38392 20.0815 13.7749 20.8605C21.6715 22.2416 31.3742 22.3478 39.979 20.8605C44.2638 20.1169 49.1151 19.267 52.7978 16.1155L53.6831 15.3718V23.8705C49.6817 27.2699 45.2907 28.1198 40.0853 29.0405C31.7991 30.4215 21.9194 30.4215 13.5978 28.9697ZM1.09774 23.3039C4.74507 26.3138 9.45474 27.1637 13.8103 27.9073C21.707 29.2884 31.4096 29.3946 40.0145 27.9073C44.2284 27.1637 48.9734 26.3493 52.6562 23.3039V17.5673C48.8672 20.3648 44.2992 21.1438 40.1207 21.8875C32.1178 23.2685 22.3089 23.4101 13.5624 21.8875C9.49015 21.1792 4.88672 20.3648 1.09774 17.5673V23.3039Z" fill="#3E4854"/>
<path d="M3.04536 18.4526H1.98303V22.8082H3.04536V18.4526Z" fill="#3E4854"/>
<path d="M7.08223 20.2231H6.0199V24.5787H7.08223V20.2231Z" fill="#3E4854"/>
<path d="M11.1545 21.3916H10.0922V25.7472H11.1545V21.3916Z" fill="#3E4854"/>
<path d="M15.2268 22.1709H14.1644V26.5265H15.2268V22.1709Z" fill="#3E4854"/>
<path d="M19.2636 22.7021H18.2013V27.0577H19.2636V22.7021Z" fill="#3E4854"/>
<path d="M23.3358 22.9854H22.2735V27.3409H23.3358V22.9854Z" fill="#3E4854"/>
<path d="M27.4082 23.0918H26.3458V27.4473H27.4082V23.0918Z" fill="#3E4854"/>
<path d="M31.445 22.9854H30.3827V27.3409H31.445V22.9854Z" fill="#3E4854"/>
<path d="M35.5172 22.7021H34.4549V27.0577H35.5172V22.7021Z" fill="#3E4854"/>
<path d="M39.5541 22.1709H38.4918V26.5265H39.5541V22.1709Z" fill="#3E4854"/>
<path d="M43.6264 21.3916H42.564V25.7472H43.6264V21.3916Z" fill="#3E4854"/>
<path d="M47.6986 20.2231H46.6363V24.5787H47.6986V20.2231Z" fill="#3E4854"/>
<path d="M51.7355 18.4526H50.6732V22.8082H51.7355V18.4526Z" fill="#3E4854"/>
<path d="M5.0638 19.4438H4.00146V22.1705H5.0638V19.4438Z" fill="#3E4854"/>
<path d="M9.13606 20.8608H8.07373V23.5875H9.13606V20.8608Z" fill="#3E4854"/>
<path d="M13.1729 21.8169H12.1105V24.5435H13.1729V21.8169Z" fill="#3E4854"/>
<path d="M17.2451 22.4541H16.1828V25.1807H17.2451V22.4541Z" fill="#3E4854"/>
<path d="M21.3174 22.8794H20.2551V25.606H21.3174V22.8794Z" fill="#3E4854"/>
<path d="M25.3543 23.0562H24.2919V25.7828H25.3543V23.0562Z" fill="#3E4854"/>
<path d="M29.4265 23.0562H28.3642V25.7828H29.4265V23.0562Z" fill="#3E4854"/>
<path d="M33.4634 22.8794H32.4011V25.606H33.4634V22.8794Z" fill="#3E4854"/>
<path d="M37.5357 22.4541H36.4734V25.1807H37.5357V22.4541Z" fill="#3E4854"/>
<path d="M41.608 21.8169H40.5457V24.5435H41.608V21.8169Z" fill="#3E4854"/>
<path d="M45.6449 20.8608H44.5825V23.5875H45.6449V20.8608Z" fill="#3E4854"/>
<path d="M49.7171 19.4438H48.6548V22.1705H49.7171V19.4438Z" fill="#3E4854"/>
<path d="M49.5046 18.4527C46.9904 18.4527 45.1136 17.3903 45.1136 15.9739C45.1136 14.5574 46.9904 13.4951 49.5046 13.4951C52.0188 13.4951 53.8956 14.5574 53.8956 15.9739C53.8956 17.3903 52.0188 18.4527 49.5046 18.4527ZM49.5046 14.5574C47.5924 14.5574 46.176 15.3011 46.176 15.9739C46.176 16.6467 47.5924 17.3903 49.5046 17.3903C51.4168 17.3903 52.8332 16.6467 52.8332 15.9739C52.8332 15.3011 51.4168 14.5574 49.5046 14.5574Z" fill="#3E4854"/>
<path d="M49.5046 17.5322C48.0174 17.5322 46.8842 16.8594 46.8842 15.9387C46.8842 15.0534 48.0174 14.3452 49.5046 14.3452C50.9919 14.3452 52.125 15.018 52.125 15.9387C52.125 16.8594 50.9919 17.5322 49.5046 17.5322ZM49.5046 15.443C48.4423 15.443 47.9465 15.8679 47.9465 15.9741C47.9465 16.0804 48.4423 16.5053 49.5046 16.5053C50.567 16.5053 51.0627 16.0804 51.0627 15.9741C51.0627 15.8679 50.567 15.443 49.5046 15.443Z" fill="#3E4854"/>
<path d="M46.176 15.9736H45.1136V20.7187H46.176V15.9736Z" fill="#3E4854"/>
</svg>
