<svg width="15" height="16" viewBox="0 0 15 16" fill="none" xmlns="http://www.w3.org/2000/svg">
<path fill-rule="evenodd" clip-rule="evenodd" d="M4.66563 1.16625C5.39875 1.1325 5.6325 1.125 7.5 1.125C9.3675 1.125 9.60125 1.13312 10.3337 1.16625C11.0662 1.19937 11.5662 1.31625 12.0037 1.48563C12.4619 1.65875 12.8775 1.92937 13.2212 2.27937C13.5712 2.6225 13.8413 3.0375 14.0138 3.49625C14.1838 3.93375 14.3 4.43375 14.3337 5.165C14.3675 5.89937 14.375 6.13312 14.375 8C14.375 9.8675 14.3669 10.1012 14.3337 10.8344C14.3006 11.5656 14.1838 12.0656 14.0138 12.5031C13.8412 12.9619 13.5708 13.3776 13.2212 13.7212C12.8775 14.0712 12.4619 14.3413 12.0037 14.5138C11.5662 14.6838 11.0662 14.8 10.335 14.8337C9.60125 14.8675 9.3675 14.875 7.5 14.875C5.6325 14.875 5.39875 14.8669 4.66563 14.8337C3.93438 14.8006 3.43438 14.6838 2.99688 14.5138C2.53808 14.3412 2.12239 14.0708 1.77875 13.7212C1.42899 13.3779 1.15832 12.9624 0.985625 12.5037C0.81625 12.0662 0.7 11.5662 0.66625 10.835C0.6325 10.1006 0.625 9.86687 0.625 8C0.625 6.1325 0.633125 5.89875 0.66625 5.16625C0.699375 4.43375 0.81625 3.93375 0.985625 3.49625C1.15858 3.03755 1.42945 2.62207 1.77937 2.27875C2.12253 1.92906 2.5378 1.6584 2.99625 1.48563C3.43375 1.31625 3.93375 1.2 4.665 1.16625H4.66563ZM10.2781 2.40375C9.55312 2.37063 9.33562 2.36375 7.5 2.36375C5.66437 2.36375 5.44688 2.37063 4.72187 2.40375C4.05125 2.43438 3.6875 2.54625 3.445 2.64062C3.12438 2.76562 2.895 2.91375 2.65438 3.15438C2.42628 3.37628 2.25074 3.64643 2.14062 3.945C2.04625 4.1875 1.93438 4.55125 1.90375 5.22187C1.87063 5.94688 1.86375 6.16437 1.86375 8C1.86375 9.83562 1.87063 10.0531 1.90375 10.7781C1.93438 11.4487 2.04625 11.8125 2.14062 12.055C2.25063 12.3531 2.42625 12.6237 2.65438 12.8456C2.87625 13.0738 3.14688 13.2494 3.445 13.3594C3.6875 13.4538 4.05125 13.5656 4.72187 13.5963C5.44688 13.6294 5.66375 13.6362 7.5 13.6362C9.33625 13.6362 9.55312 13.6294 10.2781 13.5963C10.9487 13.5656 11.3125 13.4538 11.555 13.3594C11.8756 13.2344 12.105 13.0863 12.3456 12.8456C12.5738 12.6237 12.7494 12.3531 12.8594 12.055C12.9538 11.8125 13.0656 11.4487 13.0963 10.7781C13.1294 10.0531 13.1362 9.83562 13.1362 8C13.1362 6.16437 13.1294 5.94688 13.0963 5.22187C13.0656 4.55125 12.9538 4.1875 12.8594 3.945C12.7344 3.62438 12.5863 3.395 12.3456 3.15438C12.1237 2.92629 11.8536 2.75076 11.555 2.64062C11.3125 2.54625 10.9487 2.43438 10.2781 2.40375ZM6.62188 10.1194C7.11229 10.3235 7.65836 10.3511 8.16683 10.1973C8.6753 10.0436 9.11462 9.71807 9.40976 9.2764C9.70489 8.83473 9.83753 8.30429 9.78503 7.77569C9.73252 7.24709 9.49813 6.75311 9.12187 6.37812C8.88202 6.13842 8.59201 5.95488 8.27271 5.84072C7.95341 5.72655 7.61277 5.6846 7.27531 5.71789C6.93785 5.75117 6.61197 5.85886 6.32113 6.03321C6.03028 6.20755 5.78171 6.44422 5.59331 6.72616C5.40491 7.0081 5.28137 7.32831 5.23157 7.66373C5.18178 7.99915 5.20697 8.34143 5.30534 8.66595C5.40371 8.99046 5.5728 9.28913 5.80045 9.54045C6.0281 9.79177 6.30864 9.98949 6.62188 10.1194ZM5.00125 5.50125C5.32939 5.17311 5.71895 4.91281 6.14769 4.73523C6.57642 4.55764 7.03594 4.46623 7.5 4.46623C7.96406 4.46623 8.42358 4.55764 8.85231 4.73523C9.28105 4.91281 9.67061 5.17311 9.99875 5.50125C10.3269 5.82939 10.5872 6.21895 10.7648 6.64769C10.9424 7.07642 11.0338 7.53594 11.0338 8C11.0338 8.46406 10.9424 8.92358 10.7648 9.35231C10.5872 9.78105 10.3269 10.1706 9.99875 10.4987C9.33604 11.1615 8.43721 11.5338 7.5 11.5338C6.56279 11.5338 5.66396 11.1615 5.00125 10.4987C4.33854 9.83604 3.96623 8.93721 3.96623 8C3.96623 7.06279 4.33854 6.16396 5.00125 5.50125ZM11.8175 4.9925C11.8988 4.91579 11.9639 4.82355 12.0089 4.72123C12.054 4.61892 12.078 4.50861 12.0796 4.39683C12.0813 4.28506 12.0605 4.17409 12.0184 4.07051C11.9764 3.96692 11.914 3.87282 11.835 3.79377C11.7559 3.71473 11.6618 3.65235 11.5582 3.61032C11.4547 3.5683 11.3437 3.54748 11.2319 3.54911C11.1201 3.55074 11.0098 3.57478 10.9075 3.61981C10.8052 3.66484 10.713 3.72993 10.6362 3.81125C10.4871 3.96939 10.4054 4.17945 10.4086 4.39683C10.4117 4.61421 10.4995 4.8218 10.6532 4.97553C10.807 5.12925 11.0145 5.21702 11.2319 5.22019C11.4493 5.22336 11.6594 5.14168 11.8175 4.9925Z" fill="#222222"/>
</svg>
