<svg width="10" height="16" viewBox="0 0 10 16" fill="none" xmlns="http://www.w3.org/2000/svg">
<path fill-rule="evenodd" clip-rule="evenodd" d="M4.69064 0.784457C4.77269 0.70241 4.88397 0.656316 5 0.656316C5.11603 0.656316 5.22731 0.70241 5.30936 0.784457L9.02167 4.49677C9.10372 4.57881 9.14981 4.69009 9.14981 4.80613C9.14981 4.92216 9.10372 5.03344 9.02167 5.11549C8.93962 5.19753 8.82834 5.24363 8.71231 5.24363C8.59628 5.24363 8.485 5.19753 8.40295 5.11549L5.43743 2.14997L5.43805 14.7056C5.43805 14.8218 5.3919 14.9332 5.30975 15.0154C5.2276 15.0975 5.11618 15.1437 5 15.1437C4.88382 15.1437 4.7724 15.0975 4.69025 15.0154C4.6081 14.9332 4.56195 14.8218 4.56195 14.7056L4.56257 2.14997L1.59705 5.11549C1.515 5.19753 1.40372 5.24363 1.28769 5.24363C1.17166 5.24363 1.06038 5.19753 0.97833 5.11549C0.896283 5.03344 0.850189 4.92216 0.850189 4.80613C0.85019 4.6901 0.896283 4.57882 0.97833 4.49677L4.69064 0.784457Z" fill="black"/>
</svg>
