<svg width="52" height="62" viewBox="0 0 52 62" fill="none" xmlns="http://www.w3.org/2000/svg">
<path d="M45.2543 55.6365H7.37066C4.95339 55.6365 3.01166 53.6947 3.01166 51.2775V16.0092C3.01166 11.2936 6.85552 7.44971 11.5712 7.44971H39.4687C45.0562 7.44971 49.6133 12.0069 49.6133 17.5943V51.2775C49.6133 53.6947 47.6716 55.6365 45.2543 55.6365Z" fill="white"/>
<path d="M45.2543 56.231H7.37064C4.63636 56.231 2.41724 54.0119 2.41724 51.2776V16.0094C2.41724 10.9371 6.53849 6.85547 11.5711 6.85547H39.4687C45.3732 6.85547 50.2077 11.6504 50.2077 17.5945V51.2776C50.2077 54.0119 47.9886 56.231 45.2543 56.231ZM11.5711 8.04429C7.17252 8.04429 3.60605 11.6108 3.60605 16.0094V51.2776C3.60605 53.3383 5.31003 55.0422 7.37064 55.0422H45.2543C47.3149 55.0422 49.0189 53.3383 49.0189 51.2776V17.5945C49.0189 12.324 44.7391 8.04429 39.4687 8.04429H11.5711Z" fill="#3E4854"/>
<path d="M42.8371 53.2194H4.95342C2.53616 53.2194 0.594421 51.2777 0.594421 48.8605V13.5922C0.594421 8.87655 4.43826 5.03271 9.1539 5.03271H37.0515C42.6389 5.03271 47.1961 9.58984 47.1961 15.1773V48.8605C47.1961 51.2381 45.2543 53.2194 42.8371 53.2194Z" fill="white"/>
<path d="M42.8371 53.814H4.95341C2.21913 53.814 0 51.5949 0 48.8606V13.5924C0 8.52007 4.12122 4.43848 9.15389 4.43848H37.0515C42.9559 4.43848 47.7905 9.23336 47.7905 15.1775V48.8606C47.7905 51.5949 45.5713 53.814 42.8371 53.814ZM9.15389 5.62729C4.75526 5.62729 1.18882 9.19374 1.18882 13.5924V48.8606C1.18882 50.9212 2.89279 52.6252 4.95341 52.6252H42.8371C44.8977 52.6252 46.6016 50.9212 46.6016 48.8606V15.1775C46.6016 9.90703 42.3219 5.62729 37.0515 5.62729H9.15389Z" fill="#3E4854"/>
<path d="M10.5805 5.31031L16.0491 14.7416L24.2915 8.44085L14.1073 0.634277L10.5805 5.31031Z" fill="white"/>
<path d="M16.0491 15.3355C16.0094 15.3355 15.9698 15.3355 15.9302 15.3355C15.7717 15.2959 15.6132 15.2166 15.5339 15.0581L10.0653 5.66642C9.94644 5.46829 9.94646 5.19089 10.105 4.99275L13.6318 0.277125C13.711 0.158243 13.8695 0.0789744 14.0281 0.0393472C14.1866 -0.000280067 14.3451 0.0789938 14.464 0.158248L24.6482 8.00444C24.8067 8.12332 24.8859 8.28184 24.8859 8.47997C24.8859 8.67811 24.8067 8.8366 24.6482 8.95548L16.4057 15.2166C16.3264 15.2562 16.1679 15.3355 16.0491 15.3355ZM11.2938 5.34941L16.2472 13.8297L23.3405 8.44033L14.2658 1.46594L11.2938 5.34941Z" fill="#3E4854"/>
<path d="M37.21 5.31031L31.7018 14.7416L24.2915 8.44085L33.6832 0.634277L37.21 5.31031Z" fill="white"/>
<path d="M31.7018 15.3359C31.5433 15.3359 31.4244 15.2963 31.3055 15.1774L23.8952 8.91627C23.7763 8.79739 23.6971 8.63888 23.6971 8.44074C23.6971 8.28223 23.7763 8.08411 23.8952 8.00485L33.2869 0.158661C33.4058 0.0397789 33.5643 0.000132289 33.7228 0.0397595C33.8813 0.0397595 34.0398 0.158656 34.119 0.277538L37.6459 4.99317C37.8044 5.1913 37.8044 5.42907 37.6855 5.66683L32.2169 15.0585C32.1377 15.217 31.9792 15.2963 31.8207 15.3359C31.781 15.2963 31.7414 15.3359 31.7018 15.3359ZM25.2029 8.44074L31.5433 13.7904L36.4571 5.34982L33.5246 1.46636L25.2029 8.44074Z" fill="#3E4854"/>
<path d="M14.1073 0.634277H33.6832L24.2915 8.44085L14.1073 0.634277Z" fill="white"/>
<path d="M24.2915 9.03501C24.1726 9.03501 24.0537 8.99539 23.9348 8.91613L13.7507 1.06994C13.5525 0.911432 13.4733 0.634036 13.5525 0.396273C13.6318 0.158509 13.8695 0 14.1073 0H33.6832C33.9209 0 34.1587 0.158509 34.2379 0.396273C34.3172 0.634036 34.2379 0.911432 34.0398 1.06994L24.6482 8.91613C24.5689 8.99539 24.4104 9.03501 24.2915 9.03501ZM15.8509 1.22844L24.2915 7.6877L32.0584 1.22844H15.8509Z" fill="#3E4854"/>
<path d="M23.8952 17.991C23.0631 17.991 22.429 17.3174 22.429 16.5248C22.429 15.6926 23.1027 15.0586 23.8952 15.0586C24.7274 15.0586 25.3614 15.7323 25.3614 16.5248C25.3614 17.3174 24.6878 17.991 23.8952 17.991ZM23.8952 16.2078C23.7367 16.2078 23.6178 16.3267 23.6178 16.4852C23.6178 16.6437 23.7367 16.7626 23.8952 16.7626C24.0537 16.7626 24.1726 16.6437 24.1726 16.4852C24.1726 16.3663 24.0537 16.2078 23.8952 16.2078Z" fill="#3E4854"/>
<path d="M23.8952 27.7391C23.0631 27.7391 22.429 27.0654 22.429 26.2729C22.429 25.4407 23.1027 24.8066 23.8952 24.8066C24.7274 24.8066 25.3614 25.4803 25.3614 26.2729C25.3614 27.0654 24.6878 27.7391 23.8952 27.7391ZM23.8952 25.9558C23.7367 25.9558 23.6178 26.0747 23.6178 26.2332C23.6178 26.3917 23.7367 26.5106 23.8952 26.5106C24.0537 26.5106 24.1726 26.3917 24.1726 26.2332C24.1726 26.1144 24.0537 25.9558 23.8952 25.9558Z" fill="#3E4854"/>
<path d="M23.8952 37.4876C23.0631 37.4876 22.429 36.8139 22.429 36.0214C22.429 35.1892 23.1027 34.5552 23.8952 34.5552C24.7274 34.5552 25.3614 35.2288 25.3614 36.0214C25.3614 36.8139 24.6878 37.4876 23.8952 37.4876ZM23.8952 35.7044C23.7367 35.7044 23.6178 35.8232 23.6178 35.9817C23.6178 36.1403 23.7367 36.2591 23.8952 36.2591C24.0537 36.2591 24.1726 36.1403 24.1726 35.9817C24.1726 35.8232 24.0537 35.7044 23.8952 35.7044Z" fill="#3E4854"/>
<path d="M23.8952 47.2356C23.0631 47.2356 22.429 46.562 22.429 45.7694C22.429 44.9373 23.1027 44.3032 23.8952 44.3032C24.7274 44.3032 25.3614 44.9769 25.3614 45.7694C25.3614 46.562 24.6878 47.2356 23.8952 47.2356ZM23.8952 45.4524C23.7367 45.4524 23.6178 45.5713 23.6178 45.7298C23.6178 45.8883 23.7367 46.0072 23.8952 46.0072C24.0537 46.0072 24.1726 45.8883 24.1726 45.7298C24.1726 45.5713 24.0537 45.4524 23.8952 45.4524Z" fill="#3E4854"/>
<path d="M40.9746 36.061H32.5736C31.3848 36.061 30.4337 35.1099 30.4337 33.9211V20.4082H43.1144V33.9211C43.1144 35.1099 42.1634 36.061 40.9746 36.061ZM31.5829 21.5574V33.8815C31.5829 34.3966 32.0188 34.8325 32.534 34.8325H40.9349C41.4501 34.8325 41.886 34.3966 41.886 33.8815V21.5574H31.5829Z" fill="#3E4854"/>
<path d="M42.52 23.3403H30.9885V24.5291H42.52V23.3403Z" fill="#3E4854"/>
<path d="M50.2474 58.7674L47.5527 60.828C46.9187 61.3035 46.0469 61.145 45.611 60.511L34.7135 44.6997L38.0026 42.1636L50.4455 56.786C50.9607 57.3804 50.8814 58.2919 50.2474 58.7674Z" fill="white"/>
<path d="M46.7602 61.6599C46.6413 61.6599 46.5621 61.6599 46.4432 61.6203C45.928 61.541 45.4525 61.2636 45.1355 60.7881L33.921 44.5013L38.1215 41.2915L50.9211 56.3499C51.2777 56.7461 51.4362 57.3009 51.357 57.8161C51.3173 58.3709 51.0399 58.8464 50.604 59.1634L47.9094 61.224C47.5924 61.541 47.1961 61.6599 46.7602 61.6599ZM35.5457 44.8183L46.1262 60.1541C46.245 60.3126 46.4432 60.4315 46.6413 60.4711C46.8395 60.5107 47.0376 60.4711 47.2357 60.3126L49.9304 58.252C50.0889 58.1331 50.2078 57.935 50.2078 57.7368C50.2474 57.5387 50.1681 57.3405 50.0493 57.182L37.9629 42.9955L35.5457 44.8183Z" fill="#3E4854"/>
<path d="M35.7834 22.548C31.7018 17.1983 24.0538 16.2076 18.7041 20.2892C13.3544 24.3708 12.3637 32.0189 16.4453 37.3685C20.091 42.1634 26.6295 43.4711 31.7811 40.7369L33.2077 42.5993L36.4967 40.0632L35.0701 38.2007C38.9932 34.0002 39.4291 27.3429 35.7834 22.548Z" fill="white"/>
<path d="M33.0491 43.4712L31.583 41.5294C26.154 44.1052 19.6552 42.5994 15.9302 37.7648C13.8696 35.0702 12.9581 31.7019 13.394 28.2939C13.8299 24.9256 15.5735 21.9139 18.3078 19.8137C23.8953 15.534 31.9396 16.6039 36.2193 22.1913C39.9047 27.0259 39.7065 33.6832 35.7834 38.28L37.2496 40.2217L33.0491 43.4712ZM31.9 40.0236L33.2473 41.8068L35.5853 40.0236L34.238 38.2404L34.5946 37.8837C38.4385 33.7229 38.7159 27.4618 35.2683 22.9443C31.3848 17.872 24.0934 16.9209 19.0211 20.8044C16.5642 22.7065 14.9791 25.4012 14.5829 28.4921C14.1866 31.583 14.9791 34.5947 16.8812 37.0516C20.3288 41.5294 26.471 42.9164 31.4641 40.2614L31.9 40.0236Z" fill="#3E4854"/>
<path d="M26.1144 40.4597C25.6389 40.4597 25.1633 40.42 24.7274 40.3804C21.9535 40.0238 19.457 38.5972 17.7927 36.3781C16.0887 34.1589 15.3358 31.385 15.7321 28.6111C16.0887 25.8372 17.5153 23.3407 19.7344 21.6764C21.9535 19.9724 24.7274 19.2195 27.5013 19.6157C30.2752 19.9724 32.7718 21.3989 34.4361 23.6181C36.1401 25.8372 36.8534 28.6111 36.4967 31.385C36.1401 34.1589 34.7135 36.6555 32.4944 38.3198C30.6319 39.7464 28.4128 40.4597 26.1144 40.4597ZM26.0748 20.6857C24.0538 20.6857 22.0724 21.3593 20.4477 22.5878C16.3661 25.7183 15.6132 31.5435 18.7041 35.6252C21.8347 39.7068 27.6599 40.4597 31.7415 37.3687C35.8231 34.2382 36.576 28.413 33.4851 24.3314C31.9792 22.35 29.7997 21.0819 27.3032 20.7649C26.9069 20.7253 26.471 20.6857 26.0748 20.6857Z" fill="#3E4854"/>
<path d="M20.0514 35.2286C19.8533 35.2286 19.6948 35.1493 19.5759 34.9908C16.802 31.3847 17.5153 26.2332 21.0817 23.4593C21.3591 23.2611 21.7158 23.3008 21.9139 23.5782C22.112 23.8556 22.0724 24.2122 21.795 24.4103C18.7041 26.7483 18.1493 31.1866 20.4873 34.2775C20.6855 34.5549 20.6458 34.9115 20.3684 35.1097C20.2892 35.1889 20.1703 35.2286 20.0514 35.2286Z" fill="#3E4854"/>
</svg>
