<svg width="5" height="8" viewBox="0 0 5 8" fill="none" xmlns="http://www.w3.org/2000/svg">
<path d="M5 2.23776C5 2.64056 4.92159 2.98741 4.76476 3.27832C4.61128 3.56923 4.33267 3.88065 3.92893 4.21259L3.53353 4.53147C3.06974 4.90443 2.8345 5.32774 2.82783 5.8014H1.7968C1.80681 5.48811 1.86186 5.21772 1.96196 4.99021C2.06206 4.75897 2.19219 4.55758 2.35235 4.38601C2.51585 4.21072 2.69269 4.04662 2.88288 3.89371C3.08976 3.7296 3.27161 3.57296 3.42843 3.42378C3.58525 3.27459 3.70704 3.11049 3.79379 2.93147C3.88055 2.75245 3.92392 2.538 3.92392 2.28811C3.92392 1.8965 3.80547 1.58695 3.56857 1.35944C3.33167 1.13193 2.998 1.01818 2.56757 1.01818C2.14381 1.01818 1.8018 1.14312 1.54154 1.39301C1.28462 1.63916 1.13447 1.97296 1.09109 2.39441L0 2.32727C0.0900901 1.58508 0.357024 1.01259 0.800801 0.60979C1.24458 0.203263 1.83016 0 2.55756 0C3.31498 0 3.91058 0.197669 4.34434 0.593007C4.78145 0.988345 5 1.5366 5 2.23776ZM2.88789 6.74685V8H1.75676V6.74685H2.88789Z" fill="black"/>
</svg>
