<svg width="15" height="17" viewBox="0 0 15 17" fill="none" xmlns="http://www.w3.org/2000/svg">
<path fill-rule="evenodd" clip-rule="evenodd" d="M13.3461 5.90332C13.6731 5.93024 13.9169 6.21603 13.8908 6.54299C13.8861 6.59682 13.457 11.9097 13.21 14.1382C13.0564 15.5213 12.1428 16.3628 10.7637 16.3882C9.70843 16.4064 8.69035 16.4167 7.69522 16.4167C6.62252 16.4167 5.57672 16.4048 4.54202 16.3834C3.21835 16.3573 2.30239 15.4991 2.15277 14.1438C1.90339 11.8954 1.47668 6.59603 1.47272 6.54299C1.44581 6.21603 1.68964 5.92944 2.0166 5.90332C2.33881 5.89461 2.63014 6.12103 2.65627 6.44719C2.65879 6.48156 2.83324 8.64568 3.02333 10.7869L3.06151 11.2142C3.15726 12.2785 3.25431 13.3012 3.33314 14.0132C3.41785 14.7834 3.83347 15.1809 4.56656 15.1959C6.54572 15.2379 8.56527 15.2402 10.7423 15.2007C11.5213 15.1856 11.9425 14.7961 12.0296 14.0076C12.275 11.7957 12.7025 6.50103 12.7073 6.44719C12.7334 6.12103 13.0223 5.89303 13.3461 5.90332ZM9.35677 0.583557C10.0835 0.583557 10.7224 1.0736 10.91 1.77581L11.1111 2.7741C11.1761 3.10135 11.4633 3.34034 11.7958 3.34559L14.3938 3.34568C14.7216 3.34568 14.9876 3.61168 14.9876 3.93943C14.9876 4.26718 14.7216 4.53318 14.3938 4.53318L11.819 4.53306C11.815 4.53314 11.811 4.53318 11.807 4.53318L11.7877 4.53239L3.57461 4.53309C3.56823 4.53315 3.56184 4.53318 3.55544 4.53318L3.54325 4.53239L0.96875 4.53318C0.641 4.53318 0.375 4.26718 0.375 3.93943C0.375 3.61168 0.641 3.34568 0.96875 3.34568L3.56621 3.34489L3.64618 3.33983C3.94408 3.30118 4.19165 3.07493 4.25211 2.7741L4.44448 1.81143C4.64002 1.0736 5.2789 0.583557 6.00565 0.583557H9.35677ZM9.35677 1.77106H6.00565C5.81565 1.77106 5.64861 1.89852 5.60032 2.08139L5.41586 3.00764C5.39241 3.12496 5.35828 3.23803 5.31459 3.34589H10.0481C10.0043 3.23803 9.97011 3.12496 9.94657 3.00764L9.75419 2.04497C9.71382 1.89852 9.54677 1.77106 9.35677 1.77106Z" fill="#C41616"/>
</svg>
