<svg width="12" height="12" viewBox="0 0 12 12" fill="none" xmlns="http://www.w3.org/2000/svg">
<g opacity="0.25">
<path fill-rule="evenodd" clip-rule="evenodd" d="M5.5 1.595C5.53454 1.48548 5.60309 1.38982 5.6957 1.32192C5.78831 1.25402 5.90016 1.21741 6.015 1.21741C6.12984 1.21741 6.24168 1.25402 6.3343 1.32192C6.42691 1.38982 6.49546 1.48548 6.53 1.595L7.46 4.455H10.46C10.5789 4.45051 10.6961 4.48507 10.7935 4.55342C10.891 4.62177 10.9634 4.72014 10.9997 4.83351C11.0359 4.94688 11.0341 5.069 10.9944 5.18123C10.9548 5.29346 10.8795 5.38961 10.78 5.455L8.345 7.22L9.275 10.085C9.31178 10.1941 9.31271 10.3122 9.27764 10.4219C9.24258 10.5316 9.17337 10.6272 9.08011 10.6947C8.98685 10.7623 8.87444 10.7983 8.75928 10.7974C8.64412 10.7966 8.53224 10.7589 8.44 10.69L6 8.905L3.565 10.675C3.47275 10.7439 3.36088 10.7816 3.24572 10.7824C3.13056 10.7833 3.01814 10.7473 2.92489 10.6797C2.83163 10.6122 2.76241 10.5166 2.72735 10.4069C2.69229 10.2972 2.69322 10.1791 2.73 10.07L3.66 7.205L1.225 5.44C1.12554 5.37461 1.05023 5.27846 1.01056 5.16623C0.970894 5.054 0.96906 4.93188 1.00534 4.81851C1.04161 4.70514 1.11401 4.60677 1.21146 4.53842C1.30891 4.47007 1.42605 4.43551 1.545 4.44H4.545L5.5 1.595Z" stroke="black" stroke-linecap="round" stroke-linejoin="round"/>
</g>
</svg>
