<svg width="125" height="32" viewBox="0 0 125 32" fill="none" xmlns="http://www.w3.org/2000/svg">
<g clip-path="url(#clip0)">
<path d="M40.008 15.195L41.7112 15.2284C42.4459 15.2284 43.047 14.6273 43.047 13.8926C43.047 13.1579 42.4459 12.5568 41.7112 12.5568H40.008V12.5902V15.195ZM48.6909 15.195L50.3941 15.2284C51.1288 15.2284 51.7299 14.6273 51.7299 13.8926C51.7299 13.1579 51.1288 12.5568 50.3941 12.5568H48.6909V12.5902V15.195ZM46.3198 11.1208C47.3217 11.1208 48.0564 11.1208 49.4924 11.1208C50.9618 11.1208 51.9971 11.221 52.6984 11.7219C53.3997 12.1894 53.8338 12.9575 53.8338 13.8926C53.8338 14.7943 53.4999 15.5958 52.8654 16.0967C52.7318 16.1969 52.5982 16.2971 52.4646 16.3639C52.8654 16.6978 53.1325 17.1654 53.2995 17.7665C53.6335 18.8352 53.934 19.9038 54.0342 20.4048H51.6631C51.5963 20.0374 51.1956 18.7684 50.9952 18.234C50.7614 17.6997 50.2605 16.7646 49.2586 16.7312H48.6575V20.4048H46.3198V11.1208ZM58.0417 11.1208V20.4382H55.704V11.1208H58.0417ZM117.753 15.7628C117.753 17.5327 118.688 18.8018 120.191 18.8018C121.727 18.8018 122.596 17.4993 122.596 15.7294C122.596 14.093 121.761 12.6904 120.191 12.6904C118.655 12.6904 117.753 13.9928 117.753 15.7628ZM125 15.6626C125 18.6348 123.03 20.4382 120.057 20.4382C117.085 20.4382 115.349 18.401 115.349 15.8296C115.349 13.1245 117.286 11.1542 120.224 11.1542C123.33 11.1208 125 13.1579 125 15.6626ZM73.4371 15.7628C73.4371 17.5327 74.3722 18.8018 75.875 18.8018C77.4112 18.8018 78.2795 17.4993 78.2795 15.7294C78.2795 14.093 77.4446 12.6904 75.875 12.6904C74.3388 12.6904 73.4371 13.9928 73.4371 15.7628ZM80.7173 15.6626C80.7173 18.6348 78.747 20.4382 75.7748 20.4382C72.8026 20.4382 71.066 18.401 71.066 15.8296C71.066 13.1245 73.0029 11.1542 75.9418 11.1542C79.0142 11.1208 80.7173 13.1579 80.7173 15.6626ZM100.488 16.5309H97.0812V18.7684H100.922V20.4382H94.7101V11.1208H100.688V12.7906H97.0478V14.8611H100.454V16.5309H100.488ZM102.358 11.1208H104.695V18.7684H107.768V20.4382H102.358V11.1208ZM109.271 11.1208H111.608V18.7684H114.681V20.4382H109.271V11.1208ZM91.404 11.1208L89.3334 17.2322L87.2629 11.1208H84.825L87.864 20.4048H90.7694L93.8084 11.0874L91.404 11.1208ZM66.6244 11.1208L64.8544 16.965L63.1178 11.1208H59.7783V20.4048H62.116V14.1598L63.9527 20.4048H65.7895H65.8229L67.6262 14.1598V20.4048H69.9639V11.0874H66.6244V11.1208ZM37.6703 11.1208C38.6722 11.1208 39.4069 11.1208 40.8429 11.1208C42.3123 11.1208 43.3476 11.221 44.0489 11.7219C44.7502 12.1894 45.1843 12.9575 45.1843 13.8926C45.1843 14.7943 44.8504 15.5958 44.2159 16.0967C43.4144 16.7646 42.2121 16.6978 40.8095 16.6978C40.5089 16.6978 40.4088 16.6978 40.008 16.6978V20.4048H37.6703V11.1208Z" fill="black"/>
<path fill-rule="evenodd" clip-rule="evenodd" d="M15.7628 0C24.479 0 31.5255 7.04649 31.5255 15.7628C31.5255 24.479 24.479 31.5255 15.7628 31.5255C7.04649 31.5255 0 24.479 0 15.7628C0 7.04649 7.04649 0 15.7628 0Z" fill="#C41616"/>
<path fill-rule="evenodd" clip-rule="evenodd" d="M18.4344 8.68287C19.0355 8.81646 19.6367 8.95004 20.2378 9.15041C21.3732 9.51777 22.4753 10.0521 23.4772 10.72L25.8816 9.48437C23.6775 7.81459 21.1395 6.67913 18.401 6.24499V8.68287H18.4344ZM15.7628 6.04462C16.1969 6.04462 16.5976 6.04462 16.9984 6.07801C16.9984 6.51216 16.9984 8.88325 16.9984 8.5159C16.5976 8.4825 16.1635 8.4825 15.7628 8.4825C15.3286 8.4825 14.9279 8.4825 14.5271 8.5159C14.5271 8.88325 14.5271 6.51216 14.5271 6.07801C14.9279 6.04462 15.362 6.04462 15.7628 6.04462ZM14.7609 23.2768C14.5939 23.0096 14.4937 22.7091 14.4937 22.3751V21.8742V9.95191C14.8945 9.91851 15.3286 9.91851 15.7294 9.91851C16.1635 9.91851 16.5643 9.91851 16.965 9.95191V21.9076V22.4085C16.965 22.7091 16.8982 23.043 16.7312 23.2768C16.4641 23.6441 16.0967 23.8111 15.7294 23.8111C15.3954 23.8445 15.0281 23.6441 14.7609 23.2768ZM13.0911 8.68287C12.49 8.81646 11.8889 8.95004 11.2877 9.15041C10.1523 9.51777 9.05023 10.0521 8.01496 10.72L5.61047 9.48437C7.81459 7.81459 10.3861 6.67913 13.0911 6.2116V8.68287ZM18.8352 23.7109C20.5717 22.1413 22.6089 19.4029 23.6775 14.9613C23.9113 14.0262 24.0449 13.0243 24.1117 12.0224L26.5162 10.7534C26.5496 12.3564 26.3826 13.8926 26.0486 15.3286C24.9132 20.338 22.4753 23.6775 20.1042 25.5143C18.6014 26.6831 17.1654 27.2843 15.7628 27.2843C14.3601 27.2843 12.9575 26.6831 11.4213 25.5143C9.05023 23.6775 6.61234 20.3714 5.47689 15.3286C5.14293 13.8926 4.97596 12.3898 5.00935 10.8202L7.41384 12.0892C7.48063 13.0911 7.61421 14.0596 7.84798 14.9947C8.91664 19.4029 10.9204 22.1079 12.6904 23.7109C13.8592 24.7462 14.8277 25.2805 15.7628 25.2805C16.7312 25.2805 17.6997 24.7462 18.8352 23.7109Z" fill="#FEFEFE"/>
</g>
<defs>
<clipPath id="clip0">
<rect width="125" height="31.5255" fill="white"/>
</clipPath>
</defs>
</svg>
