<svg width="32" height="32" viewBox="0 0 32 32" fill="none" xmlns="http://www.w3.org/2000/svg">
<path fill-rule="evenodd" clip-rule="evenodd" d="M15.7628 0C24.479 0 31.5255 7.04649 31.5255 15.7628C31.5255 24.479 24.479 31.5255 15.7628 31.5255C7.04649 31.5255 0 24.479 0 15.7628C0 7.04649 7.04649 0 15.7628 0Z" fill="#C41616"/>
<path fill-rule="evenodd" clip-rule="evenodd" d="M18.4341 8.68269C19.0353 8.81627 19.6364 8.94986 20.2375 9.15023C21.373 9.51758 22.475 10.0519 23.4769 10.7198L25.8814 9.48419C23.6773 7.8144 21.1392 6.67895 18.4007 6.24481V8.68269H18.4341ZM15.7625 6.04443C16.1966 6.04443 16.5974 6.04443 16.9981 6.07783C16.9981 6.51197 16.9981 8.88307 16.9981 8.51571C16.5974 8.48232 16.1632 8.48232 15.7625 8.48232C15.3283 8.48232 14.9276 8.48232 14.5268 8.51571C14.5268 8.88307 14.5268 6.51197 14.5268 6.07783C14.9276 6.04443 15.3617 6.04443 15.7625 6.04443ZM14.7606 23.2766C14.5936 23.0094 14.4934 22.7089 14.4934 22.3749V21.874V9.95173C14.8942 9.91833 15.3283 9.91833 15.7291 9.91833C16.1632 9.91833 16.564 9.91833 16.9647 9.95173V21.9074V22.4083C16.9647 22.7089 16.8979 23.0428 16.731 23.2766C16.4638 23.644 16.0964 23.8109 15.7291 23.8109C15.3951 23.8443 15.0278 23.644 14.7606 23.2766ZM13.0908 8.68269C12.4897 8.81627 11.8886 8.94986 11.2875 9.15023C10.152 9.51758 9.04995 10.0519 8.01469 10.7198L5.6102 9.48419C7.81431 7.8144 10.3858 6.67895 13.0908 6.21141V8.68269ZM18.8349 23.7107C20.5715 22.1411 22.6086 19.4027 23.6773 14.9611C23.911 14.026 24.0446 13.0241 24.1114 12.0223L26.5159 10.7532C26.5493 12.3562 26.3823 13.8924 26.0483 15.3284C24.9129 20.3378 22.475 23.6773 20.1039 25.5141C18.6011 26.683 17.1651 27.2841 15.7625 27.2841C14.3599 27.2841 12.9572 26.683 11.421 25.5141C9.04995 23.6773 6.61207 20.3712 5.47662 15.3284C5.14266 13.8924 4.97568 12.3896 5.00908 10.82L7.41357 12.089C7.48036 13.0909 7.61394 14.0594 7.84771 14.9945C8.91637 19.4027 10.9201 22.1077 12.6901 23.7107C13.8589 24.746 14.8274 25.2803 15.7625 25.2803C16.731 25.2803 17.6994 24.746 18.8349 23.7107Z" fill="#FEFEFE"/>
</svg>
