<svg width="15" height="17" viewBox="0 0 15 17" fill="none" xmlns="http://www.w3.org/2000/svg">
<path fill-rule="evenodd" clip-rule="evenodd" d="M7.20801 0.667007C10.998 0.667007 14.083 3.77401 14.083 7.59401C14.083 12.29 8.70301 16.917 7.20801 16.917C5.71301 16.917 0.333008 12.29 0.333008 7.59401C0.333008 3.77401 3.41701 0.667007 7.20801 0.667007ZM7.20801 1.91701C4.10601 1.91701 1.58301 4.46401 1.58301 7.59401C1.58301 11.577 6.27001 15.457 7.20801 15.664C8.14601 15.456 12.833 11.576 12.833 7.59401C12.833 4.46401 10.31 1.91701 7.20801 1.91701ZM7.20801 4.83301C7.92658 4.83354 8.61557 5.11922 9.12368 5.62733C9.63179 6.13544 9.91748 6.82443 9.91801 7.54301C9.91721 8.26122 9.63134 8.94975 9.12321 9.45733C8.61507 9.9649 7.92623 10.25 7.20801 10.25C6.49031 10.2492 5.80224 9.96376 5.29475 9.45627C4.78726 8.94878 4.5018 8.2607 4.50101 7.54301C4.50154 6.82478 4.78695 6.13609 5.29463 5.62804C5.8023 5.11999 6.49078 4.83407 7.20901 4.83301H7.20801ZM7.20801 6.08301C6.91916 6.08261 6.63669 6.1679 6.39633 6.32809C6.15597 6.48828 5.96853 6.71616 5.85772 6.9829C5.74691 7.24965 5.71771 7.54327 5.77382 7.82661C5.82993 8.10996 5.96882 8.37029 6.17292 8.57467C6.37703 8.77906 6.63717 8.91831 6.92044 8.97481C7.20371 9.0313 7.49737 9.00251 7.76426 8.89206C8.03116 8.78162 8.2593 8.59449 8.41981 8.35435C8.58033 8.11421 8.66601 7.83185 8.66601 7.54301C8.66601 7.15631 8.5126 6.78541 8.23944 6.51169C7.96629 6.23797 7.5957 6.0838 7.20901 6.08301H7.20801Z" fill="black"/>
</svg>
